G04*
G04 #@! TF.GenerationSoftware,Altium Limited,Altium Designer,24.3.1 (35)*
G04*
G04 Layer_Color=16711935*
%FSLAX25Y25*%
%MOIN*%
G70*
G04*
G04 #@! TF.SameCoordinates,59408384-AF90-41EA-90E0-151A5B2CE245*
G04*
G04*
G04 #@! TF.FilePolarity,Positive*
G04*
G01*
G75*
%ADD10C,0.00787*%
%ADD13C,0.00500*%
%ADD68C,0.00394*%
%ADD70C,0.00400*%
%ADD71R,0.05118X0.01647*%
G36*
X151852Y412822D02*
Y410850D01*
X148110D01*
Y412822D01*
X151852D01*
D02*
G37*
G36*
X151854Y417422D02*
Y415456D01*
X148110D01*
Y417422D01*
X151854D01*
D02*
G37*
D10*
X267026Y450555D02*
G03*
X267026Y450555I-394J0D01*
G01*
X149311Y219035D02*
G03*
X149311Y219035I-394J0D01*
G01*
X149390Y93886D02*
G03*
X149390Y93886I-394J0D01*
G01*
X320394Y297559D02*
G03*
X320394Y297559I-394J0D01*
G01*
D13*
X264073Y440555D02*
Y463075D01*
X144073D02*
X264073D01*
X144073Y440555D02*
Y463075D01*
Y440555D02*
X264073D01*
Y463075D01*
X144073D02*
X264073D01*
X144073Y440555D02*
Y463075D01*
X109705Y264858D02*
X125020D01*
Y291280D01*
X109705D02*
X125020D01*
X284744Y242421D02*
Y312067D01*
X310295D01*
X235020D02*
X284744D01*
X235020Y242421D02*
Y312067D01*
Y242421D02*
X284744D01*
X310295D01*
Y312067D02*
Y333524D01*
Y242421D02*
Y312067D01*
Y221280D02*
Y242421D01*
X109705Y333524D02*
X310295D01*
X109705Y221280D02*
X310295D01*
X109705Y291280D02*
Y333524D01*
Y264858D02*
Y291280D01*
Y221280D02*
Y264858D01*
X109783Y139709D02*
X125098D01*
Y166130D01*
X109783D02*
X125098D01*
X284823Y117272D02*
Y186917D01*
X310374D01*
X235098D02*
X284823D01*
X235098Y117272D02*
Y186917D01*
Y117272D02*
X284823D01*
X310374D01*
Y186917D02*
Y208374D01*
Y117272D02*
Y186917D01*
Y96130D02*
Y117272D01*
X109783Y208374D02*
X310374D01*
X109783Y96130D02*
X310374D01*
X109783Y166130D02*
Y208374D01*
Y139709D02*
Y166130D01*
Y96130D02*
Y139709D01*
X315492Y245000D02*
X334508D01*
Y295000D01*
X315492D02*
X334508D01*
X315492Y245000D02*
Y295000D01*
Y245000D02*
X334508D01*
Y295000D01*
X315492D02*
X334508D01*
X99882Y393228D02*
X106575D01*
X99882Y396772D02*
X106575D01*
Y393228D02*
Y396772D01*
X99882Y393228D02*
Y396772D01*
D68*
X334193Y324705D02*
Y350295D01*
X320807Y324705D02*
Y350295D01*
Y324705D02*
X334193D01*
X320807Y350295D02*
X334193D01*
X113716Y431244D02*
X128284D01*
X113716Y404866D02*
X128284D01*
X113716D02*
Y431244D01*
X128284Y404866D02*
Y431244D01*
X319114Y398228D02*
X325807D01*
X319114Y401772D02*
X325807D01*
Y398228D02*
Y401772D01*
X319114Y398228D02*
Y401772D01*
X319153Y388228D02*
X325847D01*
X319153Y391772D02*
X325847D01*
Y388228D02*
Y391772D01*
X319153Y388228D02*
Y391772D01*
X230236Y367228D02*
X309764D01*
X230236Y386913D02*
X309764D01*
X230236Y367228D02*
Y386913D01*
X309764Y367228D02*
Y386913D01*
X230236Y380614D02*
X309764D01*
X257106Y213228D02*
Y216772D01*
X263799Y213228D02*
Y216772D01*
X257106D02*
X263799D01*
X257106Y213228D02*
X263799D01*
X236653D02*
Y216772D01*
X243347Y213228D02*
Y216772D01*
X236653D02*
X243347D01*
X236653Y213228D02*
X243347D01*
X225847Y213228D02*
Y216772D01*
X219153Y213228D02*
Y216772D01*
Y213228D02*
X225847D01*
X219153Y216772D02*
X225847D01*
X192201Y213228D02*
Y216772D01*
X198894Y213228D02*
Y216772D01*
X192201D02*
X198894D01*
X192201Y213228D02*
X198894D01*
X148425Y394351D02*
Y400650D01*
X151575Y394351D02*
Y400650D01*
X148425Y394351D02*
X151575D01*
X148425Y400650D02*
X151575D01*
X89252Y379842D02*
X118780D01*
X89252Y340472D02*
Y379842D01*
Y340472D02*
X118780D01*
Y379842D01*
X197559Y421654D02*
Y428346D01*
X192441Y421654D02*
Y428346D01*
X197559D01*
X192441Y421654D02*
X197559D01*
X175059D02*
Y428346D01*
X169941Y421654D02*
Y428346D01*
X175059D01*
X169941Y421654D02*
X175059D01*
X260059D02*
Y428346D01*
X254941Y421654D02*
Y428346D01*
X260059D01*
X254941Y421654D02*
X260059D01*
X227559D02*
Y428346D01*
X222441Y421654D02*
Y428346D01*
X227559D01*
X222441Y421654D02*
X227559D01*
X260059Y405000D02*
Y411693D01*
X254941Y405000D02*
Y411693D01*
X260059D01*
X254941Y405000D02*
X260059D01*
X227559Y404153D02*
Y410847D01*
X222441Y404153D02*
Y410847D01*
X227559D01*
X222441Y404153D02*
X227559D01*
X175059D02*
Y410847D01*
X169941Y404153D02*
Y410847D01*
X175059D01*
X169941Y404153D02*
X175059D01*
X197559D02*
Y410847D01*
X192441Y404153D02*
Y410847D01*
X197559D01*
X192441Y404153D02*
X197559D01*
X113897Y393425D02*
Y396574D01*
X120196Y393425D02*
Y396574D01*
X113897D02*
X120196D01*
X113897Y393425D02*
X120196D01*
X143236Y380614D02*
X222764D01*
Y367228D02*
Y386913D01*
X143236Y367228D02*
Y386913D01*
X222764D01*
X143236Y367228D02*
X222764D01*
D70*
X148299Y412752D02*
Y415555D01*
X151650Y412752D02*
Y415555D01*
D71*
X194990Y427529D02*
D03*
X172483Y427529D02*
D03*
X257486Y427524D02*
D03*
X224988Y427523D02*
D03*
X257490Y410869D02*
D03*
X224989Y410022D02*
D03*
X172477Y410023D02*
D03*
X194974Y410022D02*
D03*
M02*
