G04*
G04 #@! TF.GenerationSoftware,Altium Limited,Altium Designer,24.3.1 (35)*
G04*
G04 Layer_Physical_Order=2*
G04 Layer_Color=16711680*
%FSLAX25Y25*%
%MOIN*%
G70*
G04*
G04 #@! TF.SameCoordinates,59408384-AF90-41EA-90E0-151A5B2CE245*
G04*
G04*
G04 #@! TF.FilePolarity,Positive*
G04*
G01*
G75*
%ADD50C,0.01500*%
%ADD51C,0.08000*%
%ADD53C,0.05000*%
%ADD54C,0.06000*%
%ADD55R,0.06000X0.06000*%
%ADD56C,0.11811*%
%ADD57C,0.07874*%
%ADD58R,0.07874X0.07874*%
%ADD59C,0.06496*%
%ADD60R,0.06496X0.06496*%
%ADD61R,0.05906X0.05906*%
%ADD62C,0.05906*%
%ADD63C,0.07677*%
%ADD64C,0.05000*%
%ADD65C,0.17000*%
%ADD66R,0.12795X0.04134*%
G36*
X340000Y342500D02*
X273500D01*
Y342961D01*
X273261Y343851D01*
X272801Y344649D01*
X272149Y345301D01*
X271487Y345683D01*
Y346216D01*
X271987Y346423D01*
X272573Y345837D01*
X273474Y345317D01*
X274480Y345047D01*
X275520D01*
X276526Y345317D01*
X277427Y345837D01*
X278163Y346573D01*
X278683Y347474D01*
X278953Y348480D01*
Y349520D01*
X278683Y350526D01*
X278163Y351427D01*
X277427Y352163D01*
X276526Y352683D01*
X275520Y352953D01*
X274480D01*
X273474Y352683D01*
X272573Y352163D01*
X271987Y351577D01*
X271487Y351784D01*
Y355297D01*
X271487Y355297D01*
X271351Y355980D01*
X270964Y356559D01*
X270964Y356559D01*
X262323Y365200D01*
X262406Y365825D01*
X262427Y365837D01*
X263163Y366573D01*
X263683Y367474D01*
X263953Y368480D01*
Y369520D01*
X263683Y370526D01*
X263163Y371427D01*
X262427Y372163D01*
X261526Y372683D01*
X260520Y372953D01*
X259480D01*
X258474Y372683D01*
X257573Y372163D01*
X256837Y371427D01*
X256317Y370526D01*
X256047Y369520D01*
Y368480D01*
X256317Y367474D01*
X256837Y366573D01*
X257573Y365837D01*
X258395Y365363D01*
Y364821D01*
X258530Y364138D01*
X258917Y363559D01*
X267918Y354558D01*
Y352325D01*
X267457Y352133D01*
X267427Y352163D01*
X266526Y352683D01*
X265520Y352953D01*
X264480D01*
X263474Y352683D01*
X262573Y352163D01*
X261837Y351427D01*
X261317Y350526D01*
X261047Y349520D01*
Y348480D01*
X261317Y347474D01*
X261837Y346573D01*
X262573Y345837D01*
X263216Y345466D01*
Y342500D01*
X256784D01*
Y345466D01*
X257427Y345837D01*
X258163Y346573D01*
X258683Y347474D01*
X258953Y348480D01*
Y349520D01*
X258683Y350526D01*
X258163Y351427D01*
X257427Y352163D01*
X256526Y352683D01*
X255520Y352953D01*
X254480D01*
X253474Y352683D01*
X252573Y352163D01*
X251837Y351427D01*
X251317Y350526D01*
X251047Y349520D01*
Y348480D01*
X251317Y347474D01*
X251837Y346573D01*
X252573Y345837D01*
X253216Y345466D01*
Y342500D01*
X247373D01*
X245287Y344585D01*
X245479Y345047D01*
X245520D01*
X246526Y345317D01*
X247427Y345837D01*
X248163Y346573D01*
X248683Y347474D01*
X248953Y348480D01*
Y349520D01*
X248683Y350526D01*
X248163Y351427D01*
X247427Y352163D01*
X246526Y352683D01*
X245520Y352953D01*
X244480D01*
X243474Y352683D01*
X242573Y352163D01*
X242544Y352133D01*
X242081Y352325D01*
Y361908D01*
X245964Y365790D01*
X245964Y365790D01*
X246351Y366369D01*
X246358Y366403D01*
X246636Y366502D01*
X246891Y366519D01*
X247573Y365837D01*
X248474Y365317D01*
X249480Y365047D01*
X250520D01*
X251526Y365317D01*
X252427Y365837D01*
X253163Y366573D01*
X253683Y367474D01*
X253953Y368480D01*
Y369520D01*
X253683Y370526D01*
X253163Y371427D01*
X252427Y372163D01*
X251526Y372683D01*
X250520Y372953D01*
X250479D01*
X250287Y373415D01*
X253762Y376889D01*
X253762Y376889D01*
X254149Y377468D01*
X254284Y378151D01*
Y395146D01*
X254784Y395266D01*
X255351Y394699D01*
X256149Y394238D01*
X257000Y394010D01*
Y397500D01*
Y400989D01*
X256149Y400762D01*
X255351Y400301D01*
X254784Y399734D01*
X254284Y399854D01*
Y435646D01*
X254784Y435766D01*
X255351Y435199D01*
X256149Y434738D01*
X257039Y434500D01*
X257961D01*
X258851Y434738D01*
X259649Y435199D01*
X260301Y435851D01*
X260761Y436649D01*
X261000Y437539D01*
Y438461D01*
X260761Y439351D01*
X260301Y440149D01*
X259649Y440801D01*
X259284Y441011D01*
Y442261D01*
X261044Y444021D01*
X262798D01*
X263481Y444157D01*
X264060Y444543D01*
X265262Y445746D01*
X265649Y446324D01*
X265784Y447007D01*
X265784Y447007D01*
Y454103D01*
X265784Y454103D01*
X265649Y454786D01*
X265262Y455365D01*
X259365Y461262D01*
X258786Y461649D01*
X258103Y461784D01*
X230608D01*
X230397Y462149D01*
X229745Y462801D01*
X228947Y463262D01*
X228057Y463500D01*
X227136D01*
X226245Y463262D01*
X225447Y462801D01*
X224796Y462149D01*
X224335Y461351D01*
X224096Y460461D01*
Y459539D01*
X224241Y458998D01*
X223061Y457818D01*
X222675Y457239D01*
X222539Y456556D01*
Y453453D01*
X222039Y453246D01*
X221529Y453756D01*
X220617Y454283D01*
X219600Y454555D01*
X218547D01*
X217529Y454283D01*
X216617Y453756D01*
X215872Y453011D01*
X215346Y452099D01*
X215073Y451082D01*
Y450029D01*
X215346Y449011D01*
X215872Y448099D01*
X216617Y447354D01*
X217529Y446828D01*
X218547Y446555D01*
X219600D01*
X220617Y446828D01*
X220783Y446923D01*
X221216Y446673D01*
Y440292D01*
X220961Y440038D01*
X220574Y439459D01*
X220439Y438776D01*
Y437378D01*
X220202Y437315D01*
X219404Y436854D01*
X218753Y436202D01*
X218292Y435404D01*
X218053Y434514D01*
Y433593D01*
X218292Y432702D01*
X218753Y431904D01*
X219404Y431253D01*
X220202Y430792D01*
X221093Y430553D01*
X222014D01*
X222904Y430792D01*
X223702Y431253D01*
X224354Y431904D01*
X224815Y432702D01*
X225053Y433593D01*
Y434514D01*
X224815Y435404D01*
X224354Y436202D01*
X224007Y436549D01*
Y438037D01*
X224262Y438292D01*
X224648Y438870D01*
X224784Y439553D01*
X224784Y439553D01*
Y447025D01*
X225515Y447756D01*
X225711Y447821D01*
X226170Y447801D01*
X226617Y447354D01*
X227529Y446828D01*
X228547Y446555D01*
X228573D01*
Y450555D01*
Y454555D01*
X228547D01*
X227529Y454283D01*
X226617Y453756D01*
X226569Y453708D01*
X226107Y453899D01*
Y455817D01*
X226864Y456573D01*
X227136Y456500D01*
X228057D01*
X228947Y456739D01*
X229745Y457199D01*
X230397Y457851D01*
X230608Y458216D01*
X257364D01*
X260563Y455017D01*
X260371Y454555D01*
X255073D01*
Y449078D01*
X251238Y445244D01*
X250851Y444665D01*
X250716Y443982D01*
Y382413D01*
X250567Y382319D01*
X250216Y382234D01*
X250137Y382313D01*
X249996Y382496D01*
X249813Y382637D01*
X249649Y382801D01*
X249449Y382916D01*
X249265Y383057D01*
X249051Y383146D01*
X248851Y383261D01*
X248627Y383321D01*
X248414Y383410D01*
X248184Y383440D01*
X247961Y383500D01*
X247729D01*
X247500Y383530D01*
X230000D01*
X229771Y383500D01*
X229539D01*
X229316Y383440D01*
X229086Y383410D01*
X228873Y383321D01*
X228649Y383261D01*
X228449Y383146D01*
X228235Y383057D01*
X228051Y382916D01*
X227851Y382801D01*
X227687Y382637D01*
X227504Y382496D01*
X227363Y382313D01*
X227284Y382234D01*
X226933Y382319D01*
X226784Y382413D01*
Y400146D01*
X227284Y400266D01*
X227851Y399699D01*
X228649Y399238D01*
X229500Y399010D01*
Y402500D01*
Y405990D01*
X228649Y405761D01*
X227851Y405301D01*
X227284Y404734D01*
X226784Y404854D01*
Y415000D01*
X226648Y415683D01*
X226262Y416262D01*
X226262Y416262D01*
X205784Y436739D01*
Y447480D01*
X206284Y447687D01*
X206617Y447354D01*
X207529Y446828D01*
X208546Y446555D01*
X209600D01*
X210617Y446828D01*
X211529Y447354D01*
X212274Y448099D01*
X212801Y449011D01*
X213073Y450029D01*
Y451082D01*
X212801Y452099D01*
X212274Y453011D01*
X211529Y453756D01*
X210617Y454283D01*
X209600Y454555D01*
X208546D01*
X207529Y454283D01*
X206617Y453756D01*
X206284Y453423D01*
X206053Y453459D01*
X205763Y453609D01*
X205648Y454183D01*
X205262Y454762D01*
X201727Y458296D01*
X201148Y458683D01*
X200465Y458819D01*
X192034D01*
X191352Y458683D01*
X190773Y458296D01*
X190773Y458296D01*
X188265Y455788D01*
X187878Y455209D01*
X187742Y454526D01*
Y454340D01*
X187529Y454283D01*
X186617Y453756D01*
X185872Y453011D01*
X185346Y452099D01*
X185073Y451082D01*
Y450029D01*
X185346Y449011D01*
X185872Y448099D01*
X186617Y447354D01*
X187529Y446828D01*
X188547Y446555D01*
X189600D01*
X190617Y446828D01*
X191529Y447354D01*
X192274Y448099D01*
X192800Y449011D01*
X193073Y450029D01*
Y451082D01*
X192800Y452099D01*
X192274Y453011D01*
X191529Y453756D01*
X191500Y453977D01*
X192774Y455250D01*
X199633D01*
X199812Y455016D01*
X199676Y454720D01*
X199535Y454555D01*
X198547D01*
X197529Y454283D01*
X196617Y453756D01*
X195872Y453011D01*
X195346Y452099D01*
X195073Y451082D01*
Y450029D01*
X195346Y449011D01*
X195872Y448099D01*
X196617Y447354D01*
X197289Y446966D01*
Y435927D01*
X197425Y435244D01*
X197811Y434665D01*
X220716Y411761D01*
Y352546D01*
X220216Y352285D01*
X219526Y352683D01*
X218520Y352953D01*
X218500D01*
Y349000D01*
X218000D01*
Y348500D01*
X214047D01*
Y348480D01*
X214317Y347474D01*
X214837Y346573D01*
X214866Y346544D01*
X214675Y346081D01*
X211325D01*
X211134Y346544D01*
X211163Y346573D01*
X211683Y347474D01*
X211953Y348480D01*
Y349520D01*
X211683Y350526D01*
X211163Y351427D01*
X210427Y352163D01*
X209526Y352683D01*
X208520Y352953D01*
X207480D01*
X206474Y352683D01*
X205573Y352163D01*
X204837Y351427D01*
X204317Y350526D01*
X204047Y349520D01*
Y348480D01*
X204317Y347474D01*
X204837Y346573D01*
X204867Y346544D01*
X204675Y346081D01*
X201325D01*
X201133Y346544D01*
X201163Y346573D01*
X201683Y347474D01*
X201953Y348480D01*
Y349520D01*
X201683Y350526D01*
X201163Y351427D01*
X200427Y352163D01*
X199526Y352683D01*
X198520Y352953D01*
X197480D01*
X196474Y352683D01*
X195573Y352163D01*
X195047Y351637D01*
X194461Y351656D01*
X194414Y351685D01*
X194262Y351912D01*
X191210Y354964D01*
X190631Y355351D01*
X189948Y355487D01*
X186052D01*
X186052Y355487D01*
X185369Y355351D01*
X184790Y354964D01*
X184790Y354964D01*
X181543Y351717D01*
X181414Y351619D01*
X180894Y351696D01*
X180427Y352163D01*
X179526Y352683D01*
X178520Y352953D01*
X177480D01*
X176474Y352683D01*
X175573Y352163D01*
X174837Y351427D01*
X174317Y350526D01*
X174047Y349520D01*
Y348480D01*
X174239Y347763D01*
X171761Y345284D01*
X170470D01*
X170336Y345784D01*
X170427Y345837D01*
X171163Y346573D01*
X171683Y347474D01*
X171953Y348480D01*
Y349520D01*
X171683Y350526D01*
X171163Y351427D01*
X170427Y352163D01*
X169526Y352683D01*
X168520Y352953D01*
X167480D01*
X166474Y352683D01*
X165573Y352163D01*
X164837Y351427D01*
X164317Y350526D01*
X164047Y349520D01*
Y348480D01*
X164317Y347474D01*
X164837Y346573D01*
X165573Y345837D01*
X165664Y345784D01*
X165530Y345284D01*
X160470D01*
X160336Y345784D01*
X160427Y345837D01*
X161163Y346573D01*
X161683Y347474D01*
X161953Y348480D01*
Y349520D01*
X161683Y350526D01*
X161163Y351427D01*
X160427Y352163D01*
X159526Y352683D01*
X158520Y352953D01*
X157480D01*
X156474Y352683D01*
X155573Y352163D01*
X154837Y351427D01*
X154317Y350526D01*
X154047Y349520D01*
Y348480D01*
X154317Y347474D01*
X154837Y346573D01*
X155573Y345837D01*
X155664Y345784D01*
X155530Y345284D01*
X151953D01*
Y348500D01*
X148000D01*
Y349000D01*
X147500D01*
Y352953D01*
X145000D01*
Y384818D01*
X145448Y385039D01*
X145978Y384632D01*
X147195Y384129D01*
X148500Y383957D01*
X151020D01*
X154046Y380930D01*
X154625Y380543D01*
X155308Y380408D01*
X155308Y380408D01*
X155569D01*
X161216Y374761D01*
Y372534D01*
X160573Y372163D01*
X159837Y371427D01*
X159317Y370526D01*
X159047Y369520D01*
Y368480D01*
X159317Y367474D01*
X159837Y366573D01*
X160573Y365837D01*
X161474Y365317D01*
X162480Y365047D01*
X163520D01*
X164526Y365317D01*
X165427Y365837D01*
X166163Y366573D01*
X166683Y367474D01*
X166953Y368480D01*
Y369520D01*
X166683Y370526D01*
X166163Y371427D01*
X165427Y372163D01*
X164784Y372534D01*
Y375500D01*
X164648Y376183D01*
X164262Y376762D01*
X164262Y376762D01*
X157570Y383453D01*
X156991Y383840D01*
X156308Y383976D01*
X156047D01*
X155083Y384941D01*
X155095Y385463D01*
X163566Y393934D01*
X164367Y394978D01*
X164871Y396195D01*
X165043Y397500D01*
X165043Y397500D01*
Y426901D01*
X168599Y430457D01*
X184457D01*
Y428000D01*
X184629Y426695D01*
X185133Y425478D01*
X185934Y424434D01*
X204272Y406096D01*
X203965Y405695D01*
X203851Y405761D01*
X203000Y405990D01*
Y403000D01*
X205990D01*
X205762Y403851D01*
X205695Y403965D01*
X206096Y404272D01*
X209957Y400411D01*
Y392500D01*
X210129Y391195D01*
X210632Y389978D01*
X211434Y388934D01*
X212478Y388133D01*
X213695Y387629D01*
X215000Y387457D01*
X216305Y387629D01*
X217522Y388133D01*
X218566Y388934D01*
X219368Y389978D01*
X219871Y391195D01*
X220043Y392500D01*
Y402500D01*
X220043Y402500D01*
X219871Y403805D01*
X219368Y405022D01*
X218566Y406066D01*
X194543Y430089D01*
Y436000D01*
X194371Y437305D01*
X193868Y438522D01*
X193066Y439566D01*
X192022Y440368D01*
X190805Y440871D01*
X189500Y441043D01*
X188195Y440871D01*
X187402Y440543D01*
X166500D01*
X165195Y440371D01*
X164402Y440043D01*
X135000D01*
X133695Y439871D01*
X132478Y439367D01*
X131434Y438566D01*
X130632Y437522D01*
X130129Y436305D01*
X129957Y435000D01*
X130129Y433695D01*
X130632Y432478D01*
X131434Y431434D01*
X132478Y430632D01*
X133695Y430129D01*
X135000Y429957D01*
X154705D01*
X155035Y429581D01*
X154957Y428990D01*
Y399589D01*
X149634Y394266D01*
X149252Y394425D01*
X147947Y394596D01*
X146641Y394425D01*
X145500Y393952D01*
X145000Y394149D01*
Y427000D01*
X84855D01*
X84502Y427355D01*
X84760Y465000D01*
X340000D01*
Y342500D01*
D02*
G37*
G36*
X227363Y377687D02*
X227504Y377504D01*
X227687Y377363D01*
X227851Y377199D01*
X228051Y377084D01*
X228235Y376943D01*
X228449Y376854D01*
X228649Y376739D01*
X228873Y376679D01*
X229086Y376590D01*
X229316Y376560D01*
X229539Y376500D01*
X229771D01*
X230000Y376470D01*
X247500D01*
X247602Y376483D01*
X247789Y376193D01*
X247826Y376000D01*
X243543Y371717D01*
X243414Y371619D01*
X242894Y371696D01*
X242427Y372163D01*
X241526Y372683D01*
X240520Y372953D01*
X239480D01*
X238474Y372683D01*
X237573Y372163D01*
X236837Y371427D01*
X236317Y370526D01*
X236047Y369520D01*
Y368480D01*
X236317Y367474D01*
X236837Y366573D01*
X237573Y365837D01*
X238474Y365317D01*
X239480Y365047D01*
X239521D01*
X239713Y364585D01*
X239036Y363908D01*
X238649Y363329D01*
X238513Y362647D01*
Y352953D01*
X235500D01*
Y349000D01*
Y345047D01*
X238953D01*
Y345166D01*
X239453Y345373D01*
X241864Y342962D01*
X241673Y342500D01*
X228889D01*
X228806Y342644D01*
X228154Y343296D01*
X227356Y343756D01*
X226784Y343910D01*
Y345233D01*
X226851Y345334D01*
X226987Y346017D01*
X226987Y346017D01*
Y351983D01*
X226987Y351983D01*
X226851Y352666D01*
X226784Y352766D01*
Y377587D01*
X226933Y377681D01*
X227284Y377766D01*
X227363Y377687D01*
D02*
G37*
G36*
X139000Y345284D02*
X133629D01*
X133629Y345284D01*
X133242Y345207D01*
X132841Y345609D01*
X132043Y346070D01*
X131415Y346238D01*
X131367Y346615D01*
X131392Y346762D01*
X132149Y347199D01*
X132801Y347851D01*
X133262Y348649D01*
X133490Y349500D01*
X126511D01*
X126739Y348649D01*
X127199Y347851D01*
X127851Y347199D01*
X128649Y346739D01*
X129276Y346570D01*
X129325Y346193D01*
X129300Y346046D01*
X128542Y345609D01*
X127891Y344957D01*
X127430Y344159D01*
X127191Y343269D01*
Y342348D01*
X127430Y341458D01*
X127891Y340659D01*
X128542Y340008D01*
X129341Y339547D01*
X130231Y339309D01*
X131152D01*
X132043Y339547D01*
X132841Y340008D01*
X133492Y340659D01*
X133953Y341458D01*
X133969Y341519D01*
X133981Y341521D01*
X134272Y341716D01*
X139000D01*
Y332500D01*
X142698D01*
X142889Y332038D01*
X141969Y331117D01*
X141582Y330539D01*
X141446Y329856D01*
Y310217D01*
X141521Y309840D01*
X141238Y309351D01*
X141000Y308461D01*
Y307539D01*
X141238Y306649D01*
X141699Y305851D01*
X142351Y305199D01*
X143149Y304738D01*
X144039Y304500D01*
X144961D01*
X145851Y304738D01*
X146649Y305199D01*
X147301Y305851D01*
X147761Y306649D01*
X148000Y307539D01*
Y308461D01*
X147761Y309351D01*
X147301Y310149D01*
X146649Y310801D01*
X145851Y311262D01*
X145015Y311486D01*
Y323767D01*
X145476Y323959D01*
X145886Y323549D01*
X147012Y322899D01*
X148267Y322563D01*
X149567D01*
X150823Y322899D01*
X151949Y323549D01*
X152868Y324469D01*
X153518Y325594D01*
X153658Y326119D01*
X154176D01*
X154317Y325594D01*
X154967Y324469D01*
X155886Y323549D01*
X157012Y322899D01*
X158267Y322563D01*
X158417D01*
Y327500D01*
X159417D01*
Y322563D01*
X159567D01*
X160823Y322899D01*
X161949Y323549D01*
X162868Y324469D01*
X163518Y325594D01*
X163658Y326119D01*
X164176D01*
X164317Y325594D01*
X164967Y324469D01*
X165886Y323549D01*
X167012Y322899D01*
X168267Y322563D01*
X169567D01*
X170823Y322899D01*
X171949Y323549D01*
X172868Y324469D01*
X173518Y325594D01*
X173659Y326119D01*
X174176D01*
X174317Y325594D01*
X174967Y324469D01*
X175886Y323549D01*
X177012Y322899D01*
X178267Y322563D01*
X179567D01*
X180823Y322899D01*
X181949Y323549D01*
X182868Y324469D01*
X183518Y325594D01*
X183659Y326119D01*
X184176D01*
X184317Y325594D01*
X184967Y324469D01*
X185886Y323549D01*
X187012Y322899D01*
X188267Y322563D01*
X189567D01*
X190823Y322899D01*
X191949Y323549D01*
X192868Y324469D01*
X193518Y325594D01*
X193658Y326119D01*
X194176D01*
X194317Y325594D01*
X194967Y324469D01*
X195886Y323549D01*
X197012Y322899D01*
X198267Y322563D01*
X199567D01*
X200823Y322899D01*
X201949Y323549D01*
X202868Y324469D01*
X203518Y325594D01*
X203659Y326119D01*
X204176D01*
X204317Y325594D01*
X204967Y324469D01*
X205886Y323549D01*
X207012Y322899D01*
X208267Y322563D01*
X209567D01*
X210823Y322899D01*
X211949Y323549D01*
X212868Y324469D01*
X213518Y325594D01*
X213658Y326119D01*
X214176D01*
X214317Y325594D01*
X214967Y324469D01*
X215886Y323549D01*
X217012Y322899D01*
X218267Y322563D01*
X219567D01*
X220823Y322899D01*
X221949Y323549D01*
X222868Y324469D01*
X223518Y325594D01*
X223658Y326119D01*
X224176D01*
X224317Y325594D01*
X224967Y324469D01*
X225886Y323549D01*
X227012Y322899D01*
X228267Y322563D01*
X229567D01*
X230823Y322899D01*
X231949Y323549D01*
X232868Y324469D01*
X233518Y325594D01*
X233659Y326119D01*
X234176D01*
X234317Y325594D01*
X234967Y324469D01*
X235886Y323549D01*
X237012Y322899D01*
X238267Y322563D01*
X239567D01*
X240823Y322899D01*
X241949Y323549D01*
X242868Y324469D01*
X243518Y325594D01*
X243658Y326119D01*
X244176D01*
X244317Y325594D01*
X244967Y324469D01*
X245886Y323549D01*
X247012Y322899D01*
X248267Y322563D01*
X249567D01*
X250823Y322899D01*
X251949Y323549D01*
X252868Y324469D01*
X253518Y325594D01*
X253659Y326119D01*
X254176D01*
X254317Y325594D01*
X254967Y324469D01*
X255886Y323549D01*
X257012Y322899D01*
X258267Y322563D01*
X259567D01*
X260823Y322899D01*
X261949Y323549D01*
X262868Y324469D01*
X263518Y325594D01*
X263658Y326119D01*
X264176D01*
X264317Y325594D01*
X264967Y324469D01*
X265886Y323549D01*
X267012Y322899D01*
X268267Y322563D01*
X269567D01*
X270823Y322899D01*
X271949Y323549D01*
X272868Y324469D01*
X273518Y325594D01*
X273658Y326119D01*
X274176D01*
X274317Y325594D01*
X274967Y324469D01*
X275886Y323549D01*
X277012Y322899D01*
X278267Y322563D01*
X279567D01*
X280823Y322899D01*
X281949Y323549D01*
X282868Y324469D01*
X283518Y325594D01*
X283659Y326119D01*
X284176D01*
X284317Y325594D01*
X284967Y324469D01*
X285886Y323549D01*
X287012Y322899D01*
X288267Y322563D01*
X288846D01*
X289038Y322101D01*
X282625Y315689D01*
X218405D01*
X218404Y315689D01*
X217722Y315553D01*
X217143Y315166D01*
X195868Y293891D01*
X195461Y294000D01*
X194539D01*
X193649Y293761D01*
X192851Y293301D01*
X192199Y292649D01*
X191738Y291851D01*
X191500Y290961D01*
Y290039D01*
X191738Y289149D01*
X192199Y288351D01*
X192851Y287699D01*
X193649Y287239D01*
X194539Y287000D01*
X195461D01*
X196351Y287239D01*
X197149Y287699D01*
X197801Y288351D01*
X198261Y289149D01*
X198500Y290039D01*
Y290961D01*
X198391Y291368D01*
X219144Y312120D01*
X235443D01*
X235635Y311658D01*
X218868Y294891D01*
X218461Y295000D01*
X217539D01*
X216649Y294761D01*
X215851Y294301D01*
X215199Y293649D01*
X214738Y292851D01*
X214500Y291961D01*
Y291039D01*
X214738Y290149D01*
X215199Y289351D01*
X215851Y288699D01*
X216649Y288239D01*
X217539Y288000D01*
X218461D01*
X219351Y288239D01*
X220149Y288699D01*
X220801Y289351D01*
X221262Y290149D01*
X221500Y291039D01*
Y291961D01*
X221391Y292368D01*
X238644Y309620D01*
X241397D01*
X241597Y309120D01*
X227862Y295386D01*
X227456Y295495D01*
X226534D01*
X225644Y295256D01*
X224846Y294795D01*
X224194Y294144D01*
X223733Y293346D01*
X223495Y292456D01*
Y291534D01*
X223733Y290644D01*
X224194Y289846D01*
X224846Y289194D01*
X225644Y288733D01*
X226534Y288495D01*
X227456D01*
X228346Y288733D01*
X229144Y289194D01*
X229796Y289846D01*
X230256Y290644D01*
X230495Y291534D01*
Y292456D01*
X230386Y292862D01*
X243739Y306216D01*
X304982D01*
X305665Y306351D01*
X306244Y306738D01*
X319804Y320298D01*
X319804Y320298D01*
X320175Y320669D01*
X320335Y320909D01*
X320512Y321138D01*
X320951Y322024D01*
X320967Y322083D01*
X321001Y322134D01*
X321057Y322417D01*
X321133Y322696D01*
X321509Y323016D01*
X327000D01*
Y326083D01*
Y329150D01*
X321137D01*
Y332500D01*
X340000D01*
Y216000D01*
Y92000D01*
X84500D01*
Y421000D01*
X139000D01*
Y345284D01*
D02*
G37*
G36*
X315068Y328909D02*
Y324591D01*
X303665Y313189D01*
X285825D01*
X285634Y313651D01*
X295866Y323883D01*
X295866Y323883D01*
X296156Y324316D01*
X296680Y324242D01*
X296743Y323927D01*
X297188Y322852D01*
X297834Y321885D01*
X298657Y321062D01*
X299624Y320416D01*
X300699Y319971D01*
X301840Y319744D01*
X303003D01*
X304144Y319971D01*
X305219Y320416D01*
X306186Y321062D01*
X307008Y321885D01*
X307655Y322852D01*
X308100Y323927D01*
X308327Y325068D01*
Y326231D01*
X308100Y327372D01*
X307655Y328447D01*
X307008Y329414D01*
X306186Y330237D01*
X305219Y330883D01*
X305171Y330903D01*
X305271Y331403D01*
X312574D01*
X315068Y328909D01*
D02*
G37*
%LPC*%
G36*
X229600Y454555D02*
X229573D01*
Y451055D01*
X233073D01*
Y451082D01*
X232801Y452099D01*
X232274Y453011D01*
X231529Y453756D01*
X230617Y454283D01*
X229600Y454555D01*
D02*
G37*
G36*
X169600D02*
X169573D01*
Y451055D01*
X173073D01*
Y451082D01*
X172801Y452099D01*
X172274Y453011D01*
X171529Y453756D01*
X170617Y454283D01*
X169600Y454555D01*
D02*
G37*
G36*
X168573D02*
X168546D01*
X167529Y454283D01*
X166617Y453756D01*
X165872Y453011D01*
X165346Y452099D01*
X165073Y451082D01*
Y451055D01*
X168573D01*
Y454555D01*
D02*
G37*
G36*
X239600D02*
X238546D01*
X237529Y454283D01*
X236617Y453756D01*
X235872Y453011D01*
X235346Y452099D01*
X235073Y451082D01*
Y450029D01*
X235346Y449011D01*
X235872Y448099D01*
X236617Y447354D01*
X237529Y446828D01*
X238546Y446555D01*
X239600D01*
X240617Y446828D01*
X241529Y447354D01*
X242274Y448099D01*
X242800Y449011D01*
X243073Y450029D01*
Y451082D01*
X242800Y452099D01*
X242274Y453011D01*
X241529Y453756D01*
X240617Y454283D01*
X239600Y454555D01*
D02*
G37*
G36*
X233073Y450055D02*
X229573D01*
Y446555D01*
X229600D01*
X230617Y446828D01*
X231529Y447354D01*
X232274Y448099D01*
X232801Y449011D01*
X233073Y450029D01*
Y450055D01*
D02*
G37*
G36*
X179600Y454555D02*
X178547D01*
X177529Y454283D01*
X176617Y453756D01*
X175872Y453011D01*
X175346Y452099D01*
X175073Y451082D01*
Y450029D01*
X175346Y449011D01*
X175872Y448099D01*
X176617Y447354D01*
X177529Y446828D01*
X178547Y446555D01*
X179600D01*
X180617Y446828D01*
X181529Y447354D01*
X182274Y448099D01*
X182800Y449011D01*
X183073Y450029D01*
Y451082D01*
X182800Y452099D01*
X182274Y453011D01*
X181529Y453756D01*
X180617Y454283D01*
X179600Y454555D01*
D02*
G37*
G36*
X173073Y450055D02*
X169573D01*
Y446555D01*
X169600D01*
X170617Y446828D01*
X171529Y447354D01*
X172274Y448099D01*
X172801Y449011D01*
X173073Y450029D01*
Y450055D01*
D02*
G37*
G36*
X168573D02*
X165073D01*
Y450029D01*
X165346Y449011D01*
X165872Y448099D01*
X166617Y447354D01*
X167529Y446828D01*
X168546Y446555D01*
X168573D01*
Y450055D01*
D02*
G37*
G36*
X159600Y454555D02*
X158546D01*
X157529Y454283D01*
X156617Y453756D01*
X155872Y453011D01*
X155346Y452099D01*
X155073Y451082D01*
Y450029D01*
X155346Y449011D01*
X155872Y448099D01*
X156617Y447354D01*
X157529Y446828D01*
X158546Y446555D01*
X159600D01*
X160617Y446828D01*
X161529Y447354D01*
X162274Y448099D01*
X162801Y449011D01*
X163073Y450029D01*
Y451082D01*
X162801Y452099D01*
X162274Y453011D01*
X161529Y453756D01*
X160617Y454283D01*
X159600Y454555D01*
D02*
G37*
G36*
X149600D02*
X148547D01*
X147529Y454283D01*
X146617Y453756D01*
X145872Y453011D01*
X145346Y452099D01*
X145073Y451082D01*
Y450029D01*
X145346Y449011D01*
X145872Y448099D01*
X146617Y447354D01*
X147529Y446828D01*
X148547Y446555D01*
X149600D01*
X150617Y446828D01*
X151529Y447354D01*
X152274Y448099D01*
X152801Y449011D01*
X153073Y450029D01*
Y451082D01*
X152801Y452099D01*
X152274Y453011D01*
X151529Y453756D01*
X150617Y454283D01*
X149600Y454555D01*
D02*
G37*
G36*
X330936Y464500D02*
X329064D01*
X327229Y464135D01*
X325500Y463419D01*
X323944Y462379D01*
X322621Y461056D01*
X321581Y459500D01*
X320865Y457771D01*
X320500Y455936D01*
Y454064D01*
X320865Y452229D01*
X321581Y450500D01*
X322621Y448944D01*
X323944Y447621D01*
X325500Y446581D01*
X327229Y445865D01*
X329064Y445500D01*
X330936D01*
X332771Y445865D01*
X334500Y446581D01*
X336056Y447621D01*
X337379Y448944D01*
X338419Y450500D01*
X339135Y452229D01*
X339500Y454064D01*
Y455936D01*
X339135Y457771D01*
X338419Y459500D01*
X337379Y461056D01*
X336056Y462379D01*
X334500Y463419D01*
X332771Y464135D01*
X330936Y464500D01*
D02*
G37*
G36*
X95936D02*
X94064D01*
X92229Y464135D01*
X90500Y463419D01*
X88944Y462379D01*
X87621Y461056D01*
X86581Y459500D01*
X85865Y457771D01*
X85500Y455936D01*
Y454064D01*
X85865Y452229D01*
X86581Y450500D01*
X87621Y448944D01*
X88944Y447621D01*
X90500Y446581D01*
X92229Y445865D01*
X94064Y445500D01*
X95936D01*
X97771Y445865D01*
X99500Y446581D01*
X101056Y447621D01*
X102379Y448944D01*
X103419Y450500D01*
X104135Y452229D01*
X104500Y454064D01*
Y455936D01*
X104135Y457771D01*
X103419Y459500D01*
X102379Y461056D01*
X101056Y462379D01*
X99500Y463419D01*
X97771Y464135D01*
X95936Y464500D01*
D02*
G37*
G36*
X295650Y434937D02*
X295500D01*
Y430500D01*
X299937D01*
Y430650D01*
X299601Y431906D01*
X298951Y433031D01*
X298031Y433951D01*
X296906Y434601D01*
X295650Y434937D01*
D02*
G37*
G36*
X294500D02*
X294350D01*
X293094Y434601D01*
X291969Y433951D01*
X291049Y433031D01*
X290399Y431906D01*
X290063Y430650D01*
Y430500D01*
X294500D01*
Y434937D01*
D02*
G37*
G36*
X150500Y428489D02*
Y425500D01*
X153489D01*
X153261Y426351D01*
X152801Y427149D01*
X152149Y427801D01*
X151351Y428262D01*
X150500Y428489D01*
D02*
G37*
G36*
X149500D02*
X148649Y428262D01*
X147851Y427801D01*
X147199Y427149D01*
X146739Y426351D01*
X146511Y425500D01*
X149500D01*
Y428489D01*
D02*
G37*
G36*
X299937Y429500D02*
X295500D01*
Y425063D01*
X295650D01*
X296906Y425399D01*
X298031Y426049D01*
X298951Y426969D01*
X299601Y428094D01*
X299937Y429350D01*
Y429500D01*
D02*
G37*
G36*
X294500D02*
X290063D01*
Y429350D01*
X290399Y428094D01*
X291049Y426969D01*
X291969Y426049D01*
X293094Y425399D01*
X294350Y425063D01*
X294500D01*
Y429500D01*
D02*
G37*
G36*
X153489Y424500D02*
X150500D01*
Y421511D01*
X151351Y421738D01*
X152149Y422199D01*
X152801Y422851D01*
X153261Y423649D01*
X153489Y424500D01*
D02*
G37*
G36*
X149500D02*
X146511D01*
X146739Y423649D01*
X147199Y422851D01*
X147851Y422199D01*
X148649Y421738D01*
X149500Y421511D01*
Y424500D01*
D02*
G37*
G36*
X277150Y422937D02*
X277000D01*
Y418500D01*
X281437D01*
Y418650D01*
X281101Y419906D01*
X280451Y421031D01*
X279531Y421951D01*
X278406Y422601D01*
X277150Y422937D01*
D02*
G37*
G36*
X276000D02*
X275850D01*
X274594Y422601D01*
X273469Y421951D01*
X272549Y421031D01*
X271899Y419906D01*
X271563Y418650D01*
Y418500D01*
X276000D01*
Y422937D01*
D02*
G37*
G36*
X281437Y417500D02*
X277000D01*
Y413063D01*
X277150D01*
X278406Y413399D01*
X279531Y414049D01*
X280451Y414969D01*
X281101Y416094D01*
X281437Y417350D01*
Y417500D01*
D02*
G37*
G36*
X276000D02*
X271563D01*
Y417350D01*
X271899Y416094D01*
X272549Y414969D01*
X273469Y414049D01*
X274594Y413399D01*
X275850Y413063D01*
X276000D01*
Y417500D01*
D02*
G37*
G36*
X230500Y405990D02*
Y403000D01*
X233489D01*
X233261Y403851D01*
X232801Y404649D01*
X232149Y405301D01*
X231351Y405761D01*
X230500Y405990D01*
D02*
G37*
G36*
X202000D02*
X201149Y405761D01*
X200351Y405301D01*
X199699Y404649D01*
X199239Y403851D01*
X199011Y403000D01*
X202000D01*
Y405990D01*
D02*
G37*
G36*
X180000D02*
Y403000D01*
X182990D01*
X182762Y403851D01*
X182301Y404649D01*
X181649Y405301D01*
X180851Y405761D01*
X180000Y405990D01*
D02*
G37*
G36*
X179000D02*
X178149Y405761D01*
X177351Y405301D01*
X176699Y404649D01*
X176239Y403851D01*
X176011Y403000D01*
X179000D01*
Y405990D01*
D02*
G37*
G36*
X233489Y402000D02*
X230500D01*
Y399010D01*
X231351Y399238D01*
X232149Y399699D01*
X232801Y400351D01*
X233261Y401149D01*
X233489Y402000D01*
D02*
G37*
G36*
X205990D02*
X203000D01*
Y399010D01*
X203851Y399238D01*
X204649Y399699D01*
X205301Y400351D01*
X205762Y401149D01*
X205990Y402000D01*
D02*
G37*
G36*
X202000D02*
X199011D01*
X199239Y401149D01*
X199699Y400351D01*
X200351Y399699D01*
X201149Y399238D01*
X202000Y399010D01*
Y402000D01*
D02*
G37*
G36*
X182990D02*
X180000D01*
Y399010D01*
X180851Y399238D01*
X181649Y399699D01*
X182301Y400351D01*
X182762Y401149D01*
X182990Y402000D01*
D02*
G37*
G36*
X179000D02*
X176011D01*
X176239Y401149D01*
X176699Y400351D01*
X177351Y399699D01*
X178149Y399238D01*
X179000Y399010D01*
Y402000D01*
D02*
G37*
G36*
X258000Y400989D02*
Y398000D01*
X260989D01*
X260761Y398851D01*
X260301Y399649D01*
X259649Y400301D01*
X258851Y400762D01*
X258000Y400989D01*
D02*
G37*
G36*
X249600Y454555D02*
X248547D01*
X247529Y454283D01*
X246617Y453756D01*
X245872Y453011D01*
X245346Y452099D01*
X245073Y451082D01*
Y450029D01*
X245346Y449011D01*
X245764Y448287D01*
X243365Y445888D01*
X242978Y445309D01*
X242842Y444626D01*
Y402865D01*
X235931Y395954D01*
X234996D01*
X234649Y396301D01*
X233851Y396761D01*
X232961Y397000D01*
X232039D01*
X231149Y396761D01*
X230351Y396301D01*
X229699Y395649D01*
X229239Y394851D01*
X229000Y393961D01*
Y393039D01*
X229239Y392149D01*
X229699Y391351D01*
X230351Y390699D01*
X231149Y390238D01*
X232039Y390000D01*
X232961D01*
X233851Y390238D01*
X234649Y390699D01*
X235301Y391351D01*
X235761Y392149D01*
X235825Y392385D01*
X236670D01*
X237352Y392521D01*
X237931Y392908D01*
X245888Y400865D01*
X245888Y400865D01*
X246275Y401443D01*
X246410Y402126D01*
Y443887D01*
X249078Y446554D01*
X249078Y446555D01*
X249600D01*
X250617Y446828D01*
X251529Y447354D01*
X252274Y448099D01*
X252800Y449011D01*
X253073Y450029D01*
Y451082D01*
X252800Y452099D01*
X252274Y453011D01*
X251529Y453756D01*
X250617Y454283D01*
X249600Y454555D01*
D02*
G37*
G36*
X313000Y398489D02*
Y395500D01*
X315989D01*
X315761Y396351D01*
X315301Y397149D01*
X314649Y397801D01*
X313851Y398261D01*
X313000Y398489D01*
D02*
G37*
G36*
X312000D02*
X311149Y398261D01*
X310351Y397801D01*
X309699Y397149D01*
X309239Y396351D01*
X309011Y395500D01*
X312000D01*
Y398489D01*
D02*
G37*
G36*
X260989Y397000D02*
X258000D01*
Y394010D01*
X258851Y394238D01*
X259649Y394699D01*
X260301Y395351D01*
X260761Y396149D01*
X260989Y397000D01*
D02*
G37*
G36*
X315989Y394500D02*
X313000D01*
Y391511D01*
X313851Y391739D01*
X314649Y392199D01*
X315301Y392851D01*
X315761Y393649D01*
X315989Y394500D01*
D02*
G37*
G36*
X312000D02*
X309011D01*
X309239Y393649D01*
X309699Y392851D01*
X310351Y392199D01*
X311149Y391739D01*
X312000Y391511D01*
Y394500D01*
D02*
G37*
G36*
X295000Y411043D02*
X294194Y410937D01*
X290063D01*
Y408195D01*
X279411Y397543D01*
X267500D01*
X266195Y397371D01*
X264978Y396867D01*
X263934Y396066D01*
X263133Y395022D01*
X262629Y393805D01*
X262457Y392500D01*
X262629Y391195D01*
X263133Y389978D01*
X263934Y388934D01*
X264978Y388133D01*
X266195Y387629D01*
X267500Y387457D01*
X281500D01*
X282805Y387629D01*
X284022Y388133D01*
X285066Y388934D01*
X297195Y401063D01*
X299937D01*
Y405194D01*
X300043Y406000D01*
X299937Y406806D01*
Y410937D01*
X295806D01*
X295000Y411043D01*
D02*
G37*
G36*
X270520Y372953D02*
X270500D01*
Y369500D01*
X273953D01*
Y369520D01*
X273683Y370526D01*
X273163Y371427D01*
X272427Y372163D01*
X271526Y372683D01*
X270520Y372953D01*
D02*
G37*
G36*
X183520D02*
X183500D01*
Y369500D01*
X186953D01*
Y369520D01*
X186683Y370526D01*
X186163Y371427D01*
X185427Y372163D01*
X184526Y372683D01*
X183520Y372953D01*
D02*
G37*
G36*
X269500D02*
X269480D01*
X268474Y372683D01*
X267573Y372163D01*
X266837Y371427D01*
X266317Y370526D01*
X266047Y369520D01*
Y369500D01*
X269500D01*
Y372953D01*
D02*
G37*
G36*
X182500D02*
X182480D01*
X181474Y372683D01*
X180573Y372163D01*
X179837Y371427D01*
X179317Y370526D01*
X179047Y369520D01*
Y369500D01*
X182500D01*
Y372953D01*
D02*
G37*
G36*
X300520D02*
X299480D01*
X298474Y372683D01*
X297573Y372163D01*
X296837Y371427D01*
X296317Y370526D01*
X296047Y369520D01*
Y368480D01*
X296317Y367474D01*
X296837Y366573D01*
X297573Y365837D01*
X298474Y365317D01*
X299480Y365047D01*
X300520D01*
X301526Y365317D01*
X302427Y365837D01*
X303163Y366573D01*
X303683Y367474D01*
X303953Y368480D01*
Y369520D01*
X303683Y370526D01*
X303163Y371427D01*
X302427Y372163D01*
X301526Y372683D01*
X300520Y372953D01*
D02*
G37*
G36*
X290520D02*
X289480D01*
X288474Y372683D01*
X287573Y372163D01*
X286837Y371427D01*
X286317Y370526D01*
X286047Y369520D01*
Y368480D01*
X286317Y367474D01*
X286837Y366573D01*
X287573Y365837D01*
X288474Y365317D01*
X289480Y365047D01*
X290520D01*
X291526Y365317D01*
X292427Y365837D01*
X293163Y366573D01*
X293683Y367474D01*
X293953Y368480D01*
Y369520D01*
X293683Y370526D01*
X293163Y371427D01*
X292427Y372163D01*
X291526Y372683D01*
X290520Y372953D01*
D02*
G37*
G36*
X280520D02*
X279480D01*
X278474Y372683D01*
X277573Y372163D01*
X276837Y371427D01*
X276317Y370526D01*
X276047Y369520D01*
Y368480D01*
X276317Y367474D01*
X276837Y366573D01*
X277573Y365837D01*
X278474Y365317D01*
X279480Y365047D01*
X280520D01*
X281526Y365317D01*
X282427Y365837D01*
X283163Y366573D01*
X283683Y367474D01*
X283953Y368480D01*
Y369520D01*
X283683Y370526D01*
X283163Y371427D01*
X282427Y372163D01*
X281526Y372683D01*
X280520Y372953D01*
D02*
G37*
G36*
X273953Y368500D02*
X270500D01*
Y365047D01*
X270520D01*
X271526Y365317D01*
X272427Y365837D01*
X273163Y366573D01*
X273683Y367474D01*
X273953Y368480D01*
Y368500D01*
D02*
G37*
G36*
X269500D02*
X266047D01*
Y368480D01*
X266317Y367474D01*
X266837Y366573D01*
X267573Y365837D01*
X268474Y365317D01*
X269480Y365047D01*
X269500D01*
Y368500D01*
D02*
G37*
G36*
X213520Y372953D02*
X212480D01*
X211474Y372683D01*
X210573Y372163D01*
X209837Y371427D01*
X209317Y370526D01*
X209047Y369520D01*
Y368480D01*
X209317Y367474D01*
X209837Y366573D01*
X210573Y365837D01*
X211474Y365317D01*
X212480Y365047D01*
X213520D01*
X214526Y365317D01*
X215427Y365837D01*
X216163Y366573D01*
X216683Y367474D01*
X216953Y368480D01*
Y369520D01*
X216683Y370526D01*
X216163Y371427D01*
X215427Y372163D01*
X214526Y372683D01*
X213520Y372953D01*
D02*
G37*
G36*
X203520D02*
X202480D01*
X201474Y372683D01*
X200573Y372163D01*
X199837Y371427D01*
X199317Y370526D01*
X199047Y369520D01*
Y368480D01*
X199317Y367474D01*
X199837Y366573D01*
X200573Y365837D01*
X201474Y365317D01*
X202480Y365047D01*
X203520D01*
X204526Y365317D01*
X205427Y365837D01*
X206163Y366573D01*
X206683Y367474D01*
X206953Y368480D01*
Y369520D01*
X206683Y370526D01*
X206163Y371427D01*
X205427Y372163D01*
X204526Y372683D01*
X203520Y372953D01*
D02*
G37*
G36*
X193520D02*
X192480D01*
X191474Y372683D01*
X190573Y372163D01*
X189837Y371427D01*
X189317Y370526D01*
X189047Y369520D01*
Y368480D01*
X189317Y367474D01*
X189837Y366573D01*
X190573Y365837D01*
X191474Y365317D01*
X192480Y365047D01*
X193520D01*
X194526Y365317D01*
X195427Y365837D01*
X196163Y366573D01*
X196683Y367474D01*
X196953Y368480D01*
Y369520D01*
X196683Y370526D01*
X196163Y371427D01*
X195427Y372163D01*
X194526Y372683D01*
X193520Y372953D01*
D02*
G37*
G36*
X186953Y368500D02*
X183500D01*
Y365047D01*
X183520D01*
X184526Y365317D01*
X185427Y365837D01*
X186163Y366573D01*
X186683Y367474D01*
X186953Y368480D01*
Y368500D01*
D02*
G37*
G36*
X182500D02*
X179047D01*
Y368480D01*
X179317Y367474D01*
X179837Y366573D01*
X180573Y365837D01*
X181474Y365317D01*
X182480Y365047D01*
X182500D01*
Y368500D01*
D02*
G37*
G36*
X173520Y372953D02*
X172480D01*
X171474Y372683D01*
X170573Y372163D01*
X169837Y371427D01*
X169317Y370526D01*
X169047Y369520D01*
Y368480D01*
X169317Y367474D01*
X169837Y366573D01*
X170573Y365837D01*
X171474Y365317D01*
X172480Y365047D01*
X173520D01*
X174526Y365317D01*
X175427Y365837D01*
X176163Y366573D01*
X176683Y367474D01*
X176953Y368480D01*
Y369520D01*
X176683Y370526D01*
X176163Y371427D01*
X175427Y372163D01*
X174526Y372683D01*
X173520Y372953D01*
D02*
G37*
G36*
X153520D02*
X152480D01*
X151474Y372683D01*
X150573Y372163D01*
X149837Y371427D01*
X149317Y370526D01*
X149047Y369520D01*
Y368480D01*
X149317Y367474D01*
X149837Y366573D01*
X150573Y365837D01*
X151474Y365317D01*
X152480Y365047D01*
X153520D01*
X154526Y365317D01*
X155427Y365837D01*
X156163Y366573D01*
X156683Y367474D01*
X156953Y368480D01*
Y369520D01*
X156683Y370526D01*
X156163Y371427D01*
X155427Y372163D01*
X154526Y372683D01*
X153520Y372953D01*
D02*
G37*
G36*
X305520Y352953D02*
X305500D01*
Y349500D01*
X308953D01*
Y349520D01*
X308683Y350526D01*
X308163Y351427D01*
X307427Y352163D01*
X306526Y352683D01*
X305520Y352953D01*
D02*
G37*
G36*
X151953D02*
X148500D01*
Y349500D01*
X151953D01*
Y352953D01*
D02*
G37*
G36*
X304500D02*
X304480D01*
X303474Y352683D01*
X302573Y352163D01*
X301837Y351427D01*
X301317Y350526D01*
X301047Y349520D01*
Y349500D01*
X304500D01*
Y352953D01*
D02*
G37*
G36*
X217500D02*
X217480D01*
X216474Y352683D01*
X215573Y352163D01*
X214837Y351427D01*
X214317Y350526D01*
X214047Y349520D01*
Y349500D01*
X217500D01*
Y352953D01*
D02*
G37*
G36*
X334898Y351984D02*
X328000D01*
Y349417D01*
X334898D01*
Y351984D01*
D02*
G37*
G36*
X327000D02*
X320102D01*
Y349417D01*
X327000D01*
Y351984D01*
D02*
G37*
G36*
X334898Y348417D02*
X328000D01*
Y345850D01*
X334898D01*
Y348417D01*
D02*
G37*
G36*
X327000D02*
X320102D01*
Y345850D01*
X327000D01*
Y348417D01*
D02*
G37*
G36*
X308953Y348500D02*
X305500D01*
Y345047D01*
X305520D01*
X306526Y345317D01*
X307427Y345837D01*
X308163Y346573D01*
X308683Y347474D01*
X308953Y348480D01*
Y348500D01*
D02*
G37*
G36*
X304500D02*
X301047D01*
Y348480D01*
X301317Y347474D01*
X301837Y346573D01*
X302573Y345837D01*
X303474Y345317D01*
X304480Y345047D01*
X304500D01*
Y348500D01*
D02*
G37*
G36*
X295520Y352953D02*
X294480D01*
X293474Y352683D01*
X292573Y352163D01*
X291837Y351427D01*
X291317Y350526D01*
X291047Y349520D01*
Y348480D01*
X291317Y347474D01*
X291837Y346573D01*
X292573Y345837D01*
X293474Y345317D01*
X294480Y345047D01*
X295520D01*
X296526Y345317D01*
X297427Y345837D01*
X298163Y346573D01*
X298683Y347474D01*
X298953Y348480D01*
Y349520D01*
X298683Y350526D01*
X298163Y351427D01*
X297427Y352163D01*
X296526Y352683D01*
X295520Y352953D01*
D02*
G37*
G36*
X285520D02*
X284480D01*
X283474Y352683D01*
X282573Y352163D01*
X281837Y351427D01*
X281317Y350526D01*
X281047Y349520D01*
Y348480D01*
X281317Y347474D01*
X281837Y346573D01*
X282573Y345837D01*
X283474Y345317D01*
X284480Y345047D01*
X285520D01*
X286526Y345317D01*
X287427Y345837D01*
X288163Y346573D01*
X288683Y347474D01*
X288953Y348480D01*
Y349520D01*
X288683Y350526D01*
X288163Y351427D01*
X287427Y352163D01*
X286526Y352683D01*
X285520Y352953D01*
D02*
G37*
G36*
X234500D02*
X231047D01*
Y349500D01*
X234500D01*
Y352953D01*
D02*
G37*
G36*
Y348500D02*
X231047D01*
Y345047D01*
X234500D01*
Y348500D01*
D02*
G37*
G36*
X133000Y403489D02*
Y400500D01*
X135989D01*
X135761Y401351D01*
X135301Y402149D01*
X134649Y402801D01*
X133851Y403262D01*
X133000Y403489D01*
D02*
G37*
G36*
X132000D02*
X131149Y403262D01*
X130351Y402801D01*
X129699Y402149D01*
X129238Y401351D01*
X129010Y400500D01*
X132000D01*
Y403489D01*
D02*
G37*
G36*
X135989Y399500D02*
X133000D01*
Y396511D01*
X133851Y396739D01*
X134649Y397199D01*
X135301Y397851D01*
X135761Y398649D01*
X135989Y399500D01*
D02*
G37*
G36*
X132000D02*
X129010D01*
X129238Y398649D01*
X129699Y397851D01*
X130351Y397199D01*
X131149Y396739D01*
X132000Y396511D01*
Y399500D01*
D02*
G37*
G36*
X93000Y398489D02*
Y395500D01*
X95990D01*
X95762Y396351D01*
X95301Y397149D01*
X94649Y397801D01*
X93851Y398261D01*
X93000Y398489D01*
D02*
G37*
G36*
X92000D02*
X91149Y398261D01*
X90351Y397801D01*
X89699Y397149D01*
X89239Y396351D01*
X89011Y395500D01*
X92000D01*
Y398489D01*
D02*
G37*
G36*
X95990Y394500D02*
X93000D01*
Y391511D01*
X93851Y391739D01*
X94649Y392199D01*
X95301Y392851D01*
X95762Y393649D01*
X95990Y394500D01*
D02*
G37*
G36*
X92000D02*
X89011D01*
X89239Y393649D01*
X89699Y392851D01*
X90351Y392199D01*
X91149Y391739D01*
X92000Y391511D01*
Y394500D01*
D02*
G37*
G36*
X105637Y374839D02*
X104363D01*
X103132Y374509D01*
X102029Y373872D01*
X101128Y372971D01*
X100491Y371868D01*
X100161Y370637D01*
Y369363D01*
X100491Y368132D01*
X101128Y367029D01*
X102029Y366128D01*
X103132Y365491D01*
X104363Y365161D01*
X105637D01*
X106868Y365491D01*
X107971Y366128D01*
X108872Y367029D01*
X109509Y368132D01*
X109839Y369363D01*
Y370637D01*
X109509Y371868D01*
X108872Y372971D01*
X107971Y373872D01*
X106868Y374509D01*
X105637Y374839D01*
D02*
G37*
G36*
Y355153D02*
X105500D01*
Y350815D01*
X109839D01*
Y350952D01*
X109509Y352183D01*
X108872Y353286D01*
X107971Y354187D01*
X106868Y354824D01*
X105637Y355153D01*
D02*
G37*
G36*
X104500D02*
X104363D01*
X103132Y354824D01*
X102029Y354187D01*
X101128Y353286D01*
X100491Y352183D01*
X100161Y350952D01*
Y350815D01*
X104500D01*
Y355153D01*
D02*
G37*
G36*
X130500Y353489D02*
Y350500D01*
X133490D01*
X133262Y351351D01*
X132801Y352149D01*
X132149Y352801D01*
X131351Y353261D01*
X130500Y353489D01*
D02*
G37*
G36*
X129500D02*
X128649Y353261D01*
X127851Y352801D01*
X127199Y352149D01*
X126739Y351351D01*
X126511Y350500D01*
X129500D01*
Y353489D01*
D02*
G37*
G36*
X109839Y349815D02*
X105500D01*
Y345476D01*
X105637D01*
X106868Y345806D01*
X107971Y346443D01*
X108872Y347344D01*
X109509Y348447D01*
X109839Y349678D01*
Y349815D01*
D02*
G37*
G36*
X104500D02*
X100161D01*
Y349678D01*
X100491Y348447D01*
X101128Y347344D01*
X102029Y346443D01*
X103132Y345806D01*
X104363Y345476D01*
X104500D01*
Y349815D01*
D02*
G37*
G36*
X334898Y329150D02*
X328000D01*
Y326583D01*
X334898D01*
Y329150D01*
D02*
G37*
G36*
Y325583D02*
X328000D01*
Y323016D01*
X334898D01*
Y325583D01*
D02*
G37*
G36*
X118160Y331555D02*
X116997D01*
X115856Y331328D01*
X114781Y330883D01*
X113814Y330237D01*
X112992Y329414D01*
X112345Y328447D01*
X111900Y327372D01*
X111673Y326231D01*
Y325068D01*
X111900Y323927D01*
X112345Y322852D01*
X112992Y321885D01*
X113814Y321062D01*
X114781Y320416D01*
X115856Y319971D01*
X116997Y319744D01*
X118160D01*
X119301Y319971D01*
X120376Y320416D01*
X121343Y321062D01*
X122166Y321885D01*
X122812Y322852D01*
X123257Y323927D01*
X123484Y325068D01*
Y326231D01*
X123257Y327372D01*
X122812Y328447D01*
X122166Y329414D01*
X121343Y330237D01*
X120376Y330883D01*
X119301Y331328D01*
X118160Y331555D01*
D02*
G37*
G36*
X302961Y293500D02*
X302039D01*
X301149Y293262D01*
X300351Y292801D01*
X299699Y292149D01*
X299238Y291351D01*
X299000Y290461D01*
Y289539D01*
X299109Y289132D01*
X285761Y275784D01*
X195417D01*
X194735Y275648D01*
X194156Y275262D01*
X151331Y232437D01*
X143980D01*
Y222563D01*
X153854D01*
Y225184D01*
X153939Y225248D01*
X154593Y225116D01*
X154967Y224469D01*
X155886Y223549D01*
X157012Y222899D01*
X158267Y222563D01*
X158417D01*
Y227500D01*
Y232437D01*
X158267D01*
X157012Y232101D01*
X156389Y231741D01*
X156082Y232141D01*
X196156Y272216D01*
X286500D01*
X287183Y272352D01*
X287762Y272738D01*
X301632Y286609D01*
X302039Y286500D01*
X302961D01*
X303851Y286738D01*
X304649Y287199D01*
X305301Y287851D01*
X305762Y288649D01*
X306000Y289539D01*
Y290461D01*
X305762Y291351D01*
X305301Y292149D01*
X304649Y292801D01*
X303851Y293262D01*
X302961Y293500D01*
D02*
G37*
G36*
X250961Y300500D02*
X250039D01*
X249149Y300261D01*
X248351Y299801D01*
X247699Y299149D01*
X247238Y298351D01*
X247000Y297461D01*
Y296539D01*
X247238Y295649D01*
X247699Y294851D01*
X248351Y294199D01*
X249149Y293739D01*
X250039Y293500D01*
X250961D01*
X251851Y293739D01*
X252649Y294199D01*
X253301Y294851D01*
X253511Y295216D01*
X321232D01*
X321738Y294710D01*
X321546Y294248D01*
X315752D01*
Y285752D01*
X323214D01*
Y283447D01*
X322752Y283256D01*
X322608Y283399D01*
X321640Y283959D01*
X320559Y284248D01*
X319441D01*
X318360Y283959D01*
X317392Y283399D01*
X316601Y282608D01*
X316041Y281640D01*
X315752Y280559D01*
Y279441D01*
X316041Y278360D01*
X316601Y277392D01*
X317392Y276601D01*
X318360Y276042D01*
X319441Y275752D01*
X320559D01*
X321640Y276042D01*
X322608Y276601D01*
X322752Y276744D01*
X323214Y276553D01*
Y275737D01*
X321478Y274002D01*
X320559Y274248D01*
X319441D01*
X318360Y273958D01*
X317392Y273399D01*
X316601Y272608D01*
X316041Y271640D01*
X315752Y270559D01*
Y269441D01*
X316041Y268360D01*
X316601Y267392D01*
X316746Y267246D01*
X316555Y266784D01*
X305511D01*
X305301Y267149D01*
X304649Y267801D01*
X303851Y268262D01*
X302961Y268500D01*
X302039D01*
X301149Y268262D01*
X300351Y267801D01*
X299699Y267149D01*
X299238Y266351D01*
X299000Y265461D01*
Y264539D01*
X299238Y263649D01*
X299699Y262851D01*
X300351Y262199D01*
X301149Y261738D01*
X302039Y261500D01*
X302961D01*
X303851Y261738D01*
X304649Y262199D01*
X305301Y262851D01*
X305511Y263216D01*
X316555D01*
X316746Y262754D01*
X316601Y262608D01*
X316041Y261640D01*
X315752Y260559D01*
Y259441D01*
X316041Y258360D01*
X316601Y257392D01*
X317392Y256601D01*
X318360Y256042D01*
X319441Y255752D01*
X320559D01*
X321640Y256042D01*
X322608Y256601D01*
X323399Y257392D01*
X323958Y258360D01*
X324248Y259441D01*
Y260559D01*
X323958Y261640D01*
X323399Y262608D01*
X323254Y262754D01*
X323445Y263216D01*
X324261D01*
X325998Y261478D01*
X325752Y260559D01*
Y259441D01*
X326042Y258360D01*
X326601Y257392D01*
X327392Y256601D01*
X328360Y256042D01*
X329441Y255752D01*
X330559D01*
X331640Y256042D01*
X332608Y256601D01*
X332752Y256744D01*
X333214Y256553D01*
Y253447D01*
X332752Y253256D01*
X332608Y253399D01*
X331640Y253959D01*
X330559Y254248D01*
X329441D01*
X328360Y253959D01*
X327392Y253399D01*
X326601Y252608D01*
X326042Y251640D01*
X325752Y250559D01*
Y249441D01*
X326042Y248360D01*
X326601Y247392D01*
X327392Y246601D01*
X328360Y246041D01*
X329441Y245752D01*
X329644D01*
X329835Y245290D01*
X305829Y221284D01*
X284239D01*
X281961Y223562D01*
X282868Y224469D01*
X283518Y225594D01*
X283659Y226119D01*
X284176D01*
X284317Y225594D01*
X284967Y224469D01*
X285886Y223549D01*
X287012Y222899D01*
X288267Y222563D01*
X289567D01*
X290823Y222899D01*
X291949Y223549D01*
X292868Y224469D01*
X293518Y225594D01*
X293854Y226850D01*
Y228150D01*
X293518Y229406D01*
X292868Y230531D01*
X291949Y231451D01*
X290823Y232101D01*
X290702Y232133D01*
Y265678D01*
X301632Y276609D01*
X302039Y276500D01*
X302961D01*
X303851Y276739D01*
X304649Y277199D01*
X305301Y277851D01*
X305762Y278649D01*
X306000Y279539D01*
Y280461D01*
X305762Y281351D01*
X305301Y282149D01*
X304649Y282801D01*
X303851Y283261D01*
X302961Y283500D01*
X302039D01*
X301149Y283261D01*
X300351Y282801D01*
X299699Y282149D01*
X299238Y281351D01*
X299000Y280461D01*
Y279539D01*
X299109Y279132D01*
X287656Y267679D01*
X287269Y267100D01*
X287133Y266417D01*
Y232133D01*
X287012Y232101D01*
X285886Y231451D01*
X284967Y230531D01*
X284317Y229406D01*
X284176Y228881D01*
X283659D01*
X283518Y229406D01*
X282868Y230531D01*
X281949Y231451D01*
X280823Y232101D01*
X279567Y232437D01*
X278267D01*
X277012Y232101D01*
X275886Y231451D01*
X274967Y230531D01*
X274317Y229406D01*
X274176Y228881D01*
X273658D01*
X273518Y229406D01*
X272868Y230531D01*
X271949Y231451D01*
X270823Y232101D01*
X269567Y232437D01*
X268267D01*
X267012Y232101D01*
X265886Y231451D01*
X264967Y230531D01*
X264317Y229406D01*
X264176Y228881D01*
X263658D01*
X263518Y229406D01*
X262868Y230531D01*
X261949Y231451D01*
X260823Y232101D01*
X259567Y232437D01*
X258267D01*
X257012Y232101D01*
X255886Y231451D01*
X254967Y230531D01*
X254317Y229406D01*
X254176Y228881D01*
X253659D01*
X253518Y229406D01*
X252868Y230531D01*
X251949Y231451D01*
X250823Y232101D01*
X249567Y232437D01*
X248267D01*
X247012Y232101D01*
X245886Y231451D01*
X244967Y230531D01*
X244317Y229406D01*
X244176Y228881D01*
X243658D01*
X243518Y229406D01*
X242868Y230531D01*
X241949Y231451D01*
X240823Y232101D01*
X239567Y232437D01*
X238267D01*
X237012Y232101D01*
X235886Y231451D01*
X234967Y230531D01*
X234317Y229406D01*
X234176Y228881D01*
X233659D01*
X233518Y229406D01*
X232868Y230531D01*
X231949Y231451D01*
X230823Y232101D01*
X229567Y232437D01*
X228267D01*
X227012Y232101D01*
X225886Y231451D01*
X224967Y230531D01*
X224317Y229406D01*
X224176Y228881D01*
X223658D01*
X223518Y229406D01*
X222868Y230531D01*
X221949Y231451D01*
X220823Y232101D01*
X219567Y232437D01*
X218267D01*
X217012Y232101D01*
X215886Y231451D01*
X214967Y230531D01*
X214317Y229406D01*
X214176Y228881D01*
X213658D01*
X213518Y229406D01*
X212868Y230531D01*
X211949Y231451D01*
X210823Y232101D01*
X209567Y232437D01*
X208267D01*
X207012Y232101D01*
X205886Y231451D01*
X204967Y230531D01*
X204317Y229406D01*
X204176Y228881D01*
X203659D01*
X203518Y229406D01*
X202868Y230531D01*
X201949Y231451D01*
X200823Y232101D01*
X199567Y232437D01*
X198267D01*
X197012Y232101D01*
X195886Y231451D01*
X194967Y230531D01*
X194317Y229406D01*
X194176Y228881D01*
X193658D01*
X193518Y229406D01*
X192868Y230531D01*
X191949Y231451D01*
X190823Y232101D01*
X189567Y232437D01*
X188267D01*
X187012Y232101D01*
X185886Y231451D01*
X184967Y230531D01*
X184317Y229406D01*
X184176Y228881D01*
X183659D01*
X183518Y229406D01*
X182868Y230531D01*
X181949Y231451D01*
X180823Y232101D01*
X179567Y232437D01*
X178267D01*
X177012Y232101D01*
X175886Y231451D01*
X174967Y230531D01*
X174317Y229406D01*
X174176Y228881D01*
X173659D01*
X173518Y229406D01*
X172868Y230531D01*
X171949Y231451D01*
X170823Y232101D01*
X169567Y232437D01*
X168267D01*
X167012Y232101D01*
X165886Y231451D01*
X164967Y230531D01*
X164317Y229406D01*
X164176Y228881D01*
X163658D01*
X163518Y229406D01*
X162868Y230531D01*
X161949Y231451D01*
X160823Y232101D01*
X159567Y232437D01*
X159417D01*
Y227500D01*
Y222563D01*
X159567D01*
X160823Y222899D01*
X161949Y223549D01*
X162868Y224469D01*
X163518Y225594D01*
X163658Y226119D01*
X164176D01*
X164317Y225594D01*
X164967Y224469D01*
X165886Y223549D01*
X167012Y222899D01*
X168267Y222563D01*
X169567D01*
X170823Y222899D01*
X171949Y223549D01*
X172868Y224469D01*
X173518Y225594D01*
X173659Y226119D01*
X174176D01*
X174317Y225594D01*
X174967Y224469D01*
X175886Y223549D01*
X177012Y222899D01*
X178267Y222563D01*
X179567D01*
X180823Y222899D01*
X181949Y223549D01*
X182868Y224469D01*
X183518Y225594D01*
X183659Y226119D01*
X184176D01*
X184317Y225594D01*
X184967Y224469D01*
X185886Y223549D01*
X187012Y222899D01*
X188267Y222563D01*
X189567D01*
X190823Y222899D01*
X191949Y223549D01*
X192868Y224469D01*
X193518Y225594D01*
X193658Y226119D01*
X194176D01*
X194317Y225594D01*
X194967Y224469D01*
X195886Y223549D01*
X197012Y222899D01*
X198267Y222563D01*
X199567D01*
X200823Y222899D01*
X201949Y223549D01*
X202868Y224469D01*
X203518Y225594D01*
X203659Y226119D01*
X204176D01*
X204317Y225594D01*
X204967Y224469D01*
X205886Y223549D01*
X207012Y222899D01*
X208267Y222563D01*
X209567D01*
X210823Y222899D01*
X211949Y223549D01*
X212868Y224469D01*
X213518Y225594D01*
X213658Y226119D01*
X214176D01*
X214317Y225594D01*
X214967Y224469D01*
X215886Y223549D01*
X217012Y222899D01*
X218267Y222563D01*
X219567D01*
X220823Y222899D01*
X221949Y223549D01*
X222868Y224469D01*
X223518Y225594D01*
X223658Y226119D01*
X224176D01*
X224317Y225594D01*
X224967Y224469D01*
X225886Y223549D01*
X227012Y222899D01*
X228267Y222563D01*
X229567D01*
X230823Y222899D01*
X231949Y223549D01*
X232868Y224469D01*
X233518Y225594D01*
X233659Y226119D01*
X234176D01*
X234317Y225594D01*
X234967Y224469D01*
X235886Y223549D01*
X237012Y222899D01*
X238267Y222563D01*
X239567D01*
X240823Y222899D01*
X241949Y223549D01*
X242868Y224469D01*
X243518Y225594D01*
X243658Y226119D01*
X244176D01*
X244317Y225594D01*
X244967Y224469D01*
X245886Y223549D01*
X247012Y222899D01*
X248267Y222563D01*
X249567D01*
X250823Y222899D01*
X251949Y223549D01*
X252868Y224469D01*
X253518Y225594D01*
X253659Y226119D01*
X254176D01*
X254317Y225594D01*
X254967Y224469D01*
X255886Y223549D01*
X257012Y222899D01*
X258267Y222563D01*
X259567D01*
X260823Y222899D01*
X261949Y223549D01*
X262868Y224469D01*
X263518Y225594D01*
X263658Y226119D01*
X264176D01*
X264317Y225594D01*
X264967Y224469D01*
X265886Y223549D01*
X267012Y222899D01*
X268267Y222563D01*
X269567D01*
X270823Y222899D01*
X271949Y223549D01*
X272868Y224469D01*
X273518Y225594D01*
X273658Y226119D01*
X274176D01*
X274317Y225594D01*
X274967Y224469D01*
X275886Y223549D01*
X277012Y222899D01*
X278267Y222563D01*
X278370D01*
X278435Y222234D01*
X278822Y221655D01*
X282238Y218238D01*
X282238Y218238D01*
X282817Y217851D01*
X283500Y217716D01*
X306568D01*
X307251Y217851D01*
X307830Y218238D01*
X336260Y246668D01*
X336647Y247247D01*
X336782Y247930D01*
X336782Y247930D01*
Y285002D01*
X336647Y285685D01*
X336260Y286264D01*
X334002Y288522D01*
X334248Y289441D01*
Y290559D01*
X333959Y291640D01*
X333399Y292608D01*
X332608Y293399D01*
X331640Y293958D01*
X330559Y294248D01*
X329441D01*
X328360Y293958D01*
X327392Y293399D01*
X327244Y293252D01*
X326782Y293443D01*
Y293973D01*
X326782Y293973D01*
X326646Y294656D01*
X326260Y295235D01*
X326260Y295235D01*
X323233Y298262D01*
X322654Y298649D01*
X321971Y298784D01*
X253511D01*
X253301Y299149D01*
X252649Y299801D01*
X251851Y300261D01*
X250961Y300500D01*
D02*
G37*
G36*
X320559Y254248D02*
X319441D01*
X318360Y253959D01*
X317392Y253399D01*
X316601Y252608D01*
X316041Y251640D01*
X315752Y250559D01*
Y249441D01*
X316041Y248360D01*
X316601Y247392D01*
X317392Y246601D01*
X318360Y246041D01*
X319441Y245752D01*
X320559D01*
X321640Y246041D01*
X322608Y246601D01*
X323399Y247392D01*
X323958Y248360D01*
X324248Y249441D01*
Y250559D01*
X323958Y251640D01*
X323399Y252608D01*
X322608Y253399D01*
X321640Y253959D01*
X320559Y254248D01*
D02*
G37*
G36*
X303003Y235059D02*
X301840D01*
X300699Y234832D01*
X299624Y234387D01*
X298657Y233741D01*
X297834Y232918D01*
X297188Y231951D01*
X296743Y230876D01*
X296516Y229735D01*
Y228572D01*
X296743Y227431D01*
X297188Y226356D01*
X297834Y225389D01*
X298657Y224566D01*
X299624Y223920D01*
X300699Y223475D01*
X301840Y223248D01*
X303003D01*
X304144Y223475D01*
X305219Y223920D01*
X306186Y224566D01*
X307008Y225389D01*
X307655Y226356D01*
X308100Y227431D01*
X308327Y228572D01*
Y229735D01*
X308100Y230876D01*
X307655Y231951D01*
X307008Y232918D01*
X306186Y233741D01*
X305219Y234387D01*
X304144Y234832D01*
X303003Y235059D01*
D02*
G37*
G36*
X118160D02*
X116997D01*
X115856Y234832D01*
X114781Y234387D01*
X113814Y233741D01*
X112992Y232918D01*
X112345Y231951D01*
X111900Y230876D01*
X111673Y229735D01*
Y228572D01*
X111900Y227431D01*
X112345Y226356D01*
X112992Y225389D01*
X113814Y224566D01*
X114781Y223920D01*
X115856Y223475D01*
X116997Y223248D01*
X118160D01*
X119301Y223475D01*
X120376Y223920D01*
X121343Y224566D01*
X122166Y225389D01*
X122812Y226356D01*
X123257Y227431D01*
X123484Y228572D01*
Y229735D01*
X123257Y230876D01*
X122812Y231951D01*
X122166Y232918D01*
X121343Y233741D01*
X120376Y234387D01*
X119301Y234832D01*
X118160Y235059D01*
D02*
G37*
G36*
X158496Y207287D02*
X158346D01*
X157090Y206951D01*
X155965Y206301D01*
X155045Y205382D01*
X154395Y204256D01*
X154255Y203731D01*
X153737D01*
X153597Y204256D01*
X152947Y205382D01*
X152027Y206301D01*
X150902Y206951D01*
X149646Y207287D01*
X148346D01*
X147090Y206951D01*
X145965Y206301D01*
X145045Y205382D01*
X144395Y204256D01*
X144059Y203000D01*
Y201700D01*
X144395Y200445D01*
X145045Y199319D01*
X145965Y198400D01*
X147090Y197750D01*
X148346Y197413D01*
X149646D01*
X150902Y197750D01*
X152027Y198400D01*
X152947Y199319D01*
X153597Y200445D01*
X153737Y200970D01*
X154255D01*
X154395Y200445D01*
X155045Y199319D01*
X155965Y198400D01*
X157090Y197750D01*
X158346Y197413D01*
X158496D01*
Y202350D01*
Y207287D01*
D02*
G37*
G36*
X289646D02*
X288346D01*
X287090Y206951D01*
X285965Y206301D01*
X285046Y205382D01*
X284396Y204256D01*
X284255Y203731D01*
X283737D01*
X283597Y204256D01*
X282947Y205382D01*
X282027Y206301D01*
X280902Y206951D01*
X279646Y207287D01*
X278346D01*
X277091Y206951D01*
X275965Y206301D01*
X275045Y205382D01*
X274395Y204256D01*
X274255Y203731D01*
X273737D01*
X273597Y204256D01*
X272947Y205382D01*
X272027Y206301D01*
X270902Y206951D01*
X269646Y207287D01*
X268346D01*
X267091Y206951D01*
X265965Y206301D01*
X265045Y205382D01*
X264395Y204256D01*
X264255Y203731D01*
X263737D01*
X263597Y204256D01*
X262947Y205382D01*
X262027Y206301D01*
X260902Y206951D01*
X259646Y207287D01*
X258346D01*
X257090Y206951D01*
X255965Y206301D01*
X255046Y205382D01*
X254396Y204256D01*
X254255Y203731D01*
X253737D01*
X253597Y204256D01*
X252947Y205382D01*
X252027Y206301D01*
X250902Y206951D01*
X249646Y207287D01*
X248346D01*
X247091Y206951D01*
X245965Y206301D01*
X245045Y205382D01*
X244395Y204256D01*
X244255Y203731D01*
X243737D01*
X243597Y204256D01*
X242947Y205382D01*
X242027Y206301D01*
X240902Y206951D01*
X239646Y207287D01*
X238346D01*
X237090Y206951D01*
X235965Y206301D01*
X235046Y205382D01*
X234396Y204256D01*
X234255Y203731D01*
X233737D01*
X233597Y204256D01*
X232947Y205382D01*
X232027Y206301D01*
X230902Y206951D01*
X229646Y207287D01*
X228346D01*
X227091Y206951D01*
X225965Y206301D01*
X225045Y205382D01*
X224395Y204256D01*
X224255Y203731D01*
X223737D01*
X223597Y204256D01*
X222947Y205382D01*
X222027Y206301D01*
X220902Y206951D01*
X219646Y207287D01*
X218346D01*
X217091Y206951D01*
X215965Y206301D01*
X215045Y205382D01*
X214395Y204256D01*
X214255Y203731D01*
X213737D01*
X213597Y204256D01*
X212947Y205382D01*
X212027Y206301D01*
X210902Y206951D01*
X209646Y207287D01*
X208346D01*
X207090Y206951D01*
X205965Y206301D01*
X205046Y205382D01*
X204396Y204256D01*
X204255Y203731D01*
X203737D01*
X203597Y204256D01*
X202947Y205382D01*
X202027Y206301D01*
X200902Y206951D01*
X199646Y207287D01*
X198346D01*
X197090Y206951D01*
X195965Y206301D01*
X195045Y205382D01*
X194395Y204256D01*
X194255Y203731D01*
X193737D01*
X193597Y204256D01*
X192947Y205382D01*
X192027Y206301D01*
X190902Y206951D01*
X189646Y207287D01*
X188346D01*
X187091Y206951D01*
X185965Y206301D01*
X185046Y205382D01*
X184396Y204256D01*
X184255Y203731D01*
X183737D01*
X183597Y204256D01*
X182947Y205382D01*
X182027Y206301D01*
X180902Y206951D01*
X179646Y207287D01*
X178346D01*
X177091Y206951D01*
X175965Y206301D01*
X175046Y205382D01*
X174396Y204256D01*
X174255Y203731D01*
X173737D01*
X173597Y204256D01*
X172947Y205382D01*
X172027Y206301D01*
X170902Y206951D01*
X169646Y207287D01*
X168346D01*
X167090Y206951D01*
X165965Y206301D01*
X165045Y205382D01*
X164395Y204256D01*
X164255Y203731D01*
X163737D01*
X163597Y204256D01*
X162947Y205382D01*
X162027Y206301D01*
X160902Y206951D01*
X159646Y207287D01*
X159496D01*
Y202350D01*
Y197413D01*
X159646D01*
X160902Y197750D01*
X162027Y198400D01*
X162947Y199319D01*
X163597Y200445D01*
X163737Y200970D01*
X164255D01*
X164395Y200445D01*
X165045Y199319D01*
X165965Y198400D01*
X167090Y197750D01*
X168346Y197413D01*
X169646D01*
X170902Y197750D01*
X172027Y198400D01*
X172947Y199319D01*
X173597Y200445D01*
X173737Y200970D01*
X174255D01*
X174396Y200445D01*
X175046Y199319D01*
X175965Y198400D01*
X177091Y197750D01*
X178346Y197413D01*
X179646D01*
X180902Y197750D01*
X182027Y198400D01*
X182947Y199319D01*
X183597Y200445D01*
X183737Y200970D01*
X184255D01*
X184396Y200445D01*
X185046Y199319D01*
X185965Y198400D01*
X187091Y197750D01*
X188346Y197413D01*
X189646D01*
X190902Y197750D01*
X192027Y198400D01*
X192947Y199319D01*
X193597Y200445D01*
X193737Y200970D01*
X194255D01*
X194395Y200445D01*
X195045Y199319D01*
X195965Y198400D01*
X197090Y197750D01*
X198346Y197413D01*
X199646D01*
X200902Y197750D01*
X202027Y198400D01*
X202947Y199319D01*
X203597Y200445D01*
X203737Y200970D01*
X204255D01*
X204396Y200445D01*
X205046Y199319D01*
X205965Y198400D01*
X207090Y197750D01*
X208346Y197413D01*
X209646D01*
X210902Y197750D01*
X212027Y198400D01*
X212947Y199319D01*
X213597Y200445D01*
X213737Y200970D01*
X214255D01*
X214395Y200445D01*
X215045Y199319D01*
X215965Y198400D01*
X217091Y197750D01*
X218346Y197413D01*
X219646D01*
X220902Y197750D01*
X222027Y198400D01*
X222947Y199319D01*
X223597Y200445D01*
X223737Y200970D01*
X224255D01*
X224395Y200445D01*
X225045Y199319D01*
X225965Y198400D01*
X227091Y197750D01*
X228346Y197413D01*
X229646D01*
X230902Y197750D01*
X232027Y198400D01*
X232947Y199319D01*
X233597Y200445D01*
X233737Y200970D01*
X234255D01*
X234396Y200445D01*
X235046Y199319D01*
X235965Y198400D01*
X237090Y197750D01*
X238346Y197413D01*
X239646D01*
X240902Y197750D01*
X242027Y198400D01*
X242947Y199319D01*
X243597Y200445D01*
X243737Y200970D01*
X244255D01*
X244395Y200445D01*
X245045Y199319D01*
X245965Y198400D01*
X247091Y197750D01*
X248346Y197413D01*
X249646D01*
X250902Y197750D01*
X252027Y198400D01*
X252947Y199319D01*
X253597Y200445D01*
X253737Y200970D01*
X254255D01*
X254396Y200445D01*
X255046Y199319D01*
X255965Y198400D01*
X257090Y197750D01*
X258346Y197413D01*
X259646D01*
X260902Y197750D01*
X262027Y198400D01*
X262947Y199319D01*
X263597Y200445D01*
X263737Y200970D01*
X264255D01*
X264395Y200445D01*
X265045Y199319D01*
X265965Y198400D01*
X267091Y197750D01*
X268346Y197413D01*
X269646D01*
X270902Y197750D01*
X272027Y198400D01*
X272947Y199319D01*
X273597Y200445D01*
X273737Y200970D01*
X274255D01*
X274395Y200445D01*
X275045Y199319D01*
X275965Y198400D01*
X277091Y197750D01*
X278346Y197413D01*
X279646D01*
X280902Y197750D01*
X282027Y198400D01*
X282947Y199319D01*
X283597Y200445D01*
X283737Y200970D01*
X284255D01*
X284396Y200445D01*
X285046Y199319D01*
X285965Y198400D01*
X287090Y197750D01*
X288346Y197413D01*
X289646D01*
X290902Y197750D01*
X292027Y198400D01*
X292947Y199319D01*
X293597Y200445D01*
X293933Y201700D01*
Y203000D01*
X293597Y204256D01*
X292947Y205382D01*
X292027Y206301D01*
X290902Y206951D01*
X289646Y207287D01*
D02*
G37*
G36*
X303082Y206405D02*
X301918D01*
X300777Y206179D01*
X299703Y205733D01*
X298735Y205087D01*
X297913Y204264D01*
X297267Y203297D01*
X296821Y202223D01*
X296595Y201082D01*
Y199918D01*
X296821Y198777D01*
X297267Y197703D01*
X297913Y196736D01*
X298735Y195913D01*
X299703Y195267D01*
X300777Y194821D01*
X301918Y194595D01*
X303082D01*
X304223Y194821D01*
X305297Y195267D01*
X306264Y195913D01*
X307087Y196736D01*
X307733Y197703D01*
X308179Y198777D01*
X308405Y199918D01*
Y201082D01*
X308179Y202223D01*
X307733Y203297D01*
X307087Y204264D01*
X306264Y205087D01*
X305297Y205733D01*
X304223Y206179D01*
X303082Y206405D01*
D02*
G37*
G36*
X118239D02*
X117076D01*
X115935Y206179D01*
X114860Y205733D01*
X113893Y205087D01*
X113070Y204264D01*
X112424Y203297D01*
X111979Y202223D01*
X111752Y201082D01*
Y199918D01*
X111979Y198777D01*
X112424Y197703D01*
X113070Y196736D01*
X113893Y195913D01*
X114860Y195267D01*
X115935Y194821D01*
X117076Y194595D01*
X118239D01*
X119380Y194821D01*
X120455Y195267D01*
X121422Y195913D01*
X122245Y196736D01*
X122891Y197703D01*
X123336Y198777D01*
X123563Y199918D01*
Y201082D01*
X123336Y202223D01*
X122891Y203297D01*
X122245Y204264D01*
X121422Y205087D01*
X120455Y205733D01*
X119380Y206179D01*
X118239Y206405D01*
D02*
G37*
G36*
X158496Y107287D02*
X158346D01*
X157090Y106951D01*
X155965Y106301D01*
X155045Y105382D01*
X154672Y104735D01*
X154018Y104602D01*
X153933Y104666D01*
Y107287D01*
X144059D01*
Y97413D01*
X153933D01*
Y100035D01*
X154018Y100099D01*
X154672Y99966D01*
X155045Y99319D01*
X155965Y98400D01*
X157090Y97750D01*
X158346Y97413D01*
X158496D01*
Y102350D01*
Y107287D01*
D02*
G37*
G36*
X289646D02*
X288346D01*
X287090Y106951D01*
X285965Y106301D01*
X285046Y105382D01*
X284396Y104256D01*
X284255Y103731D01*
X283737D01*
X283597Y104256D01*
X282947Y105382D01*
X282027Y106301D01*
X280902Y106951D01*
X279646Y107287D01*
X278346D01*
X277091Y106951D01*
X275965Y106301D01*
X275045Y105382D01*
X274395Y104256D01*
X274255Y103731D01*
X273737D01*
X273597Y104256D01*
X272947Y105382D01*
X272027Y106301D01*
X270902Y106951D01*
X269646Y107287D01*
X268346D01*
X267091Y106951D01*
X265965Y106301D01*
X265045Y105382D01*
X264395Y104256D01*
X264255Y103731D01*
X263737D01*
X263597Y104256D01*
X262947Y105382D01*
X262027Y106301D01*
X260902Y106951D01*
X259646Y107287D01*
X258346D01*
X257090Y106951D01*
X255965Y106301D01*
X255046Y105382D01*
X254396Y104256D01*
X254255Y103731D01*
X253737D01*
X253597Y104256D01*
X252947Y105382D01*
X252027Y106301D01*
X250902Y106951D01*
X249646Y107287D01*
X248346D01*
X247091Y106951D01*
X245965Y106301D01*
X245045Y105382D01*
X244395Y104256D01*
X244255Y103731D01*
X243737D01*
X243597Y104256D01*
X242947Y105382D01*
X242027Y106301D01*
X240902Y106951D01*
X239646Y107287D01*
X238346D01*
X237090Y106951D01*
X235965Y106301D01*
X235046Y105382D01*
X234396Y104256D01*
X234255Y103731D01*
X233737D01*
X233597Y104256D01*
X232947Y105382D01*
X232027Y106301D01*
X230902Y106951D01*
X229646Y107287D01*
X228346D01*
X227091Y106951D01*
X225965Y106301D01*
X225045Y105382D01*
X224395Y104256D01*
X224255Y103731D01*
X223737D01*
X223597Y104256D01*
X222947Y105382D01*
X222027Y106301D01*
X220902Y106951D01*
X219646Y107287D01*
X218346D01*
X217091Y106951D01*
X215965Y106301D01*
X215045Y105382D01*
X214395Y104256D01*
X214255Y103731D01*
X213737D01*
X213597Y104256D01*
X212947Y105382D01*
X212027Y106301D01*
X210902Y106951D01*
X209646Y107287D01*
X208346D01*
X207090Y106951D01*
X205965Y106301D01*
X205046Y105382D01*
X204396Y104256D01*
X204255Y103731D01*
X203737D01*
X203597Y104256D01*
X202947Y105382D01*
X202027Y106301D01*
X200902Y106951D01*
X199646Y107287D01*
X198346D01*
X197090Y106951D01*
X195965Y106301D01*
X195045Y105382D01*
X194395Y104256D01*
X194255Y103731D01*
X193737D01*
X193597Y104256D01*
X192947Y105382D01*
X192027Y106301D01*
X190902Y106951D01*
X189646Y107287D01*
X188346D01*
X187091Y106951D01*
X185965Y106301D01*
X185046Y105382D01*
X184396Y104256D01*
X184255Y103731D01*
X183737D01*
X183597Y104256D01*
X182947Y105382D01*
X182027Y106301D01*
X180902Y106951D01*
X179646Y107287D01*
X178346D01*
X177091Y106951D01*
X175965Y106301D01*
X175046Y105382D01*
X174396Y104256D01*
X174255Y103731D01*
X173737D01*
X173597Y104256D01*
X172947Y105382D01*
X172027Y106301D01*
X170902Y106951D01*
X169646Y107287D01*
X168346D01*
X167090Y106951D01*
X165965Y106301D01*
X165045Y105382D01*
X164395Y104256D01*
X164255Y103731D01*
X163737D01*
X163597Y104256D01*
X162947Y105382D01*
X162027Y106301D01*
X160902Y106951D01*
X159646Y107287D01*
X159496D01*
Y102350D01*
Y97413D01*
X159646D01*
X160902Y97750D01*
X162027Y98400D01*
X162947Y99319D01*
X163597Y100445D01*
X163737Y100970D01*
X164255D01*
X164395Y100445D01*
X165045Y99319D01*
X165965Y98400D01*
X167090Y97750D01*
X168346Y97413D01*
X169646D01*
X170902Y97750D01*
X172027Y98400D01*
X172947Y99319D01*
X173597Y100445D01*
X173737Y100970D01*
X174255D01*
X174396Y100445D01*
X175046Y99319D01*
X175965Y98400D01*
X177091Y97750D01*
X178346Y97413D01*
X179646D01*
X180902Y97750D01*
X182027Y98400D01*
X182947Y99319D01*
X183597Y100445D01*
X183737Y100970D01*
X184255D01*
X184396Y100445D01*
X185046Y99319D01*
X185965Y98400D01*
X187091Y97750D01*
X188346Y97413D01*
X189646D01*
X190902Y97750D01*
X192027Y98400D01*
X192947Y99319D01*
X193597Y100445D01*
X193737Y100970D01*
X194255D01*
X194395Y100445D01*
X195045Y99319D01*
X195965Y98400D01*
X197090Y97750D01*
X198346Y97413D01*
X199646D01*
X200902Y97750D01*
X202027Y98400D01*
X202947Y99319D01*
X203597Y100445D01*
X203737Y100970D01*
X204255D01*
X204396Y100445D01*
X205046Y99319D01*
X205965Y98400D01*
X207090Y97750D01*
X208346Y97413D01*
X209646D01*
X210902Y97750D01*
X212027Y98400D01*
X212947Y99319D01*
X213597Y100445D01*
X213737Y100970D01*
X214255D01*
X214395Y100445D01*
X215045Y99319D01*
X215965Y98400D01*
X217091Y97750D01*
X218346Y97413D01*
X219646D01*
X220902Y97750D01*
X222027Y98400D01*
X222947Y99319D01*
X223597Y100445D01*
X223737Y100970D01*
X224255D01*
X224395Y100445D01*
X225045Y99319D01*
X225965Y98400D01*
X227091Y97750D01*
X228346Y97413D01*
X229646D01*
X230902Y97750D01*
X232027Y98400D01*
X232947Y99319D01*
X233597Y100445D01*
X233737Y100970D01*
X234255D01*
X234396Y100445D01*
X235046Y99319D01*
X235965Y98400D01*
X237090Y97750D01*
X238346Y97413D01*
X239646D01*
X240902Y97750D01*
X242027Y98400D01*
X242947Y99319D01*
X243597Y100445D01*
X243737Y100970D01*
X244255D01*
X244395Y100445D01*
X245045Y99319D01*
X245965Y98400D01*
X247091Y97750D01*
X248346Y97413D01*
X249646D01*
X250902Y97750D01*
X252027Y98400D01*
X252947Y99319D01*
X253597Y100445D01*
X253737Y100970D01*
X254255D01*
X254396Y100445D01*
X255046Y99319D01*
X255965Y98400D01*
X257090Y97750D01*
X258346Y97413D01*
X259646D01*
X260902Y97750D01*
X262027Y98400D01*
X262947Y99319D01*
X263597Y100445D01*
X263737Y100970D01*
X264255D01*
X264395Y100445D01*
X265045Y99319D01*
X265965Y98400D01*
X267091Y97750D01*
X268346Y97413D01*
X269646D01*
X270902Y97750D01*
X272027Y98400D01*
X272947Y99319D01*
X273597Y100445D01*
X273737Y100970D01*
X274255D01*
X274395Y100445D01*
X275045Y99319D01*
X275965Y98400D01*
X277091Y97750D01*
X278346Y97413D01*
X279646D01*
X280902Y97750D01*
X282027Y98400D01*
X282947Y99319D01*
X283597Y100445D01*
X283737Y100970D01*
X284255D01*
X284396Y100445D01*
X285046Y99319D01*
X285965Y98400D01*
X287090Y97750D01*
X288346Y97413D01*
X289646D01*
X290902Y97750D01*
X292027Y98400D01*
X292947Y99319D01*
X293597Y100445D01*
X293933Y101700D01*
Y103000D01*
X293597Y104256D01*
X292947Y105382D01*
X292027Y106301D01*
X290902Y106951D01*
X289646Y107287D01*
D02*
G37*
G36*
X303082Y109909D02*
X301918D01*
X300777Y109683D01*
X299703Y109237D01*
X298735Y108591D01*
X297913Y107768D01*
X297267Y106801D01*
X296821Y105727D01*
X296595Y104586D01*
Y103422D01*
X296821Y102281D01*
X297267Y101207D01*
X297913Y100239D01*
X298735Y99417D01*
X299703Y98770D01*
X300777Y98325D01*
X301918Y98098D01*
X303082D01*
X304223Y98325D01*
X305297Y98770D01*
X306264Y99417D01*
X307087Y100239D01*
X307733Y101207D01*
X308179Y102281D01*
X308405Y103422D01*
Y104586D01*
X308179Y105727D01*
X307733Y106801D01*
X307087Y107768D01*
X306264Y108591D01*
X305297Y109237D01*
X304223Y109683D01*
X303082Y109909D01*
D02*
G37*
G36*
X118239D02*
X117076D01*
X115935Y109683D01*
X114860Y109237D01*
X113893Y108591D01*
X113070Y107768D01*
X112424Y106801D01*
X111979Y105727D01*
X111752Y104586D01*
Y103422D01*
X111979Y102281D01*
X112424Y101207D01*
X113070Y100239D01*
X113893Y99417D01*
X114860Y98770D01*
X115935Y98325D01*
X117076Y98098D01*
X118239D01*
X119380Y98325D01*
X120455Y98770D01*
X121422Y99417D01*
X122245Y100239D01*
X122891Y101207D01*
X123336Y102281D01*
X123563Y103422D01*
Y104586D01*
X123336Y105727D01*
X122891Y106801D01*
X122245Y107768D01*
X121422Y108591D01*
X120455Y109237D01*
X119380Y109683D01*
X118239Y109909D01*
D02*
G37*
G36*
X330936Y112000D02*
X329064D01*
X327229Y111635D01*
X325500Y110919D01*
X323944Y109879D01*
X322621Y108556D01*
X321581Y107000D01*
X320865Y105271D01*
X320500Y103436D01*
Y101564D01*
X320865Y99729D01*
X321581Y98000D01*
X322621Y96444D01*
X323944Y95121D01*
X325500Y94081D01*
X327229Y93365D01*
X329064Y93000D01*
X330936D01*
X332771Y93365D01*
X334500Y94081D01*
X336056Y95121D01*
X337379Y96444D01*
X338419Y98000D01*
X339135Y99729D01*
X339500Y101564D01*
Y103436D01*
X339135Y105271D01*
X338419Y107000D01*
X337379Y108556D01*
X336056Y109879D01*
X334500Y110919D01*
X332771Y111635D01*
X330936Y112000D01*
D02*
G37*
G36*
X95936D02*
X94064D01*
X92229Y111635D01*
X90500Y110919D01*
X88944Y109879D01*
X87621Y108556D01*
X86581Y107000D01*
X85865Y105271D01*
X85500Y103436D01*
Y101564D01*
X85865Y99729D01*
X86581Y98000D01*
X87621Y96444D01*
X88944Y95121D01*
X90500Y94081D01*
X92229Y93365D01*
X94064Y93000D01*
X95936D01*
X97771Y93365D01*
X99500Y94081D01*
X101056Y95121D01*
X102379Y96444D01*
X103419Y98000D01*
X104135Y99729D01*
X104500Y101564D01*
Y103436D01*
X104135Y105271D01*
X103419Y107000D01*
X102379Y108556D01*
X101056Y109879D01*
X99500Y110919D01*
X97771Y111635D01*
X95936Y112000D01*
D02*
G37*
%LPD*%
G36*
X327392Y276601D02*
X328360Y276042D01*
X329441Y275752D01*
X330559D01*
X331640Y276042D01*
X332608Y276601D01*
X332752Y276744D01*
X333214Y276553D01*
Y273447D01*
X332752Y273256D01*
X332608Y273399D01*
X331640Y273958D01*
X330559Y274248D01*
X329441D01*
X328360Y273958D01*
X327392Y273399D01*
X326601Y272608D01*
X326042Y271640D01*
X325752Y270559D01*
Y269441D01*
X326042Y268360D01*
X326601Y267392D01*
X327392Y266601D01*
X328360Y266041D01*
X329441Y265752D01*
X330559D01*
X331640Y266041D01*
X332608Y266601D01*
X332752Y266744D01*
X333214Y266553D01*
Y263447D01*
X332752Y263256D01*
X332608Y263399D01*
X331640Y263959D01*
X330559Y264248D01*
X329441D01*
X328522Y264002D01*
X326262Y266262D01*
X325683Y266649D01*
X325000Y266784D01*
X323445D01*
X323254Y267246D01*
X323399Y267392D01*
X323958Y268360D01*
X324248Y269441D01*
Y270559D01*
X324002Y271478D01*
X326260Y273736D01*
X326646Y274315D01*
X326782Y274998D01*
Y276557D01*
X327244Y276748D01*
X327392Y276601D01*
D02*
G37*
D50*
X295361Y336170D02*
G03*
X296429Y335735I1056J1066D01*
G01*
X303296Y333255D02*
G03*
X301547Y333255I-875J-7605D01*
G01*
X302502Y335805D02*
G03*
X302302Y335804I-81J-10155D01*
G01*
X222223Y438776D02*
X223000Y439553D01*
X221553Y434053D02*
X222223Y434723D01*
Y438776D01*
X223000Y439553D02*
Y447764D01*
X148500Y389000D02*
X155308Y382192D01*
X156308D02*
X163000Y375500D01*
X155308Y382192D02*
X156308D01*
X163000Y369000D02*
Y375500D01*
X235298Y336245D02*
X236553Y337500D01*
X188000Y348814D02*
X200569Y336245D01*
X235298D01*
X225336Y341164D02*
Y342788D01*
Y341164D02*
X226005Y340495D01*
X236553Y337500D02*
X237500D01*
X225000Y343124D02*
Y345814D01*
Y343124D02*
X225336Y342788D01*
X222703Y347052D02*
Y350948D01*
X222500Y345176D02*
Y346849D01*
Y351151D02*
X222703Y350948D01*
X204000Y436000D02*
X225000Y415000D01*
X199073Y435927D02*
X222500Y412500D01*
Y351151D02*
Y412500D01*
X244703Y367052D02*
Y370354D01*
X196052Y344297D02*
X221621D01*
X244703Y370354D02*
X252500Y378151D01*
X225000Y352186D02*
X225203Y351983D01*
X252500Y443982D02*
X259073Y450555D01*
X225000Y352186D02*
Y415000D01*
X252500Y378151D02*
Y443982D01*
X225203Y346017D02*
Y351983D01*
X221621Y344297D02*
X222500Y345176D01*
Y346849D02*
X222703Y347052D01*
X225000Y345814D02*
X225203Y346017D01*
X223000Y447764D02*
X224323Y449088D01*
X257500Y438000D02*
Y443000D01*
X232500Y393500D02*
X233170Y394170D01*
X236670D01*
X244626Y402126D01*
X200465Y457034D02*
X204000Y453500D01*
X192034Y457034D02*
X200465D01*
X189073Y450555D02*
X189526Y451008D01*
Y454526D01*
X192034Y457034D01*
X227596Y459829D02*
Y460000D01*
X224323Y449088D02*
Y456556D01*
X227596Y459829D01*
X269703Y342797D02*
X270000Y342500D01*
X269703Y342797D02*
Y355297D01*
X265000Y340000D02*
Y349000D01*
Y340000D02*
X266750Y338250D01*
X293281D01*
X295356Y336175D01*
Y336175D02*
Y336175D01*
X188000Y348814D02*
Y349000D01*
X258103Y460000D02*
X264000Y454103D01*
X227596Y460000D02*
X258103D01*
X166000Y434990D02*
Y435000D01*
X260179Y364821D02*
Y368821D01*
X260000Y369000D02*
X260179Y368821D01*
Y364821D02*
X269703Y355297D01*
X255000Y340000D02*
Y349000D01*
X259313Y335687D02*
X292308D01*
X255000Y340000D02*
X259313Y335687D01*
X189000Y435500D02*
X189500Y436000D01*
X166000Y435000D02*
X166500Y435500D01*
X204000Y436000D02*
Y453500D01*
X262798Y445805D02*
X264000Y447007D01*
Y454103D01*
X257500Y443000D02*
X260305Y445805D01*
X262798D01*
X280083Y222917D02*
X283500Y219500D01*
X306568D02*
X334998Y247930D01*
X283500Y219500D02*
X306568D01*
X278917Y227500D02*
X280083Y226334D01*
Y222917D02*
Y226334D01*
X154375Y341000D02*
X176651D01*
X177280Y338094D02*
X188000Y348814D01*
X148917Y327500D02*
X159511Y338094D01*
X193000Y347349D02*
Y350651D01*
X189948Y353703D02*
X193000Y350651D01*
X176651Y341000D02*
X182703Y347052D01*
X186052Y353703D02*
X189948D01*
X159511Y338094D02*
X177280D01*
X182703Y347052D02*
Y350354D01*
X193000Y347349D02*
X196052Y344297D01*
X182703Y350354D02*
X186052Y353703D01*
X133629Y343500D02*
X172500D01*
X133298Y343170D02*
X133629Y343500D01*
X131053Y343170D02*
X133298D01*
X130692Y342809D02*
X131053Y343170D01*
X172500Y343500D02*
X178000Y349000D01*
X143230Y329856D02*
X154375Y341000D01*
X143230Y310217D02*
Y329856D01*
X144500Y308000D02*
Y308947D01*
X143230Y310217D02*
X144500Y308947D01*
X199073Y435927D02*
Y450555D01*
X218000Y291500D02*
X237904Y311404D01*
X195417Y274000D02*
X286500D01*
X195000Y290500D02*
X218404Y313904D01*
X148917Y227500D02*
X195417Y274000D01*
X292308Y335687D02*
X294809Y333187D01*
X295356Y336175D02*
X295361Y336170D01*
X296434Y335735D02*
X302302Y335804D01*
X218404Y313904D02*
X283364D01*
X294604Y325144D02*
Y329856D01*
X291273Y333187D02*
X294604Y329856D01*
X267278Y333187D02*
X291273D01*
X267278Y333187D02*
X267278Y333187D01*
X254162Y333187D02*
X267278D01*
X240297Y347052D02*
X254162Y333187D01*
X240297Y347052D02*
Y362647D01*
X244703Y367052D01*
X296429Y335735D02*
X296434Y335735D01*
X294809Y333187D02*
X300955D01*
X283364Y313904D02*
X294604Y325144D01*
X244626Y402126D02*
Y444626D01*
X303887Y333187D02*
X313313D01*
X316852Y329648D01*
Y323852D02*
Y329648D01*
X319352Y322817D02*
Y333648D01*
X237904Y311404D02*
X304404D01*
X304982Y308000D02*
X318542Y321560D01*
X318913Y321931D01*
X317313Y335687D02*
X319352Y333648D01*
X304404Y311404D02*
X316852Y323852D01*
X318913Y321931D02*
X319352Y322817D01*
X303296Y333255D02*
X303887Y333187D01*
X302502Y335805D02*
X317313Y335687D01*
X300955Y333187D02*
X301547Y333255D01*
X243000Y308000D02*
X304982D01*
X226995Y291995D02*
X243000Y308000D01*
X321971Y297000D02*
X324998Y293973D01*
X286500Y274000D02*
X302500Y290000D01*
X288917Y266417D02*
X302500Y280000D01*
X324998Y274998D02*
Y293973D01*
X250500Y297000D02*
X321971D01*
X218917Y327500D02*
X220000D01*
X249073Y449502D02*
Y450555D01*
X247816Y448244D02*
X249073Y449502D01*
X244626Y444626D02*
X247816Y447816D01*
Y448244D01*
X302500Y265000D02*
X325000D01*
X330000Y260000D01*
X288917Y227500D02*
Y266417D01*
X330000Y290000D02*
X334998Y285002D01*
Y247930D02*
Y285002D01*
X320000Y270000D02*
X324998Y274998D01*
D51*
X147947Y389553D02*
X148500Y389000D01*
X151500D02*
X160000Y397500D01*
X148500Y389000D02*
X151500D01*
X189500Y428000D02*
X215000Y402500D01*
X189500Y428000D02*
Y436000D01*
X215000Y392500D02*
Y402500D01*
X267500Y392500D02*
X281500D01*
X295000Y406000D01*
X160000Y397500D02*
Y428990D01*
X166000Y434990D01*
X135000Y435000D02*
X166000D01*
X166500Y435500D02*
X189000D01*
D53*
X230000Y380000D02*
X247500D01*
D54*
X149073Y450555D02*
D03*
X159073D02*
D03*
X169073D02*
D03*
X179073D02*
D03*
X189073D02*
D03*
X199073D02*
D03*
X209073D02*
D03*
X219073D02*
D03*
X229073D02*
D03*
X239073D02*
D03*
X249073D02*
D03*
D55*
X259073D02*
D03*
D56*
X117579Y229153D02*
D03*
Y325650D02*
D03*
X302421D02*
D03*
Y229153D02*
D03*
X117657Y104004D02*
D03*
Y200500D02*
D03*
X302500D02*
D03*
Y104004D02*
D03*
D57*
X288917Y327500D02*
D03*
X278917D02*
D03*
X268917D02*
D03*
X258917D02*
D03*
X248917D02*
D03*
X238917D02*
D03*
X228917D02*
D03*
X218917D02*
D03*
X208917D02*
D03*
X198917D02*
D03*
X188917D02*
D03*
X178917D02*
D03*
X168917D02*
D03*
X158917D02*
D03*
X148917D02*
D03*
X288917Y227500D02*
D03*
X278917D02*
D03*
X268917D02*
D03*
X258917D02*
D03*
X248917D02*
D03*
X238917D02*
D03*
X228917D02*
D03*
X218917D02*
D03*
X208917D02*
D03*
X198917D02*
D03*
X188917D02*
D03*
X178917D02*
D03*
X168917D02*
D03*
X158917D02*
D03*
X288996Y202350D02*
D03*
X278996D02*
D03*
X268996D02*
D03*
X258996D02*
D03*
X248996D02*
D03*
X238996D02*
D03*
X228996D02*
D03*
X218996D02*
D03*
X208996D02*
D03*
X198996D02*
D03*
X188996D02*
D03*
X178996D02*
D03*
X168996D02*
D03*
X158996D02*
D03*
X148996D02*
D03*
X288996Y102350D02*
D03*
X278996D02*
D03*
X268996D02*
D03*
X258996D02*
D03*
X248996D02*
D03*
X238996D02*
D03*
X228996D02*
D03*
X218996D02*
D03*
X208996D02*
D03*
X198996D02*
D03*
X188996D02*
D03*
X178996D02*
D03*
X168996D02*
D03*
X158996D02*
D03*
X295000Y430000D02*
D03*
X276500Y418000D02*
D03*
D58*
X148917Y227500D02*
D03*
X148996Y102350D02*
D03*
X295000Y406000D02*
D03*
D59*
X330000Y270000D02*
D03*
Y250000D02*
D03*
X320000D02*
D03*
X330000Y260000D02*
D03*
X320000D02*
D03*
Y270000D02*
D03*
X330000Y280000D02*
D03*
X320000D02*
D03*
X330000Y290000D02*
D03*
D60*
X320000D02*
D03*
D61*
X235000Y349000D02*
D03*
X148000D02*
D03*
D62*
X240000Y369000D02*
D03*
X245000Y349000D02*
D03*
X250000Y369000D02*
D03*
X255000Y349000D02*
D03*
X260000Y369000D02*
D03*
X265000Y349000D02*
D03*
X270000Y369000D02*
D03*
X275000Y349000D02*
D03*
X280000Y369000D02*
D03*
X285000Y349000D02*
D03*
X290000Y369000D02*
D03*
X295000Y349000D02*
D03*
X300000Y369000D02*
D03*
X305000Y349000D02*
D03*
X218000D02*
D03*
X213000Y369000D02*
D03*
X208000Y349000D02*
D03*
X203000Y369000D02*
D03*
X198000Y349000D02*
D03*
X193000Y369000D02*
D03*
X188000Y349000D02*
D03*
X183000Y369000D02*
D03*
X178000Y349000D02*
D03*
X173000Y369000D02*
D03*
X168000Y349000D02*
D03*
X163000Y369000D02*
D03*
X158000Y349000D02*
D03*
X153000Y369000D02*
D03*
D63*
X105000Y350315D02*
D03*
Y370000D02*
D03*
D64*
X221553Y434053D02*
D03*
X179500Y402500D02*
D03*
X147947Y389553D02*
D03*
X226005Y340495D02*
D03*
X230000Y380000D02*
D03*
X215000Y392500D02*
D03*
X247500Y380000D02*
D03*
X257500Y438000D02*
D03*
X227596Y460000D02*
D03*
X230000Y402500D02*
D03*
X232500Y393500D02*
D03*
X267500Y392500D02*
D03*
X270000Y342500D02*
D03*
X237500Y337500D02*
D03*
X135000Y435000D02*
D03*
X257500Y397500D02*
D03*
X166000Y435000D02*
D03*
X189500Y436000D02*
D03*
X130692Y342809D02*
D03*
X144500Y308000D02*
D03*
X218000Y291500D02*
D03*
X195000Y290500D02*
D03*
X250500Y297000D02*
D03*
X302500Y280000D02*
D03*
Y290000D02*
D03*
X226995Y291995D02*
D03*
X302500Y265000D02*
D03*
X202500Y402500D02*
D03*
X312500Y395000D02*
D03*
X130000Y350000D02*
D03*
X132500Y400000D02*
D03*
X150000Y425000D02*
D03*
X92500Y395000D02*
D03*
D65*
X330000Y102500D02*
D03*
Y455000D02*
D03*
X95000D02*
D03*
Y102500D02*
D03*
D66*
X327500Y326083D02*
D03*
Y348917D02*
D03*
M02*
