G04*
G04 #@! TF.GenerationSoftware,Altium Limited,Altium Designer,24.3.1 (35)*
G04*
G04 Layer_Color=255*
%FSLAX25Y25*%
%MOIN*%
G70*
G04*
G04 #@! TF.SameCoordinates,59408384-AF90-41EA-90E0-151A5B2CE245*
G04*
G04*
G04 #@! TF.FilePolarity,Positive*
G04*
G01*
G75*
G04:AMPARAMS|DCode=16|XSize=29.92mil|YSize=26mil|CornerRadius=3.25mil|HoleSize=0mil|Usage=FLASHONLY|Rotation=270.000|XOffset=0mil|YOffset=0mil|HoleType=Round|Shape=RoundedRectangle|*
%AMROUNDEDRECTD16*
21,1,0.02992,0.01950,0,0,270.0*
21,1,0.02342,0.02600,0,0,270.0*
1,1,0.00650,-0.00975,-0.01171*
1,1,0.00650,-0.00975,0.01171*
1,1,0.00650,0.00975,0.01171*
1,1,0.00650,0.00975,-0.01171*
%
%ADD16ROUNDEDRECTD16*%
G04:AMPARAMS|DCode=17|XSize=127.95mil|YSize=80.71mil|CornerRadius=2.02mil|HoleSize=0mil|Usage=FLASHONLY|Rotation=270.000|XOffset=0mil|YOffset=0mil|HoleType=Round|Shape=RoundedRectangle|*
%AMROUNDEDRECTD17*
21,1,0.12795,0.07667,0,0,270.0*
21,1,0.12392,0.08071,0,0,270.0*
1,1,0.00404,-0.03834,-0.06196*
1,1,0.00404,-0.03834,0.06196*
1,1,0.00404,0.03834,0.06196*
1,1,0.00404,0.03834,-0.06196*
%
%ADD17ROUNDEDRECTD17*%
G04:AMPARAMS|DCode=18|XSize=39.37mil|YSize=80.71mil|CornerRadius=1.97mil|HoleSize=0mil|Usage=FLASHONLY|Rotation=270.000|XOffset=0mil|YOffset=0mil|HoleType=Round|Shape=RoundedRectangle|*
%AMROUNDEDRECTD18*
21,1,0.03937,0.07677,0,0,270.0*
21,1,0.03543,0.08071,0,0,270.0*
1,1,0.00394,-0.03839,-0.01772*
1,1,0.00394,-0.03839,0.01772*
1,1,0.00394,0.03839,0.01772*
1,1,0.00394,0.03839,-0.01772*
%
%ADD18ROUNDEDRECTD18*%
%ADD19R,0.03740X0.03740*%
%ADD20R,0.03150X0.03937*%
%ADD21R,0.03150X0.03150*%
%ADD22R,0.01772X0.02323*%
%ADD23R,0.03110X0.03661*%
%ADD24R,0.03937X0.04331*%
G04:AMPARAMS|DCode=25|XSize=51.18mil|YSize=29.92mil|CornerRadius=3.74mil|HoleSize=0mil|Usage=FLASHONLY|Rotation=180.000|XOffset=0mil|YOffset=0mil|HoleType=Round|Shape=RoundedRectangle|*
%AMROUNDEDRECTD25*
21,1,0.05118,0.02244,0,0,180.0*
21,1,0.04370,0.02992,0,0,180.0*
1,1,0.00748,-0.02185,0.01122*
1,1,0.00748,0.02185,0.01122*
1,1,0.00748,0.02185,-0.01122*
1,1,0.00748,-0.02185,-0.01122*
%
%ADD25ROUNDEDRECTD25*%
%ADD26R,0.03150X0.03150*%
%ADD54C,0.06000*%
%ADD55R,0.06000X0.06000*%
%ADD56C,0.11811*%
%ADD57C,0.07874*%
%ADD58R,0.07874X0.07874*%
%ADD59C,0.06496*%
%ADD60R,0.06496X0.06496*%
%ADD61R,0.05906X0.05906*%
%ADD62C,0.05906*%
%ADD63C,0.07677*%
D16*
X304756Y395000D02*
D03*
X299244D02*
D03*
D17*
X108500Y418055D02*
D03*
D18*
X133500Y427110D02*
D03*
Y418055D02*
D03*
Y409000D02*
D03*
D19*
X324921Y400000D02*
D03*
X320000D02*
D03*
X324961Y390000D02*
D03*
X320039D02*
D03*
D20*
X257500Y215000D02*
D03*
X263405D02*
D03*
X237047D02*
D03*
X242953D02*
D03*
X225453D02*
D03*
X219547D02*
D03*
X192595D02*
D03*
X198500D02*
D03*
D21*
X150000Y394548D02*
D03*
Y400453D02*
D03*
D22*
X195000Y429153D02*
D03*
Y420847D02*
D03*
X172500Y429153D02*
D03*
Y420847D02*
D03*
X257500Y429153D02*
D03*
Y420847D02*
D03*
X225000Y429153D02*
D03*
Y420847D02*
D03*
X257500Y412500D02*
D03*
Y404193D02*
D03*
X225000Y411654D02*
D03*
Y403346D02*
D03*
X172500Y411654D02*
D03*
Y403346D02*
D03*
X195000Y411654D02*
D03*
Y403346D02*
D03*
D23*
X100000Y395000D02*
D03*
X106457D02*
D03*
D24*
X150000Y410807D02*
D03*
Y417500D02*
D03*
D25*
X130500Y356957D02*
D03*
Y364004D02*
D03*
D26*
X114094Y394999D02*
D03*
X119999D02*
D03*
D54*
X149073Y450555D02*
D03*
X159073D02*
D03*
X169073D02*
D03*
X179073D02*
D03*
X189073D02*
D03*
X199073D02*
D03*
X209073D02*
D03*
X219073D02*
D03*
X229073D02*
D03*
X239073D02*
D03*
X249073D02*
D03*
D55*
X259073D02*
D03*
D56*
X117579Y229153D02*
D03*
Y325650D02*
D03*
X302421D02*
D03*
Y229153D02*
D03*
X117657Y104004D02*
D03*
Y200500D02*
D03*
X302500D02*
D03*
Y104004D02*
D03*
D57*
X288917Y327500D02*
D03*
X278917D02*
D03*
X268917D02*
D03*
X258917D02*
D03*
X248917D02*
D03*
X238917D02*
D03*
X228917D02*
D03*
X218917D02*
D03*
X208917D02*
D03*
X198917D02*
D03*
X188917D02*
D03*
X178917D02*
D03*
X168917D02*
D03*
X158917D02*
D03*
X148917D02*
D03*
X288917Y227500D02*
D03*
X278917D02*
D03*
X268917D02*
D03*
X258917D02*
D03*
X248917D02*
D03*
X238917D02*
D03*
X228917D02*
D03*
X218917D02*
D03*
X208917D02*
D03*
X198917D02*
D03*
X188917D02*
D03*
X178917D02*
D03*
X168917D02*
D03*
X158917D02*
D03*
X288996Y202350D02*
D03*
X278996D02*
D03*
X268996D02*
D03*
X258996D02*
D03*
X248996D02*
D03*
X238996D02*
D03*
X228996D02*
D03*
X218996D02*
D03*
X208996D02*
D03*
X198996D02*
D03*
X188996D02*
D03*
X178996D02*
D03*
X168996D02*
D03*
X158996D02*
D03*
X148996D02*
D03*
X288996Y102350D02*
D03*
X278996D02*
D03*
X268996D02*
D03*
X258996D02*
D03*
X248996D02*
D03*
X238996D02*
D03*
X228996D02*
D03*
X218996D02*
D03*
X208996D02*
D03*
X198996D02*
D03*
X188996D02*
D03*
X178996D02*
D03*
X168996D02*
D03*
X158996D02*
D03*
X295000Y430000D02*
D03*
X276500Y418000D02*
D03*
D58*
X148917Y227500D02*
D03*
X148996Y102350D02*
D03*
X295000Y406000D02*
D03*
D59*
X330000Y270000D02*
D03*
Y250000D02*
D03*
X320000D02*
D03*
X330000Y260000D02*
D03*
X320000D02*
D03*
Y270000D02*
D03*
X330000Y280000D02*
D03*
X320000D02*
D03*
X330000Y290000D02*
D03*
D60*
X320000D02*
D03*
D61*
X235000Y349000D02*
D03*
X148000D02*
D03*
D62*
X240000Y369000D02*
D03*
X245000Y349000D02*
D03*
X250000Y369000D02*
D03*
X255000Y349000D02*
D03*
X260000Y369000D02*
D03*
X265000Y349000D02*
D03*
X270000Y369000D02*
D03*
X275000Y349000D02*
D03*
X280000Y369000D02*
D03*
X285000Y349000D02*
D03*
X290000Y369000D02*
D03*
X295000Y349000D02*
D03*
X300000Y369000D02*
D03*
X305000Y349000D02*
D03*
X218000D02*
D03*
X213000Y369000D02*
D03*
X208000Y349000D02*
D03*
X203000Y369000D02*
D03*
X198000Y349000D02*
D03*
X193000Y369000D02*
D03*
X188000Y349000D02*
D03*
X183000Y369000D02*
D03*
X178000Y349000D02*
D03*
X173000Y369000D02*
D03*
X168000Y349000D02*
D03*
X163000Y369000D02*
D03*
X158000Y349000D02*
D03*
X153000Y369000D02*
D03*
D63*
X105000Y350315D02*
D03*
Y370000D02*
D03*
M02*
