G04*
G04 #@! TF.GenerationSoftware,Altium Limited,Altium Designer,24.3.1 (35)*
G04*
G04 Layer_Color=8388736*
%FSLAX25Y25*%
%MOIN*%
G70*
G04*
G04 #@! TF.SameCoordinates,59408384-AF90-41EA-90E0-151A5B2CE245*
G04*
G04*
G04 #@! TF.FilePolarity,Negative*
G04*
G01*
G75*
G04:AMPARAMS|DCode=27|XSize=37.92mil|YSize=34mil|CornerRadius=7.25mil|HoleSize=0mil|Usage=FLASHONLY|Rotation=270.000|XOffset=0mil|YOffset=0mil|HoleType=Round|Shape=RoundedRectangle|*
%AMROUNDEDRECTD27*
21,1,0.03792,0.01950,0,0,270.0*
21,1,0.02342,0.03400,0,0,270.0*
1,1,0.01450,-0.00975,-0.01171*
1,1,0.01450,-0.00975,0.01171*
1,1,0.01450,0.00975,0.01171*
1,1,0.01450,0.00975,-0.01171*
%
%ADD27ROUNDEDRECTD27*%
G04:AMPARAMS|DCode=28|XSize=135.95mil|YSize=88.71mil|CornerRadius=6.02mil|HoleSize=0mil|Usage=FLASHONLY|Rotation=270.000|XOffset=0mil|YOffset=0mil|HoleType=Round|Shape=RoundedRectangle|*
%AMROUNDEDRECTD28*
21,1,0.13595,0.07667,0,0,270.0*
21,1,0.12392,0.08871,0,0,270.0*
1,1,0.01204,-0.03834,-0.06196*
1,1,0.01204,-0.03834,0.06196*
1,1,0.01204,0.03834,0.06196*
1,1,0.01204,0.03834,-0.06196*
%
%ADD28ROUNDEDRECTD28*%
G04:AMPARAMS|DCode=29|XSize=47.37mil|YSize=88.71mil|CornerRadius=5.97mil|HoleSize=0mil|Usage=FLASHONLY|Rotation=270.000|XOffset=0mil|YOffset=0mil|HoleType=Round|Shape=RoundedRectangle|*
%AMROUNDEDRECTD29*
21,1,0.04737,0.07677,0,0,270.0*
21,1,0.03543,0.08871,0,0,270.0*
1,1,0.01194,-0.03839,-0.01772*
1,1,0.01194,-0.03839,0.01772*
1,1,0.01194,0.03839,0.01772*
1,1,0.01194,0.03839,-0.01772*
%
%ADD29ROUNDEDRECTD29*%
%ADD30R,0.04540X0.04540*%
%ADD31R,0.03950X0.04737*%
%ADD32R,0.03950X0.03950*%
%ADD33R,0.02572X0.03123*%
%ADD34R,0.03910X0.04461*%
%ADD35R,0.04737X0.05131*%
G04:AMPARAMS|DCode=36|XSize=59.18mil|YSize=37.92mil|CornerRadius=7.74mil|HoleSize=0mil|Usage=FLASHONLY|Rotation=180.000|XOffset=0mil|YOffset=0mil|HoleType=Round|Shape=RoundedRectangle|*
%AMROUNDEDRECTD36*
21,1,0.05918,0.02244,0,0,180.0*
21,1,0.04370,0.03792,0,0,180.0*
1,1,0.01548,-0.02185,0.01122*
1,1,0.01548,0.02185,0.01122*
1,1,0.01548,0.02185,-0.01122*
1,1,0.01548,-0.02185,-0.01122*
%
%ADD36ROUNDEDRECTD36*%
%ADD37R,0.03950X0.03950*%
%ADD38C,0.06800*%
%ADD39R,0.06800X0.06800*%
%ADD40C,0.12611*%
%ADD41C,0.08674*%
%ADD42R,0.08674X0.08674*%
%ADD43C,0.07296*%
%ADD44R,0.07296X0.07296*%
%ADD45R,0.06706X0.06706*%
%ADD46C,0.06706*%
%ADD47C,0.08477*%
%ADD48C,0.05800*%
%ADD49C,0.17800*%
D27*
X304756Y395000D02*
D03*
X299244D02*
D03*
D28*
X108500Y418055D02*
D03*
D29*
X133500Y427110D02*
D03*
Y418055D02*
D03*
Y409000D02*
D03*
D30*
X324921Y400000D02*
D03*
X320000D02*
D03*
X324961Y390000D02*
D03*
X320039D02*
D03*
D31*
X257500Y215000D02*
D03*
X263405D02*
D03*
X237047D02*
D03*
X242953D02*
D03*
X225453D02*
D03*
X219547D02*
D03*
X192595D02*
D03*
X198500D02*
D03*
D32*
X150000Y394548D02*
D03*
Y400453D02*
D03*
D33*
X195000Y429153D02*
D03*
Y420847D02*
D03*
X172500Y429153D02*
D03*
Y420847D02*
D03*
X257500Y429153D02*
D03*
Y420847D02*
D03*
X225000Y429153D02*
D03*
Y420847D02*
D03*
X257500Y412500D02*
D03*
Y404193D02*
D03*
X225000Y411654D02*
D03*
Y403346D02*
D03*
X172500Y411654D02*
D03*
Y403346D02*
D03*
X195000Y411654D02*
D03*
Y403346D02*
D03*
D34*
X100000Y395000D02*
D03*
X106457D02*
D03*
D35*
X150000Y410807D02*
D03*
Y417500D02*
D03*
D36*
X130500Y356957D02*
D03*
Y364004D02*
D03*
D37*
X114094Y394999D02*
D03*
X119999D02*
D03*
D38*
X149073Y450555D02*
D03*
X159073D02*
D03*
X169073D02*
D03*
X179073D02*
D03*
X189073D02*
D03*
X199073D02*
D03*
X209073D02*
D03*
X219073D02*
D03*
X229073D02*
D03*
X239073D02*
D03*
X249073D02*
D03*
D39*
X259073D02*
D03*
D40*
X117579Y229153D02*
D03*
Y325650D02*
D03*
X302421D02*
D03*
Y229153D02*
D03*
X117657Y104004D02*
D03*
Y200500D02*
D03*
X302500D02*
D03*
Y104004D02*
D03*
D41*
X288917Y327500D02*
D03*
X278917D02*
D03*
X268917D02*
D03*
X258917D02*
D03*
X248917D02*
D03*
X238917D02*
D03*
X228917D02*
D03*
X218917D02*
D03*
X208917D02*
D03*
X198917D02*
D03*
X188917D02*
D03*
X178917D02*
D03*
X168917D02*
D03*
X158917D02*
D03*
X148917D02*
D03*
X288917Y227500D02*
D03*
X278917D02*
D03*
X268917D02*
D03*
X258917D02*
D03*
X248917D02*
D03*
X238917D02*
D03*
X228917D02*
D03*
X218917D02*
D03*
X208917D02*
D03*
X198917D02*
D03*
X188917D02*
D03*
X178917D02*
D03*
X168917D02*
D03*
X158917D02*
D03*
X288996Y202350D02*
D03*
X278996D02*
D03*
X268996D02*
D03*
X258996D02*
D03*
X248996D02*
D03*
X238996D02*
D03*
X228996D02*
D03*
X218996D02*
D03*
X208996D02*
D03*
X198996D02*
D03*
X188996D02*
D03*
X178996D02*
D03*
X168996D02*
D03*
X158996D02*
D03*
X148996D02*
D03*
X288996Y102350D02*
D03*
X278996D02*
D03*
X268996D02*
D03*
X258996D02*
D03*
X248996D02*
D03*
X238996D02*
D03*
X228996D02*
D03*
X218996D02*
D03*
X208996D02*
D03*
X198996D02*
D03*
X188996D02*
D03*
X178996D02*
D03*
X168996D02*
D03*
X158996D02*
D03*
X295000Y430000D02*
D03*
X276500Y418000D02*
D03*
D42*
X148917Y227500D02*
D03*
X148996Y102350D02*
D03*
X295000Y406000D02*
D03*
D43*
X330000Y270000D02*
D03*
Y250000D02*
D03*
X320000D02*
D03*
X330000Y260000D02*
D03*
X320000D02*
D03*
Y270000D02*
D03*
X330000Y280000D02*
D03*
X320000D02*
D03*
X330000Y290000D02*
D03*
D44*
X320000D02*
D03*
D45*
X235000Y349000D02*
D03*
X148000D02*
D03*
D46*
X240000Y369000D02*
D03*
X245000Y349000D02*
D03*
X250000Y369000D02*
D03*
X255000Y349000D02*
D03*
X260000Y369000D02*
D03*
X265000Y349000D02*
D03*
X270000Y369000D02*
D03*
X275000Y349000D02*
D03*
X280000Y369000D02*
D03*
X285000Y349000D02*
D03*
X290000Y369000D02*
D03*
X295000Y349000D02*
D03*
X300000Y369000D02*
D03*
X305000Y349000D02*
D03*
X218000D02*
D03*
X213000Y369000D02*
D03*
X208000Y349000D02*
D03*
X203000Y369000D02*
D03*
X198000Y349000D02*
D03*
X193000Y369000D02*
D03*
X188000Y349000D02*
D03*
X183000Y369000D02*
D03*
X178000Y349000D02*
D03*
X173000Y369000D02*
D03*
X168000Y349000D02*
D03*
X163000Y369000D02*
D03*
X158000Y349000D02*
D03*
X153000Y369000D02*
D03*
D47*
X105000Y350315D02*
D03*
Y370000D02*
D03*
D48*
X221553Y434053D02*
D03*
X179500Y402500D02*
D03*
X147947Y389553D02*
D03*
X226005Y340495D02*
D03*
X230000Y380000D02*
D03*
X215000Y392500D02*
D03*
X247500Y380000D02*
D03*
X257500Y438000D02*
D03*
X227596Y460000D02*
D03*
X230000Y402500D02*
D03*
X232500Y393500D02*
D03*
X267500Y392500D02*
D03*
X270000Y342500D02*
D03*
X237500Y337500D02*
D03*
X135000Y435000D02*
D03*
X257500Y397500D02*
D03*
X166000Y435000D02*
D03*
X189500Y436000D02*
D03*
X130692Y342809D02*
D03*
X144500Y308000D02*
D03*
X218000Y291500D02*
D03*
X195000Y290500D02*
D03*
X250500Y297000D02*
D03*
X302500Y280000D02*
D03*
Y290000D02*
D03*
X226995Y291995D02*
D03*
X302500Y265000D02*
D03*
X202500Y402500D02*
D03*
X312500Y395000D02*
D03*
X130000Y350000D02*
D03*
X132500Y400000D02*
D03*
X150000Y425000D02*
D03*
X92500Y395000D02*
D03*
D49*
X330000Y102500D02*
D03*
Y455000D02*
D03*
X95000D02*
D03*
Y102500D02*
D03*
M02*
