G04*
G04 #@! TF.GenerationSoftware,Altium Limited,Altium Designer,24.3.1 (35)*
G04*
G04 Layer_Color=12632256*
%FSLAX25Y25*%
%MOIN*%
G70*
G04*
G04 #@! TF.SameCoordinates,59408384-AF90-41EA-90E0-151A5B2CE245*
G04*
G04*
G04 #@! TF.FilePolarity,Positive*
G04*
G01*
G75*
%ADD54C,0.06000*%
%ADD55R,0.06000X0.06000*%
%ADD56C,0.11811*%
%ADD57C,0.07874*%
%ADD58R,0.07874X0.07874*%
%ADD59C,0.06496*%
%ADD60R,0.06496X0.06496*%
%ADD61R,0.05906X0.05906*%
%ADD62C,0.05906*%
%ADD63C,0.07677*%
D54*
X149073Y450555D02*
D03*
X159073D02*
D03*
X169073D02*
D03*
X179073D02*
D03*
X189073D02*
D03*
X199073D02*
D03*
X209073D02*
D03*
X219073D02*
D03*
X229073D02*
D03*
X239073D02*
D03*
X249073D02*
D03*
D55*
X259073D02*
D03*
D56*
X117579Y229153D02*
D03*
Y325650D02*
D03*
X302421D02*
D03*
Y229153D02*
D03*
X117657Y104004D02*
D03*
Y200500D02*
D03*
X302500D02*
D03*
Y104004D02*
D03*
D57*
X288917Y327500D02*
D03*
X278917D02*
D03*
X268917D02*
D03*
X258917D02*
D03*
X248917D02*
D03*
X238917D02*
D03*
X228917D02*
D03*
X218917D02*
D03*
X208917D02*
D03*
X198917D02*
D03*
X188917D02*
D03*
X178917D02*
D03*
X168917D02*
D03*
X158917D02*
D03*
X148917D02*
D03*
X288917Y227500D02*
D03*
X278917D02*
D03*
X268917D02*
D03*
X258917D02*
D03*
X248917D02*
D03*
X238917D02*
D03*
X228917D02*
D03*
X218917D02*
D03*
X208917D02*
D03*
X198917D02*
D03*
X188917D02*
D03*
X178917D02*
D03*
X168917D02*
D03*
X158917D02*
D03*
X148917D02*
D03*
X288996Y202350D02*
D03*
X278996D02*
D03*
X268996D02*
D03*
X258996D02*
D03*
X248996D02*
D03*
X238996D02*
D03*
X228996D02*
D03*
X218996D02*
D03*
X208996D02*
D03*
X198996D02*
D03*
X188996D02*
D03*
X178996D02*
D03*
X168996D02*
D03*
X158996D02*
D03*
X148996D02*
D03*
X288996Y102350D02*
D03*
X278996D02*
D03*
X268996D02*
D03*
X258996D02*
D03*
X248996D02*
D03*
X238996D02*
D03*
X228996D02*
D03*
X218996D02*
D03*
X208996D02*
D03*
X198996D02*
D03*
X188996D02*
D03*
X178996D02*
D03*
X168996D02*
D03*
X158996D02*
D03*
X148996D02*
D03*
X295000Y430000D02*
D03*
X276500Y418000D02*
D03*
D58*
X295000Y406000D02*
D03*
D59*
X330000Y270000D02*
D03*
Y250000D02*
D03*
X320000D02*
D03*
X330000Y260000D02*
D03*
X320000D02*
D03*
Y270000D02*
D03*
X330000Y280000D02*
D03*
X320000D02*
D03*
X330000Y290000D02*
D03*
D60*
X320000D02*
D03*
D61*
X235000Y349000D02*
D03*
X148000D02*
D03*
D62*
X240000Y369000D02*
D03*
X245000Y349000D02*
D03*
X250000Y369000D02*
D03*
X255000Y349000D02*
D03*
X260000Y369000D02*
D03*
X265000Y349000D02*
D03*
X270000Y369000D02*
D03*
X275000Y349000D02*
D03*
X280000Y369000D02*
D03*
X285000Y349000D02*
D03*
X290000Y369000D02*
D03*
X295000Y349000D02*
D03*
X300000Y369000D02*
D03*
X305000Y349000D02*
D03*
X218000D02*
D03*
X213000Y369000D02*
D03*
X208000Y349000D02*
D03*
X203000Y369000D02*
D03*
X198000Y349000D02*
D03*
X193000Y369000D02*
D03*
X188000Y349000D02*
D03*
X183000Y369000D02*
D03*
X178000Y349000D02*
D03*
X173000Y369000D02*
D03*
X168000Y349000D02*
D03*
X163000Y369000D02*
D03*
X158000Y349000D02*
D03*
X153000Y369000D02*
D03*
D63*
X105000Y350315D02*
D03*
Y370000D02*
D03*
M02*
