G04*
G04 #@! TF.GenerationSoftware,Altium Limited,Altium Designer,24.3.1 (35)*
G04*
G04 Layer_Physical_Order=1*
G04 Layer_Color=255*
%FSLAX25Y25*%
%MOIN*%
G70*
G04*
G04 #@! TF.SameCoordinates,59408384-AF90-41EA-90E0-151A5B2CE245*
G04*
G04*
G04 #@! TF.FilePolarity,Positive*
G04*
G01*
G75*
G04:AMPARAMS|DCode=16|XSize=29.92mil|YSize=26mil|CornerRadius=3.25mil|HoleSize=0mil|Usage=FLASHONLY|Rotation=270.000|XOffset=0mil|YOffset=0mil|HoleType=Round|Shape=RoundedRectangle|*
%AMROUNDEDRECTD16*
21,1,0.02992,0.01950,0,0,270.0*
21,1,0.02342,0.02600,0,0,270.0*
1,1,0.00650,-0.00975,-0.01171*
1,1,0.00650,-0.00975,0.01171*
1,1,0.00650,0.00975,0.01171*
1,1,0.00650,0.00975,-0.01171*
%
%ADD16ROUNDEDRECTD16*%
G04:AMPARAMS|DCode=17|XSize=127.95mil|YSize=80.71mil|CornerRadius=2.02mil|HoleSize=0mil|Usage=FLASHONLY|Rotation=270.000|XOffset=0mil|YOffset=0mil|HoleType=Round|Shape=RoundedRectangle|*
%AMROUNDEDRECTD17*
21,1,0.12795,0.07667,0,0,270.0*
21,1,0.12392,0.08071,0,0,270.0*
1,1,0.00404,-0.03834,-0.06196*
1,1,0.00404,-0.03834,0.06196*
1,1,0.00404,0.03834,0.06196*
1,1,0.00404,0.03834,-0.06196*
%
%ADD17ROUNDEDRECTD17*%
G04:AMPARAMS|DCode=18|XSize=39.37mil|YSize=80.71mil|CornerRadius=1.97mil|HoleSize=0mil|Usage=FLASHONLY|Rotation=270.000|XOffset=0mil|YOffset=0mil|HoleType=Round|Shape=RoundedRectangle|*
%AMROUNDEDRECTD18*
21,1,0.03937,0.07677,0,0,270.0*
21,1,0.03543,0.08071,0,0,270.0*
1,1,0.00394,-0.03839,-0.01772*
1,1,0.00394,-0.03839,0.01772*
1,1,0.00394,0.03839,0.01772*
1,1,0.00394,0.03839,-0.01772*
%
%ADD18ROUNDEDRECTD18*%
%ADD19R,0.03740X0.03740*%
%ADD20R,0.03150X0.03937*%
%ADD21R,0.03150X0.03150*%
%ADD22R,0.01772X0.02323*%
%ADD23R,0.03110X0.03661*%
%ADD24R,0.03937X0.04331*%
G04:AMPARAMS|DCode=25|XSize=51.18mil|YSize=29.92mil|CornerRadius=3.74mil|HoleSize=0mil|Usage=FLASHONLY|Rotation=180.000|XOffset=0mil|YOffset=0mil|HoleType=Round|Shape=RoundedRectangle|*
%AMROUNDEDRECTD25*
21,1,0.05118,0.02244,0,0,180.0*
21,1,0.04370,0.02992,0,0,180.0*
1,1,0.00748,-0.02185,0.01122*
1,1,0.00748,0.02185,0.01122*
1,1,0.00748,0.02185,-0.01122*
1,1,0.00748,-0.02185,-0.01122*
%
%ADD25ROUNDEDRECTD25*%
%ADD26R,0.03150X0.03150*%
%ADD50C,0.01500*%
%ADD51C,0.08000*%
%ADD52C,0.04000*%
%ADD53C,0.05000*%
%ADD54C,0.06000*%
%ADD55R,0.06000X0.06000*%
%ADD56C,0.11811*%
%ADD57C,0.07874*%
%ADD58R,0.07874X0.07874*%
%ADD59C,0.06496*%
%ADD60R,0.06496X0.06496*%
%ADD61R,0.05906X0.05906*%
%ADD62C,0.05906*%
%ADD63C,0.07677*%
%ADD64C,0.05000*%
%ADD65C,0.17000*%
G36*
X264000Y446000D02*
X229542D01*
X229505Y446055D01*
X229537Y446223D01*
X229746Y446594D01*
X230617Y446828D01*
X231529Y447354D01*
X232274Y448099D01*
X232801Y449011D01*
X233073Y450029D01*
Y451082D01*
X232801Y452099D01*
X232274Y453011D01*
X231529Y453756D01*
X230617Y454283D01*
X229600Y454555D01*
X228547D01*
X227529Y454283D01*
X226617Y453756D01*
X225872Y453011D01*
X225346Y452099D01*
X225313Y451979D01*
X224823Y451881D01*
X224639Y452121D01*
X222639Y454121D01*
X221595Y454923D01*
X220378Y455426D01*
X219073Y455598D01*
X217768Y455426D01*
X216551Y454923D01*
X215507Y454121D01*
X214706Y453077D01*
X214344Y452203D01*
X213803D01*
X213441Y453077D01*
X212639Y454121D01*
X211595Y454923D01*
X210378Y455426D01*
X209073Y455598D01*
X207768Y455426D01*
X206552Y454923D01*
X205507Y454121D01*
X204706Y453077D01*
X204202Y451860D01*
X204030Y450555D01*
Y446000D01*
X172961D01*
X172895Y446066D01*
X171850Y446868D01*
X171706Y446927D01*
X171662Y447487D01*
X172274Y448099D01*
X172801Y449011D01*
X173073Y450029D01*
Y451082D01*
X172801Y452099D01*
X172274Y453011D01*
X171529Y453756D01*
X170617Y454283D01*
X169600Y454555D01*
X168546D01*
X167529Y454283D01*
X166617Y453756D01*
X165872Y453011D01*
X165346Y452099D01*
X165073Y451082D01*
Y450029D01*
X165346Y449011D01*
X165698Y448400D01*
X165298Y448093D01*
X164116Y449275D01*
Y450555D01*
X163944Y451860D01*
X163441Y453077D01*
X162639Y454121D01*
X161595Y454923D01*
X160378Y455426D01*
X159073Y455598D01*
X157768Y455426D01*
X156552Y454923D01*
X155507Y454121D01*
X154706Y453077D01*
X154344Y452203D01*
X153803D01*
X153441Y453077D01*
X152639Y454121D01*
X151595Y454923D01*
X150378Y455426D01*
X149073Y455598D01*
X147768Y455426D01*
X146552Y454923D01*
X145507Y454121D01*
X144706Y453077D01*
X144202Y451860D01*
X144030Y450555D01*
Y446000D01*
X112500D01*
Y425613D01*
X112334Y425476D01*
X109000D01*
Y419305D01*
X113559D01*
Y421000D01*
X128431D01*
X128672Y420500D01*
X128534Y420294D01*
X128441Y419827D01*
Y419305D01*
X133500D01*
Y418055D01*
X134750D01*
Y415063D01*
X137339D01*
X137806Y415156D01*
X138201Y415421D01*
X138466Y415816D01*
X138500Y415987D01*
X139000Y415938D01*
Y411117D01*
X138500Y411068D01*
X138466Y411239D01*
X138201Y411634D01*
X137806Y411899D01*
X137339Y411992D01*
X129661D01*
X129194Y411899D01*
X128798Y411634D01*
X128534Y411239D01*
X128441Y410772D01*
Y407228D01*
X128534Y406761D01*
X128798Y406365D01*
X129194Y406101D01*
X129661Y406008D01*
X130716D01*
Y403011D01*
X130351Y402801D01*
X129699Y402149D01*
X129238Y401351D01*
X129000Y400461D01*
Y399539D01*
X129238Y398649D01*
X129699Y397851D01*
X130351Y397199D01*
X131149Y396739D01*
X132039Y396500D01*
X132961D01*
X133851Y396739D01*
X134649Y397199D01*
X135301Y397851D01*
X135761Y398649D01*
X136000Y399539D01*
Y400461D01*
X135761Y401351D01*
X135301Y402149D01*
X134649Y402801D01*
X134284Y403011D01*
Y406008D01*
X137339D01*
X137806Y406101D01*
X138201Y406365D01*
X138466Y406761D01*
X138500Y406932D01*
X139000Y406883D01*
Y375328D01*
X138957Y375000D01*
Y365272D01*
X139000Y364944D01*
Y356000D01*
X146140D01*
X147082Y355058D01*
X148126Y354257D01*
X148914Y353930D01*
X149430Y353415D01*
X149239Y352953D01*
X144047D01*
Y345047D01*
X143656Y344784D01*
X136893D01*
X136893Y344784D01*
X136211Y344649D01*
X135632Y344262D01*
X135632Y344262D01*
X134660Y343290D01*
X134137Y343474D01*
X133953Y344159D01*
X133492Y344957D01*
X132841Y345609D01*
X132043Y346070D01*
X131415Y346238D01*
X131367Y346615D01*
X131392Y346762D01*
X132149Y347199D01*
X132801Y347851D01*
X133262Y348649D01*
X133500Y349539D01*
Y350461D01*
X133262Y351351D01*
X132801Y352149D01*
X132149Y352801D01*
X132034Y352867D01*
Y354434D01*
X132685D01*
X133221Y354540D01*
X133676Y354844D01*
X133979Y355298D01*
X134086Y355835D01*
Y358079D01*
X133979Y358615D01*
X133676Y359069D01*
X133221Y359373D01*
X132685Y359480D01*
X128315D01*
X127779Y359373D01*
X127324Y359069D01*
X127021Y358615D01*
X126914Y358079D01*
Y355835D01*
X127021Y355298D01*
X127324Y354844D01*
X127779Y354540D01*
X128315Y354434D01*
X128466D01*
Y353156D01*
X127851Y352801D01*
X127199Y352149D01*
X126739Y351351D01*
X126500Y350461D01*
Y349539D01*
X126739Y348649D01*
X127199Y347851D01*
X127851Y347199D01*
X128649Y346739D01*
X129276Y346570D01*
X129325Y346193D01*
X129300Y346046D01*
X128542Y345609D01*
X127891Y344957D01*
X127430Y344159D01*
X127191Y343269D01*
Y342348D01*
X127430Y341458D01*
X127484Y341364D01*
X126100Y339406D01*
X124807Y338113D01*
X124641Y337865D01*
X124462Y337628D01*
X123394Y335419D01*
X123381Y335368D01*
X123352Y335325D01*
X123293Y335033D01*
X123219Y334745D01*
X123226Y334693D01*
X123216Y334642D01*
Y328743D01*
X122716Y328591D01*
X122166Y329414D01*
X121343Y330237D01*
X120376Y330883D01*
X119301Y331328D01*
X118160Y331555D01*
X116997D01*
X115856Y331328D01*
X114781Y330883D01*
X113814Y330237D01*
X112992Y329414D01*
X112345Y328447D01*
X111900Y327372D01*
X111673Y326231D01*
Y325068D01*
X111900Y323927D01*
X112345Y322852D01*
X112992Y321885D01*
X113814Y321062D01*
X114781Y320416D01*
X115856Y319971D01*
X116997Y319744D01*
X118160D01*
X119301Y319971D01*
X120376Y320416D01*
X121343Y321062D01*
X122166Y321885D01*
X122716Y322708D01*
X123216Y322556D01*
Y303358D01*
X123216Y303355D01*
X123216Y303352D01*
X123450Y232689D01*
X123519Y232349D01*
X123586Y232012D01*
X123588Y232009D01*
X123588Y232006D01*
X123781Y231720D01*
X123973Y231433D01*
X124412Y230994D01*
X142167Y213238D01*
X142167Y213238D01*
X142746Y212852D01*
X143429Y212716D01*
X143429Y212716D01*
X158678D01*
X165529Y205865D01*
X165045Y205382D01*
X164395Y204256D01*
X164255Y203731D01*
X163737D01*
X163597Y204256D01*
X162947Y205382D01*
X162027Y206301D01*
X160902Y206951D01*
X159646Y207287D01*
X158346D01*
X157090Y206951D01*
X155965Y206301D01*
X155045Y205382D01*
X154395Y204256D01*
X154255Y203731D01*
X153737D01*
X153597Y204256D01*
X152947Y205382D01*
X152027Y206301D01*
X150902Y206951D01*
X150246Y207127D01*
Y202350D01*
Y197574D01*
X150902Y197750D01*
X152027Y198400D01*
X152947Y199319D01*
X153597Y200445D01*
X153737Y200970D01*
X154255D01*
X154395Y200445D01*
X155045Y199319D01*
X155965Y198400D01*
X157090Y197750D01*
X158346Y197413D01*
X159646D01*
X160902Y197750D01*
X162027Y198400D01*
X162947Y199319D01*
X163597Y200445D01*
X163737Y200970D01*
X164255D01*
X164395Y200445D01*
X165045Y199319D01*
X165965Y198400D01*
X167090Y197750D01*
X168346Y197413D01*
X169646D01*
X170902Y197750D01*
X172027Y198400D01*
X172947Y199319D01*
X173597Y200445D01*
X173737Y200970D01*
X174255D01*
X174396Y200445D01*
X175046Y199319D01*
X175965Y198400D01*
X177091Y197750D01*
X178346Y197413D01*
X179646D01*
X180902Y197750D01*
X182027Y198400D01*
X182947Y199319D01*
X183597Y200445D01*
X183737Y200970D01*
X184255D01*
X184396Y200445D01*
X185046Y199319D01*
X185965Y198400D01*
X187091Y197750D01*
X188346Y197413D01*
X189646D01*
X190902Y197750D01*
X192027Y198400D01*
X192947Y199319D01*
X193597Y200445D01*
X193737Y200970D01*
X194255D01*
X194395Y200445D01*
X195045Y199319D01*
X195965Y198400D01*
X197090Y197750D01*
X198346Y197413D01*
X199646D01*
X200902Y197750D01*
X202027Y198400D01*
X202947Y199319D01*
X203597Y200445D01*
X203737Y200970D01*
X204255D01*
X204396Y200445D01*
X205046Y199319D01*
X205965Y198400D01*
X207090Y197750D01*
X208346Y197413D01*
X209646D01*
X210902Y197750D01*
X212027Y198400D01*
X212947Y199319D01*
X213597Y200445D01*
X213737Y200970D01*
X214255D01*
X214395Y200445D01*
X215045Y199319D01*
X215965Y198400D01*
X217091Y197750D01*
X218346Y197413D01*
X219646D01*
X220902Y197750D01*
X222027Y198400D01*
X222947Y199319D01*
X223597Y200445D01*
X223737Y200970D01*
X224255D01*
X224395Y200445D01*
X225045Y199319D01*
X225965Y198400D01*
X227091Y197750D01*
X228346Y197413D01*
X229646D01*
X230902Y197750D01*
X232027Y198400D01*
X232947Y199319D01*
X233597Y200445D01*
X233737Y200970D01*
X234255D01*
X234396Y200445D01*
X235046Y199319D01*
X235965Y198400D01*
X237090Y197750D01*
X238346Y197413D01*
X239646D01*
X240902Y197750D01*
X242027Y198400D01*
X242947Y199319D01*
X243597Y200445D01*
X243737Y200970D01*
X244255D01*
X244395Y200445D01*
X245045Y199319D01*
X245965Y198400D01*
X247091Y197750D01*
X248346Y197413D01*
X249646D01*
X250902Y197750D01*
X252027Y198400D01*
X252947Y199319D01*
X253597Y200445D01*
X253737Y200970D01*
X254255D01*
X254396Y200445D01*
X255046Y199319D01*
X255965Y198400D01*
X257090Y197750D01*
X258346Y197413D01*
X259646D01*
X260902Y197750D01*
X262027Y198400D01*
X262947Y199319D01*
X263597Y200445D01*
X263737Y200970D01*
X264255D01*
X264395Y200445D01*
X265045Y199319D01*
X265965Y198400D01*
X267091Y197750D01*
X268346Y197413D01*
X269646D01*
X270902Y197750D01*
X272027Y198400D01*
X272947Y199319D01*
X273597Y200445D01*
X273737Y200970D01*
X274255D01*
X274395Y200445D01*
X275045Y199319D01*
X275965Y198400D01*
X277091Y197750D01*
X278346Y197413D01*
X279646D01*
X280902Y197750D01*
X282027Y198400D01*
X282947Y199319D01*
X283597Y200445D01*
X283737Y200970D01*
X284255D01*
X284396Y200445D01*
X285046Y199319D01*
X285965Y198400D01*
X287090Y197750D01*
X288346Y197413D01*
X289646D01*
X290902Y197750D01*
X292027Y198400D01*
X292947Y199319D01*
X293597Y200445D01*
X293933Y201700D01*
Y203000D01*
X293597Y204256D01*
X292947Y205382D01*
X292027Y206301D01*
X290902Y206951D01*
X289646Y207287D01*
X288346D01*
X287090Y206951D01*
X285965Y206301D01*
X285046Y205382D01*
X284396Y204256D01*
X284255Y203731D01*
X283737D01*
X283597Y204256D01*
X282947Y205382D01*
X282027Y206301D01*
X280902Y206951D01*
X279646Y207287D01*
X278346D01*
X277091Y206951D01*
X275965Y206301D01*
X275045Y205382D01*
X274395Y204256D01*
X274255Y203731D01*
X273737D01*
X273597Y204256D01*
X272947Y205382D01*
X272027Y206301D01*
X270902Y206951D01*
X269646Y207287D01*
X268346D01*
X267091Y206951D01*
X265965Y206301D01*
X265045Y205382D01*
X264395Y204256D01*
X264255Y203731D01*
X263737D01*
X263597Y204256D01*
X262947Y205382D01*
X262027Y206301D01*
X260902Y206951D01*
X259646Y207287D01*
X258346D01*
X257090Y206951D01*
X255965Y206301D01*
X255046Y205382D01*
X254396Y204256D01*
X254255Y203731D01*
X253737D01*
X253597Y204256D01*
X252947Y205382D01*
X252027Y206301D01*
X250902Y206951D01*
X249646Y207287D01*
X248346D01*
X247091Y206951D01*
X245965Y206301D01*
X245045Y205382D01*
X244395Y204256D01*
X244255Y203731D01*
X243737D01*
X243597Y204256D01*
X242947Y205382D01*
X242027Y206301D01*
X240902Y206951D01*
X239646Y207287D01*
X238346D01*
X237090Y206951D01*
X235965Y206301D01*
X235046Y205382D01*
X234396Y204256D01*
X234255Y203731D01*
X233737D01*
X233597Y204256D01*
X232947Y205382D01*
X232027Y206301D01*
X230902Y206951D01*
X229646Y207287D01*
X228346D01*
X227091Y206951D01*
X225965Y206301D01*
X225045Y205382D01*
X224395Y204256D01*
X224255Y203731D01*
X223737D01*
X223597Y204256D01*
X222947Y205382D01*
X222027Y206301D01*
X220902Y206951D01*
X219646Y207287D01*
X218346D01*
X217091Y206951D01*
X215965Y206301D01*
X215045Y205382D01*
X214395Y204256D01*
X214255Y203731D01*
X213737D01*
X213597Y204256D01*
X212947Y205382D01*
X212027Y206301D01*
X210902Y206951D01*
X209646Y207287D01*
X208346D01*
X207090Y206951D01*
X205965Y206301D01*
X205046Y205382D01*
X204396Y204256D01*
X204255Y203731D01*
X203737D01*
X203597Y204256D01*
X202947Y205382D01*
X202027Y206301D01*
X200902Y206951D01*
X199646Y207287D01*
X198346D01*
X197090Y206951D01*
X195965Y206301D01*
X195045Y205382D01*
X194395Y204256D01*
X194255Y203731D01*
X193737D01*
X193597Y204256D01*
X192947Y205382D01*
X192027Y206301D01*
X190902Y206951D01*
X189646Y207287D01*
X189153D01*
X177187Y219254D01*
X177378Y219716D01*
X185355D01*
X190020Y215051D01*
Y212032D01*
X195169D01*
Y217969D01*
X192149D01*
X188001Y222117D01*
X188260Y222565D01*
X188267Y222563D01*
X189567D01*
X190823Y222899D01*
X191949Y223549D01*
X192868Y224469D01*
X193518Y225594D01*
X193658Y226119D01*
X194176D01*
X194317Y225594D01*
X194967Y224469D01*
X195886Y223549D01*
X197012Y222899D01*
X198267Y222563D01*
X199567D01*
X200823Y222899D01*
X201949Y223549D01*
X202868Y224469D01*
X203518Y225594D01*
X203659Y226119D01*
X204176D01*
X204317Y225594D01*
X204967Y224469D01*
X205886Y223549D01*
X207012Y222899D01*
X208267Y222563D01*
X209567D01*
X210823Y222899D01*
X211949Y223549D01*
X212868Y224469D01*
X213518Y225594D01*
X213658Y226119D01*
X214176D01*
X214317Y225594D01*
X214967Y224469D01*
X215886Y223549D01*
X217012Y222899D01*
X218267Y222563D01*
X219567D01*
X220823Y222899D01*
X221949Y223549D01*
X222868Y224469D01*
X223518Y225594D01*
X223658Y226119D01*
X224176D01*
X224317Y225594D01*
X224967Y224469D01*
X225027Y224408D01*
X224191Y223572D01*
X223804Y222993D01*
X223669Y222311D01*
Y217969D01*
X222878D01*
Y212032D01*
X228028D01*
Y217969D01*
X227237D01*
Y221572D01*
X228237Y222571D01*
X228267Y222563D01*
X229567D01*
X230823Y222899D01*
X231949Y223549D01*
X232868Y224469D01*
X233518Y225594D01*
X233659Y226119D01*
X234176D01*
X234317Y225594D01*
X234967Y224469D01*
X235886Y223549D01*
X236088Y223433D01*
Y217969D01*
X234472D01*
Y212032D01*
X239622D01*
Y215652D01*
X239656Y215825D01*
X239656Y215825D01*
Y222587D01*
X240823Y222899D01*
X241949Y223549D01*
X242868Y224469D01*
X243518Y225594D01*
X243658Y226119D01*
X244176D01*
X244317Y225594D01*
X244967Y224469D01*
X245886Y223549D01*
X247012Y222899D01*
X248267Y222563D01*
X248391D01*
X248488Y222074D01*
X248875Y221495D01*
X254925Y215445D01*
Y212032D01*
X260075D01*
Y217969D01*
X257449D01*
X252243Y223174D01*
X251949Y223549D01*
X252868Y224469D01*
X253518Y225594D01*
X253659Y226119D01*
X254176D01*
X254317Y225594D01*
X254967Y224469D01*
X255886Y223549D01*
X257012Y222899D01*
X258267Y222563D01*
X259567D01*
X260823Y222899D01*
X261949Y223549D01*
X262868Y224469D01*
X263518Y225594D01*
X263658Y226119D01*
X264176D01*
X264317Y225594D01*
X264967Y224469D01*
X265886Y223549D01*
X267012Y222899D01*
X268267Y222563D01*
X269567D01*
X270823Y222899D01*
X271949Y223549D01*
X272868Y224469D01*
X273518Y225594D01*
X273658Y226119D01*
X274176D01*
X274317Y225594D01*
X274967Y224469D01*
X275886Y223549D01*
X277012Y222899D01*
X278267Y222563D01*
X279567D01*
X280823Y222899D01*
X281949Y223549D01*
X282868Y224469D01*
X283518Y225594D01*
X283659Y226119D01*
X284176D01*
X284317Y225594D01*
X284967Y224469D01*
X285886Y223549D01*
X287012Y222899D01*
X288267Y222563D01*
X289567D01*
X290823Y222899D01*
X291949Y223549D01*
X292868Y224469D01*
X293518Y225594D01*
X293854Y226850D01*
Y228150D01*
X293518Y229406D01*
X292868Y230531D01*
X291949Y231451D01*
X290823Y232101D01*
X289567Y232437D01*
X288267D01*
X287012Y232101D01*
X285886Y231451D01*
X284967Y230531D01*
X284317Y229406D01*
X284176Y228881D01*
X283659D01*
X283518Y229406D01*
X282868Y230531D01*
X281949Y231451D01*
X280823Y232101D01*
X279567Y232437D01*
X278267D01*
X277012Y232101D01*
X275886Y231451D01*
X274967Y230531D01*
X274317Y229406D01*
X274176Y228881D01*
X273658D01*
X273518Y229406D01*
X272868Y230531D01*
X271949Y231451D01*
X270823Y232101D01*
X269567Y232437D01*
X268267D01*
X267012Y232101D01*
X265886Y231451D01*
X264967Y230531D01*
X264317Y229406D01*
X264176Y228881D01*
X263658D01*
X263518Y229406D01*
X262868Y230531D01*
X261949Y231451D01*
X260823Y232101D01*
X259567Y232437D01*
X258267D01*
X257012Y232101D01*
X255886Y231451D01*
X254967Y230531D01*
X254317Y229406D01*
X254176Y228881D01*
X253659D01*
X253518Y229406D01*
X252868Y230531D01*
X251949Y231451D01*
X250823Y232101D01*
X249567Y232437D01*
X248267D01*
X247012Y232101D01*
X246903Y232038D01*
X243202Y235739D01*
Y253629D01*
X243202Y253629D01*
X243066Y254311D01*
X242679Y254890D01*
X242679Y254890D01*
X188308Y309262D01*
X187729Y309648D01*
X187046Y309784D01*
X147511D01*
X147301Y310149D01*
X146649Y310801D01*
X145851Y311262D01*
X144961Y311500D01*
X144039D01*
X143149Y311262D01*
X142351Y310801D01*
X141699Y310149D01*
X141238Y309351D01*
X141000Y308461D01*
Y307539D01*
X141238Y306649D01*
X141699Y305851D01*
X142351Y305199D01*
X143149Y304738D01*
X144039Y304500D01*
X144961D01*
X145851Y304738D01*
X146649Y305199D01*
X147301Y305851D01*
X147511Y306216D01*
X186307D01*
X195526Y296996D01*
X195335Y296534D01*
X148489D01*
X136784Y308239D01*
Y322554D01*
X136873Y323277D01*
X136872Y323298D01*
X137026Y325650D01*
X136872Y328002D01*
X136873Y328022D01*
X136784Y328745D01*
Y329761D01*
X139739Y332716D01*
X147376D01*
X147441Y332216D01*
X147012Y332101D01*
X145886Y331451D01*
X144967Y330531D01*
X144317Y329406D01*
X144141Y328750D01*
X148917D01*
Y327500D01*
X150167D01*
Y322724D01*
X150823Y322899D01*
X151949Y323549D01*
X152868Y324469D01*
X153518Y325594D01*
X153658Y326119D01*
X154176D01*
X154317Y325594D01*
X154967Y324469D01*
X155886Y323549D01*
X157012Y322899D01*
X158267Y322563D01*
X159567D01*
X160823Y322899D01*
X161949Y323549D01*
X162868Y324469D01*
X163518Y325594D01*
X163658Y326119D01*
X164176D01*
X164317Y325594D01*
X164967Y324469D01*
X165886Y323549D01*
X167012Y322899D01*
X168267Y322563D01*
X169567D01*
X170823Y322899D01*
X171949Y323549D01*
X172868Y324469D01*
X173518Y325594D01*
X173659Y326119D01*
X174176D01*
X174317Y325594D01*
X174967Y324469D01*
X175886Y323549D01*
X177012Y322899D01*
X178267Y322563D01*
X179567D01*
X180823Y322899D01*
X181949Y323549D01*
X182868Y324469D01*
X183518Y325594D01*
X183659Y326119D01*
X184176D01*
X184317Y325594D01*
X184967Y324469D01*
X185886Y323549D01*
X187012Y322899D01*
X188267Y322563D01*
X189567D01*
X190823Y322899D01*
X191949Y323549D01*
X192868Y324469D01*
X193518Y325594D01*
X193658Y326119D01*
X194176D01*
X194317Y325594D01*
X194967Y324469D01*
X195886Y323549D01*
X197012Y322899D01*
X198267Y322563D01*
X199567D01*
X199840Y322636D01*
X226513Y295964D01*
X226329Y295440D01*
X225644Y295256D01*
X224846Y294795D01*
X224194Y294144D01*
X223733Y293346D01*
X223495Y292456D01*
Y291534D01*
X223733Y290644D01*
X224194Y289846D01*
X224846Y289194D01*
X225644Y288733D01*
X226534Y288495D01*
X227020D01*
X227097Y288380D01*
X272738Y242738D01*
X273317Y242352D01*
X274000Y242216D01*
X309761D01*
X322716Y229261D01*
Y194739D01*
X280360Y152383D01*
X270658D01*
X270467Y152845D01*
X313838Y196217D01*
X313839Y196217D01*
X314225Y196796D01*
X314361Y197479D01*
X314361Y197479D01*
Y232423D01*
X314225Y233106D01*
X313839Y233685D01*
X307762Y239762D01*
X307183Y240148D01*
X306500Y240284D01*
X270739D01*
X221120Y289904D01*
X221262Y290149D01*
X221500Y291039D01*
Y291961D01*
X221262Y292851D01*
X220801Y293649D01*
X220149Y294301D01*
X219351Y294761D01*
X218461Y295000D01*
X217539D01*
X216649Y294761D01*
X215851Y294301D01*
X215199Y293649D01*
X214738Y292851D01*
X214500Y291961D01*
Y291039D01*
X214738Y290149D01*
X215199Y289351D01*
X215851Y288699D01*
X216649Y288239D01*
X217539Y288000D01*
X218017D01*
X218097Y287880D01*
X268738Y237238D01*
X269317Y236852D01*
X270000Y236716D01*
X270000Y236716D01*
X305761D01*
X310792Y231684D01*
Y198218D01*
X267458Y154883D01*
X229599D01*
X229599Y154883D01*
X228916Y154748D01*
X228337Y154361D01*
X228337Y154361D01*
X180918Y106941D01*
X180902Y106951D01*
X179646Y107287D01*
X178346D01*
X177091Y106951D01*
X175965Y106301D01*
X175046Y105382D01*
X174396Y104256D01*
X174255Y103731D01*
X173737D01*
X173597Y104256D01*
X172947Y105382D01*
X172027Y106301D01*
X170902Y106951D01*
X169646Y107287D01*
X168346D01*
X167090Y106951D01*
X165965Y106301D01*
X165045Y105382D01*
X164395Y104256D01*
X164255Y103731D01*
X163737D01*
X163597Y104256D01*
X162947Y105382D01*
X162027Y106301D01*
X160902Y106951D01*
X159646Y107287D01*
X158346D01*
X157090Y106951D01*
X155965Y106301D01*
X155045Y105382D01*
X154672Y104735D01*
X154018Y104602D01*
X153933Y104666D01*
Y107287D01*
X144059D01*
Y97413D01*
X153933D01*
Y100035D01*
X154018Y100099D01*
X154672Y99966D01*
X155045Y99319D01*
X155965Y98400D01*
X157090Y97750D01*
X158346Y97413D01*
X159646D01*
X160902Y97750D01*
X162027Y98400D01*
X162947Y99319D01*
X163597Y100445D01*
X163737Y100970D01*
X164255D01*
X164395Y100445D01*
X165045Y99319D01*
X165965Y98400D01*
X167090Y97750D01*
X168346Y97413D01*
X169646D01*
X170902Y97750D01*
X172027Y98400D01*
X172947Y99319D01*
X173597Y100445D01*
X173737Y100970D01*
X174255D01*
X174396Y100445D01*
X175046Y99319D01*
X175965Y98400D01*
X177091Y97750D01*
X178346Y97413D01*
X179646D01*
X180902Y97750D01*
X182027Y98400D01*
X182947Y99319D01*
X183597Y100445D01*
X183737Y100970D01*
X184255D01*
X184396Y100445D01*
X185046Y99319D01*
X185965Y98400D01*
X187091Y97750D01*
X188346Y97413D01*
X189646D01*
X190902Y97750D01*
X192027Y98400D01*
X192947Y99319D01*
X193597Y100445D01*
X193737Y100970D01*
X194255D01*
X194395Y100445D01*
X195045Y99319D01*
X195965Y98400D01*
X197090Y97750D01*
X198346Y97413D01*
X199646D01*
X200902Y97750D01*
X202027Y98400D01*
X202947Y99319D01*
X203597Y100445D01*
X203737Y100970D01*
X204255D01*
X204396Y100445D01*
X205046Y99319D01*
X205965Y98400D01*
X207090Y97750D01*
X208346Y97413D01*
X209646D01*
X210902Y97750D01*
X212027Y98400D01*
X212947Y99319D01*
X213597Y100445D01*
X213737Y100970D01*
X214255D01*
X214395Y100445D01*
X215045Y99319D01*
X215965Y98400D01*
X217091Y97750D01*
X218346Y97413D01*
X219646D01*
X220902Y97750D01*
X222027Y98400D01*
X222947Y99319D01*
X223597Y100445D01*
X223737Y100970D01*
X224255D01*
X224395Y100445D01*
X225045Y99319D01*
X225965Y98400D01*
X227091Y97750D01*
X228346Y97413D01*
X229646D01*
X230902Y97750D01*
X232027Y98400D01*
X232947Y99319D01*
X233597Y100445D01*
X233737Y100970D01*
X234255D01*
X234396Y100445D01*
X235046Y99319D01*
X235965Y98400D01*
X237090Y97750D01*
X238346Y97413D01*
X239646D01*
X240902Y97750D01*
X242027Y98400D01*
X242947Y99319D01*
X243597Y100445D01*
X243737Y100970D01*
X244255D01*
X244395Y100445D01*
X245045Y99319D01*
X245965Y98400D01*
X247091Y97750D01*
X248346Y97413D01*
X249646D01*
X250902Y97750D01*
X252027Y98400D01*
X252947Y99319D01*
X253597Y100445D01*
X253737Y100970D01*
X254255D01*
X254396Y100445D01*
X255046Y99319D01*
X255965Y98400D01*
X257090Y97750D01*
X258346Y97413D01*
X259646D01*
X260902Y97750D01*
X262027Y98400D01*
X262947Y99319D01*
X263597Y100445D01*
X263737Y100970D01*
X264255D01*
X264395Y100445D01*
X265045Y99319D01*
X265965Y98400D01*
X267091Y97750D01*
X268346Y97413D01*
X269646D01*
X270902Y97750D01*
X272027Y98400D01*
X272947Y99319D01*
X273597Y100445D01*
X273737Y100970D01*
X274255D01*
X274395Y100445D01*
X275045Y99319D01*
X275965Y98400D01*
X277091Y97750D01*
X278346Y97413D01*
X279646D01*
X280902Y97750D01*
X282027Y98400D01*
X282947Y99319D01*
X283597Y100445D01*
X283737Y100970D01*
X284255D01*
X284396Y100445D01*
X285046Y99319D01*
X285965Y98400D01*
X287090Y97750D01*
X288346Y97413D01*
X289646D01*
X290902Y97750D01*
X292027Y98400D01*
X292947Y99319D01*
X293597Y100445D01*
X293933Y101700D01*
Y103000D01*
X293597Y104256D01*
X292947Y105382D01*
X292027Y106301D01*
X290902Y106951D01*
X289646Y107287D01*
X288346D01*
X287090Y106951D01*
X285965Y106301D01*
X285046Y105382D01*
X284396Y104256D01*
X284255Y103731D01*
X283737D01*
X283597Y104256D01*
X282947Y105382D01*
X282027Y106301D01*
X280902Y106951D01*
X279646Y107287D01*
X278346D01*
X277091Y106951D01*
X275965Y106301D01*
X275045Y105382D01*
X274395Y104256D01*
X274255Y103731D01*
X273737D01*
X273597Y104256D01*
X272947Y105382D01*
X272027Y106301D01*
X270902Y106951D01*
X269646Y107287D01*
X268346D01*
X267091Y106951D01*
X265965Y106301D01*
X265045Y105382D01*
X264395Y104256D01*
X264255Y103731D01*
X263737D01*
X263597Y104256D01*
X262947Y105382D01*
X262027Y106301D01*
X260902Y106951D01*
X259646Y107287D01*
X258346D01*
X257090Y106951D01*
X255965Y106301D01*
X255046Y105382D01*
X254396Y104256D01*
X254255Y103731D01*
X253737D01*
X253597Y104256D01*
X252947Y105382D01*
X252027Y106301D01*
X250902Y106951D01*
X249646Y107287D01*
X248346D01*
X247091Y106951D01*
X245965Y106301D01*
X245045Y105382D01*
X244395Y104256D01*
X244255Y103731D01*
X243737D01*
X243597Y104256D01*
X242947Y105382D01*
X242027Y106301D01*
X240902Y106951D01*
X239646Y107287D01*
X238346D01*
X237090Y106951D01*
X235965Y106301D01*
X235046Y105382D01*
X234396Y104256D01*
X234255Y103731D01*
X233737D01*
X233597Y104256D01*
X232947Y105382D01*
X232027Y106301D01*
X230902Y106951D01*
X229646Y107287D01*
X228346D01*
X227091Y106951D01*
X226123Y106392D01*
X225816Y106792D01*
X234739Y115716D01*
X256000D01*
X256683Y115851D01*
X257262Y116238D01*
X336260Y195236D01*
X336260Y195236D01*
X336647Y195815D01*
X336782Y196498D01*
X336782Y196498D01*
Y303899D01*
X336647Y304582D01*
X336260Y305161D01*
X336260Y305161D01*
X306854Y334567D01*
X306275Y334954D01*
X305592Y335089D01*
X279934D01*
X273391Y341632D01*
X273500Y342039D01*
Y342961D01*
X273261Y343851D01*
X272801Y344649D01*
X272149Y345301D01*
X271351Y345761D01*
X270461Y346000D01*
X269539D01*
X268649Y345761D01*
X267851Y345301D01*
X267199Y344649D01*
X266739Y343851D01*
X266500Y342961D01*
Y342039D01*
X266739Y341149D01*
X267199Y340351D01*
X267851Y339699D01*
X268649Y339239D01*
X269539Y339000D01*
X270461D01*
X270868Y339109D01*
X277340Y332637D01*
X277210Y332154D01*
X277012Y332101D01*
X275886Y331451D01*
X274967Y330531D01*
X274317Y329406D01*
X274176Y328881D01*
X273658D01*
X273518Y329406D01*
X272868Y330531D01*
X271949Y331451D01*
X270823Y332101D01*
X269567Y332437D01*
X268267D01*
X267012Y332101D01*
X265886Y331451D01*
X264967Y330531D01*
X264317Y329406D01*
X264176Y328881D01*
X263658D01*
X263518Y329406D01*
X262868Y330531D01*
X261949Y331451D01*
X260823Y332101D01*
X259567Y332437D01*
X258267D01*
X257012Y332101D01*
X255886Y331451D01*
X254967Y330531D01*
X254317Y329406D01*
X254176Y328881D01*
X253659D01*
X253518Y329406D01*
X252868Y330531D01*
X251949Y331451D01*
X250823Y332101D01*
X249567Y332437D01*
X248267D01*
X247012Y332101D01*
X245886Y331451D01*
X244967Y330531D01*
X244317Y329406D01*
X244176Y328881D01*
X243658D01*
X243518Y329406D01*
X242868Y330531D01*
X241949Y331451D01*
X240823Y332101D01*
X239567Y332437D01*
X238267D01*
X237012Y332101D01*
X235886Y331451D01*
X234967Y330531D01*
X234317Y329406D01*
X234176Y328881D01*
X233659D01*
X233518Y329406D01*
X232868Y330531D01*
X231949Y331451D01*
X230823Y332101D01*
X229567Y332437D01*
X228267D01*
X227012Y332101D01*
X225886Y331451D01*
X224967Y330531D01*
X224317Y329406D01*
X224176Y328881D01*
X223658D01*
X223518Y329406D01*
X222868Y330531D01*
X221949Y331451D01*
X220823Y332101D01*
X220247Y332255D01*
X220264Y332768D01*
X220683Y332852D01*
X221262Y333238D01*
X225129Y337106D01*
X225544Y336995D01*
X226466D01*
X227356Y337233D01*
X228154Y337694D01*
X228806Y338346D01*
X229267Y339144D01*
X229505Y340034D01*
Y340956D01*
X229366Y341476D01*
X229814Y341734D01*
X230310Y341238D01*
X230310Y341238D01*
X230889Y340851D01*
X231572Y340716D01*
X231572Y340716D01*
X235146D01*
X235266Y340216D01*
X234699Y339649D01*
X234239Y338851D01*
X234211Y338750D01*
X240789D01*
X240761Y338851D01*
X240301Y339649D01*
X239649Y340301D01*
X238903Y340731D01*
X238822Y341022D01*
X238813Y341289D01*
X241262Y343738D01*
X241262Y343738D01*
X241649Y344317D01*
X241784Y345000D01*
Y345919D01*
X242284Y346126D01*
X242573Y345837D01*
X243474Y345317D01*
X244480Y345047D01*
X245520D01*
X246526Y345317D01*
X247427Y345837D01*
X248163Y346573D01*
X248683Y347474D01*
X248709Y347571D01*
X249569Y347927D01*
X250547Y348677D01*
X250797Y348617D01*
X251052Y348460D01*
X251317Y347474D01*
X251837Y346573D01*
X252573Y345837D01*
X253474Y345317D01*
X254480Y345047D01*
X255520D01*
X256526Y345317D01*
X257427Y345837D01*
X258163Y346573D01*
X258683Y347474D01*
X258953Y348480D01*
Y349520D01*
X258683Y350526D01*
X258163Y351427D01*
X257427Y352163D01*
X256526Y352683D01*
X256387Y352720D01*
X256290Y353211D01*
X256519Y353387D01*
X258089Y354957D01*
X307500D01*
X308805Y355129D01*
X310022Y355632D01*
X310501Y356000D01*
X340000D01*
Y92000D01*
X84500Y92000D01*
Y421000D01*
Y465000D01*
X264000D01*
Y446000D01*
D02*
G37*
G36*
X340000Y365000D02*
X320096D01*
X319874Y365448D01*
X319996Y365607D01*
X320500Y366823D01*
X320672Y368129D01*
X320500Y369434D01*
X319996Y370650D01*
X319195Y371695D01*
X298873Y392016D01*
X299065Y392478D01*
X300219D01*
X300736Y392581D01*
X301174Y392874D01*
X301467Y393312D01*
X301570Y393829D01*
Y394500D01*
X299244D01*
X296617D01*
X296456Y394433D01*
X295569Y395320D01*
X294525Y396121D01*
X293309Y396625D01*
X292003Y396797D01*
X285335D01*
X266066Y416066D01*
X265022Y416867D01*
X263805Y417371D01*
X262543Y417537D01*
Y420571D01*
X262525Y420709D01*
X262543Y420847D01*
X262371Y422152D01*
X261867Y423368D01*
X261066Y424412D01*
X260022Y425214D01*
X258805Y425718D01*
X257500Y425890D01*
X249242D01*
X235094Y440038D01*
X235285Y440500D01*
X254398D01*
X254613Y440000D01*
X254239Y439351D01*
X254011Y438500D01*
X260989D01*
X260761Y439351D01*
X260387Y440000D01*
X260602Y440500D01*
X274500D01*
Y465000D01*
X340000D01*
Y365000D01*
D02*
G37*
G36*
X222914Y437954D02*
X222902Y437833D01*
X222360Y437461D01*
X222053Y437543D01*
Y434053D01*
X221553D01*
Y433553D01*
X218064D01*
X218292Y432702D01*
X218753Y431904D01*
X219404Y431253D01*
X220202Y430792D01*
X221093Y430553D01*
X221721D01*
X221909Y430365D01*
X221974Y430315D01*
Y429153D01*
X222077Y428370D01*
X222379Y427641D01*
X222860Y427014D01*
X223315Y426665D01*
X223145Y426165D01*
X222467D01*
X214116Y434516D01*
Y440000D01*
X217000D01*
X217500Y440500D01*
X220368D01*
X222914Y437954D01*
D02*
G37*
G36*
X144030Y438427D02*
X144202Y437122D01*
X144706Y435905D01*
X145507Y434861D01*
X151772Y428595D01*
X151465Y428195D01*
X151351Y428262D01*
X150461Y428500D01*
X149539D01*
X148649Y428262D01*
X147851Y427801D01*
X147199Y427149D01*
X146739Y426351D01*
X146500Y425461D01*
Y424539D01*
X146577Y424250D01*
X146470Y423433D01*
Y417500D01*
X146590Y416586D01*
X146943Y415735D01*
X147031Y415619D01*
Y414472D01*
X147031Y414335D01*
X147031D01*
Y413972D01*
X147031D01*
Y407642D01*
X148216D01*
Y403028D01*
X147425D01*
Y397878D01*
X152575D01*
Y403028D01*
X151784D01*
Y407642D01*
X152969D01*
Y413972D01*
X152969Y413972D01*
Y414335D01*
X152969D01*
X152969Y414472D01*
Y415619D01*
X153057Y415735D01*
X153410Y416586D01*
X153530Y417500D01*
Y423433D01*
X153423Y424250D01*
X153500Y424539D01*
Y425461D01*
X153261Y426351D01*
X153195Y426465D01*
X153595Y426772D01*
X163087Y417280D01*
X164132Y416479D01*
X164960Y416136D01*
X165036Y415563D01*
X164587Y415220D01*
X156765Y407397D01*
X155963Y406352D01*
X155459Y405136D01*
X155288Y403831D01*
Y393420D01*
X151917Y390049D01*
X151389Y390229D01*
X151208Y390904D01*
X150901Y391436D01*
X150959Y391729D01*
Y391973D01*
X152575D01*
Y394048D01*
X150000D01*
X147425D01*
Y393895D01*
X147391Y393723D01*
Y393028D01*
X146596Y392815D01*
X145798Y392354D01*
X145500Y392056D01*
X145000Y392264D01*
Y427000D01*
X140373D01*
X139934Y427500D01*
X140043Y428329D01*
Y435000D01*
X139871Y436305D01*
X139367Y437522D01*
X138566Y438566D01*
X137522Y439367D01*
X137202Y439500D01*
X137301Y440000D01*
X144030D01*
Y438427D01*
D02*
G37*
G36*
X189039Y439500D02*
X188816Y439440D01*
X188586Y439410D01*
X188373Y439321D01*
X188149Y439261D01*
X187949Y439146D01*
X187735Y439057D01*
X187551Y438916D01*
X187351Y438801D01*
X187187Y438637D01*
X187004Y438496D01*
X186863Y438313D01*
X186699Y438149D01*
X186584Y437949D01*
X186443Y437765D01*
X186354Y437551D01*
X186239Y437351D01*
X186179Y437127D01*
X186090Y436914D01*
X186060Y436684D01*
X186000Y436461D01*
Y436229D01*
X185970Y436000D01*
X186000Y435771D01*
Y435539D01*
X186060Y435316D01*
X186090Y435086D01*
X186179Y434872D01*
X186239Y434649D01*
X186354Y434449D01*
X186443Y434235D01*
X186584Y434051D01*
X186699Y433851D01*
X186863Y433687D01*
X187004Y433504D01*
X189388Y431120D01*
X189449Y430657D01*
X189802Y429805D01*
X190363Y429074D01*
X192504Y426933D01*
X193212Y426390D01*
X193216Y426339D01*
X193027Y425890D01*
X190243D01*
X185714Y430418D01*
Y431158D01*
X185542Y432463D01*
X185038Y433680D01*
X184237Y434724D01*
X179423Y439538D01*
X179614Y440000D01*
X188822D01*
X189039Y439500D01*
D02*
G37*
G36*
X160193Y438934D02*
X161238Y438132D01*
X162454Y437629D01*
X162976Y437560D01*
X163133Y437035D01*
X162739Y436351D01*
X162511Y435500D01*
X166000D01*
Y435000D01*
X166500D01*
Y431150D01*
X168148Y429502D01*
X170360Y427289D01*
X170614Y427095D01*
Y426992D01*
X170748D01*
X170987Y426809D01*
X171717Y426506D01*
X172500Y426403D01*
X173283Y426506D01*
X174013Y426809D01*
X174252Y426992D01*
X174386D01*
Y427095D01*
X174640Y427289D01*
X175120Y427916D01*
X175164Y428020D01*
X175677Y427953D01*
X175799Y427024D01*
X176303Y425808D01*
X177104Y424763D01*
X184588Y417280D01*
X185632Y416479D01*
X186848Y415975D01*
X188154Y415803D01*
X189957D01*
Y414056D01*
X189522Y413875D01*
X188477Y413074D01*
X184934Y409531D01*
X184133Y408486D01*
X183629Y407270D01*
X183503Y406318D01*
X183316Y406210D01*
X182975Y406136D01*
X182022Y406868D01*
X180805Y407371D01*
X179500Y407543D01*
X176134D01*
X175974Y408017D01*
X176066Y408087D01*
X176867Y409132D01*
X177371Y410348D01*
X177543Y411654D01*
Y420847D01*
X177371Y422152D01*
X176867Y423368D01*
X176066Y424412D01*
X175022Y425214D01*
X173805Y425718D01*
X172500Y425890D01*
X168743D01*
X155094Y439538D01*
X155285Y440000D01*
X159127D01*
X160193Y438934D01*
D02*
G37*
G36*
X204030Y432427D02*
X204202Y431122D01*
X204706Y429905D01*
X205507Y428861D01*
X216812Y417556D01*
X217856Y416755D01*
X219073Y416251D01*
X219957Y416134D01*
Y411654D01*
X220129Y410348D01*
X220633Y409132D01*
X221434Y408087D01*
X221526Y408017D01*
X221366Y407543D01*
X202500D01*
X201195Y407371D01*
X199978Y406868D01*
X198934Y406066D01*
X198133Y405022D01*
X197827Y404284D01*
X196886D01*
Y405508D01*
X196855D01*
X196762Y406008D01*
X198566Y407812D01*
X199367Y408856D01*
X199871Y410073D01*
X200043Y411378D01*
X200025Y411516D01*
X200043Y411654D01*
Y420847D01*
X199871Y422152D01*
X199367Y423368D01*
X198566Y424412D01*
X197522Y425214D01*
X196399Y425679D01*
X196342Y425972D01*
X196376Y426210D01*
X196765Y426372D01*
X197496Y426933D01*
X198057Y427664D01*
X198410Y428515D01*
X198530Y429429D01*
X198410Y430343D01*
X198057Y431194D01*
X197496Y431925D01*
X196330Y433092D01*
X196269Y433555D01*
X195916Y434406D01*
X195355Y435138D01*
X191996Y438496D01*
X191813Y438637D01*
X191649Y438801D01*
X191449Y438916D01*
X191265Y439057D01*
X191051Y439146D01*
X190851Y439261D01*
X190627Y439321D01*
X190414Y439410D01*
X190184Y439440D01*
X189961Y439500D01*
X190178Y440000D01*
X204030D01*
Y432427D01*
D02*
G37*
G36*
X195164Y400851D02*
X195846Y400716D01*
X195846Y400716D01*
X197827D01*
X198133Y399978D01*
X198934Y398934D01*
X199978Y398132D01*
X201195Y397629D01*
X202500Y397457D01*
X230000D01*
X231305Y397629D01*
X232522Y398132D01*
X233566Y398934D01*
X234367Y399978D01*
X234457Y400194D01*
X234957Y400095D01*
Y396658D01*
X234457Y396412D01*
X233851Y396761D01*
X232961Y397000D01*
X232039D01*
X231149Y396761D01*
X230351Y396301D01*
X229699Y395649D01*
X229239Y394851D01*
X229000Y393961D01*
Y393039D01*
X229239Y392149D01*
X229699Y391351D01*
X230351Y390699D01*
X231149Y390238D01*
X232039Y390000D01*
X232466D01*
Y383147D01*
X231966Y382907D01*
X231351Y383261D01*
X230500Y383489D01*
Y380000D01*
Y376511D01*
X231351Y376739D01*
X231966Y377093D01*
X232466Y376853D01*
Y366618D01*
X232601Y365935D01*
X232892Y365500D01*
X232691Y365000D01*
X214977D01*
X214843Y365500D01*
X215427Y365837D01*
X216163Y366573D01*
X216683Y367474D01*
X216953Y368480D01*
Y369520D01*
X216683Y370526D01*
X216163Y371427D01*
X215427Y372163D01*
X214526Y372683D01*
X213520Y372953D01*
X212480D01*
X211474Y372683D01*
X210573Y372163D01*
X209837Y371427D01*
X209317Y370526D01*
X209047Y369520D01*
Y368480D01*
X209317Y367474D01*
X209837Y366573D01*
X210573Y365837D01*
X211157Y365500D01*
X211023Y365000D01*
X204977D01*
X204843Y365500D01*
X205427Y365837D01*
X206163Y366573D01*
X206683Y367474D01*
X206953Y368480D01*
Y369520D01*
X206683Y370526D01*
X206163Y371427D01*
X205427Y372163D01*
X204526Y372683D01*
X203520Y372953D01*
X202480D01*
X201474Y372683D01*
X200573Y372163D01*
X199837Y371427D01*
X199317Y370526D01*
X199047Y369520D01*
Y368480D01*
X199317Y367474D01*
X199837Y366573D01*
X200573Y365837D01*
X201157Y365500D01*
X201023Y365000D01*
X194977D01*
X194843Y365500D01*
X195427Y365837D01*
X196163Y366573D01*
X196683Y367474D01*
X196953Y368480D01*
Y369520D01*
X196683Y370526D01*
X196163Y371427D01*
X195427Y372163D01*
X194526Y372683D01*
X193520Y372953D01*
X192480D01*
X191474Y372683D01*
X190573Y372163D01*
X189837Y371427D01*
X189317Y370526D01*
X189047Y369520D01*
Y368480D01*
X189317Y367474D01*
X189837Y366573D01*
X190573Y365837D01*
X191157Y365500D01*
X191023Y365000D01*
X184977D01*
X184843Y365500D01*
X185427Y365837D01*
X186163Y366573D01*
X186683Y367474D01*
X186953Y368480D01*
Y369520D01*
X186683Y370526D01*
X186163Y371427D01*
X185427Y372163D01*
X184526Y372683D01*
X183520Y372953D01*
X182480D01*
X181474Y372683D01*
X180573Y372163D01*
X179837Y371427D01*
X179317Y370526D01*
X179047Y369520D01*
Y368480D01*
X179317Y367474D01*
X179837Y366573D01*
X180573Y365837D01*
X181157Y365500D01*
X181023Y365000D01*
X175161D01*
X175099Y365070D01*
X175201Y365706D01*
X175427Y365837D01*
X176163Y366573D01*
X176683Y367474D01*
X176953Y368480D01*
Y369520D01*
X176683Y370526D01*
X176163Y371427D01*
X175427Y372163D01*
X174526Y372683D01*
X173520Y372953D01*
X172480D01*
X171474Y372683D01*
X170573Y372163D01*
X169837Y371427D01*
X169317Y370526D01*
X169047Y369520D01*
Y368480D01*
X169317Y367474D01*
X169837Y366573D01*
X170573Y365837D01*
X170799Y365706D01*
X170902Y365070D01*
X170839Y365000D01*
X164977D01*
X164843Y365500D01*
X165427Y365837D01*
X166163Y366573D01*
X166683Y367474D01*
X166953Y368480D01*
Y368500D01*
X163000D01*
Y369500D01*
X166953D01*
Y369520D01*
X166683Y370526D01*
X166163Y371427D01*
X165427Y372163D01*
X164526Y372683D01*
X163540Y372948D01*
X163397Y373181D01*
X163300Y373415D01*
X165917Y376032D01*
X172998D01*
X174304Y376203D01*
X175520Y376707D01*
X176565Y377509D01*
X192066Y393010D01*
X192868Y394055D01*
X193371Y395271D01*
X193543Y396576D01*
X193543Y396576D01*
Y401185D01*
X194665D01*
X195164Y400851D01*
D02*
G37*
G36*
X168709Y404370D02*
X168475Y403805D01*
X168303Y402500D01*
X168475Y401195D01*
X168979Y399978D01*
X169780Y398934D01*
X170825Y398132D01*
X172041Y397629D01*
X173346Y397457D01*
X179500D01*
X180805Y397629D01*
X182022Y398132D01*
X182862Y398777D01*
X183192Y398400D01*
X170910Y386118D01*
X163828D01*
X162825Y385986D01*
X162592Y386459D01*
X163897Y387765D01*
X164698Y388809D01*
X165202Y390025D01*
X165374Y391331D01*
Y401742D01*
X168285Y404653D01*
X168709Y404370D01*
D02*
G37*
G36*
X243587Y417280D02*
X244632Y416479D01*
X245848Y415975D01*
X247153Y415803D01*
X252457D01*
Y412500D01*
X252629Y411195D01*
X253133Y409978D01*
X253934Y408934D01*
X254978Y408133D01*
X256195Y407629D01*
X257500Y407457D01*
X260411D01*
X279680Y388188D01*
X280725Y387386D01*
X281941Y386883D01*
X283246Y386711D01*
X289914D01*
X308497Y368129D01*
X305411Y365043D01*
X302052D01*
X301918Y365543D01*
X302427Y365837D01*
X303163Y366573D01*
X303683Y367474D01*
X303953Y368480D01*
Y369520D01*
X303683Y370526D01*
X303163Y371427D01*
X302427Y372163D01*
X301526Y372683D01*
X300520Y372953D01*
X299480D01*
X298474Y372683D01*
X297573Y372163D01*
X296837Y371427D01*
X296317Y370526D01*
X296047Y369520D01*
Y368480D01*
X296317Y367474D01*
X296837Y366573D01*
X297573Y365837D01*
X298082Y365543D01*
X297948Y365043D01*
X292052D01*
X291918Y365543D01*
X292427Y365837D01*
X293163Y366573D01*
X293683Y367474D01*
X293953Y368480D01*
Y369520D01*
X293683Y370526D01*
X293163Y371427D01*
X292427Y372163D01*
X291526Y372683D01*
X290520Y372953D01*
X289480D01*
X288474Y372683D01*
X287573Y372163D01*
X286837Y371427D01*
X286317Y370526D01*
X286047Y369520D01*
Y368480D01*
X286317Y367474D01*
X286837Y366573D01*
X287573Y365837D01*
X288082Y365543D01*
X287948Y365043D01*
X282052D01*
X281918Y365543D01*
X282427Y365837D01*
X283163Y366573D01*
X283683Y367474D01*
X283953Y368480D01*
Y369520D01*
X283683Y370526D01*
X283163Y371427D01*
X282427Y372163D01*
X281526Y372683D01*
X280520Y372953D01*
X279480D01*
X278474Y372683D01*
X277573Y372163D01*
X276837Y371427D01*
X276317Y370526D01*
X276047Y369520D01*
Y368480D01*
X276317Y367474D01*
X276837Y366573D01*
X277573Y365837D01*
X278082Y365543D01*
X277948Y365043D01*
X272052D01*
X271918Y365543D01*
X272427Y365837D01*
X273163Y366573D01*
X273683Y367474D01*
X273953Y368480D01*
Y369520D01*
X273683Y370526D01*
X273163Y371427D01*
X272427Y372163D01*
X271526Y372683D01*
X270520Y372953D01*
X269480D01*
X268474Y372683D01*
X267573Y372163D01*
X266837Y371427D01*
X266317Y370526D01*
X266047Y369520D01*
Y368480D01*
X266317Y367474D01*
X266837Y366573D01*
X267573Y365837D01*
X268082Y365543D01*
X267948Y365043D01*
X262052D01*
X261918Y365543D01*
X262427Y365837D01*
X263163Y366573D01*
X263683Y367474D01*
X263953Y368480D01*
Y369520D01*
X263683Y370526D01*
X263163Y371427D01*
X262427Y372163D01*
X261526Y372683D01*
X260520Y372953D01*
X259480D01*
X258474Y372683D01*
X257573Y372163D01*
X256837Y371427D01*
X256317Y370526D01*
X256047Y369520D01*
Y368480D01*
X256317Y367474D01*
X256837Y366573D01*
X257573Y365837D01*
X258082Y365543D01*
X257948Y365043D01*
X256000D01*
X255672Y365000D01*
X251977D01*
X251843Y365500D01*
X252427Y365837D01*
X253163Y366573D01*
X253683Y367474D01*
X253953Y368480D01*
Y368500D01*
X250000D01*
X246047D01*
Y368480D01*
X246317Y367474D01*
X246837Y366573D01*
X247573Y365837D01*
X248157Y365500D01*
X248023Y365000D01*
X243738D01*
X243617Y365500D01*
X244368Y366478D01*
X244871Y367695D01*
X245043Y369000D01*
Y376842D01*
X245543Y377088D01*
X246149Y376739D01*
X247000Y376511D01*
Y380000D01*
Y383489D01*
X246149Y383261D01*
X245543Y382912D01*
X245043Y383158D01*
Y405571D01*
X244871Y406876D01*
X244368Y408092D01*
X243566Y409137D01*
X229391Y423312D01*
X229367Y423368D01*
X228566Y424412D01*
X228291Y424688D01*
X227246Y425490D01*
X226273Y425892D01*
Y426434D01*
X226513Y426533D01*
X227140Y427014D01*
X227621Y427641D01*
X227923Y428370D01*
X228026Y429153D01*
Y432135D01*
X228526Y432342D01*
X243587Y417280D01*
D02*
G37*
G36*
X238216Y352953D02*
X231047D01*
Y352530D01*
X219791D01*
X219526Y352683D01*
X218520Y352953D01*
X217480D01*
X216474Y352683D01*
X215573Y352163D01*
X214837Y351427D01*
X214317Y350526D01*
X214047Y349520D01*
Y348480D01*
X214317Y347474D01*
X214837Y346573D01*
X215573Y345837D01*
X216474Y345317D01*
X217480Y345047D01*
X218520D01*
X219526Y345317D01*
X219791Y345470D01*
X221793D01*
X221985Y345008D01*
X220494Y343517D01*
X220107Y342938D01*
X219971Y342255D01*
Y340530D01*
X218225Y338784D01*
X167612D01*
X167420Y339246D01*
X174262Y346088D01*
X174262Y346088D01*
X174414Y346315D01*
X174477Y346354D01*
X174563Y346375D01*
X175047Y346363D01*
X175573Y345837D01*
X176474Y345317D01*
X177480Y345047D01*
X178520D01*
X179526Y345317D01*
X180427Y345837D01*
X181163Y346573D01*
X181683Y347474D01*
X181953Y348480D01*
Y349520D01*
X181683Y350526D01*
X181163Y351427D01*
X180427Y352163D01*
X179526Y352683D01*
X178520Y352953D01*
X177480D01*
X176474Y352683D01*
X175573Y352163D01*
X175284Y351874D01*
X174784Y352081D01*
Y356000D01*
X238216D01*
Y352953D01*
D02*
G37*
G36*
X171216Y352081D02*
X170716Y351874D01*
X170427Y352163D01*
X169526Y352683D01*
X168520Y352953D01*
X167480D01*
X166474Y352683D01*
X165573Y352163D01*
X164837Y351427D01*
X164317Y350526D01*
X164047Y349520D01*
Y348480D01*
X164239Y347763D01*
X162876Y346399D01*
X162452Y346683D01*
X162871Y347695D01*
X163043Y349000D01*
Y351977D01*
X162871Y353282D01*
X162367Y354498D01*
X161599Y355500D01*
X161645Y355733D01*
X161756Y356000D01*
X171216D01*
Y352081D01*
D02*
G37*
G36*
X299957Y331021D02*
X299624Y330883D01*
X298657Y330237D01*
X297834Y329414D01*
X297188Y328447D01*
X296743Y327372D01*
X296516Y326231D01*
Y325068D01*
X296743Y323927D01*
X297188Y322852D01*
X297834Y321885D01*
X298657Y321062D01*
X299624Y320416D01*
X300699Y319971D01*
X301840Y319744D01*
X303003D01*
X304144Y319971D01*
X305219Y320416D01*
X306186Y321062D01*
X307008Y321885D01*
X307655Y322852D01*
X308100Y323927D01*
X308327Y325068D01*
Y326231D01*
X308100Y327372D01*
X307962Y327705D01*
X308386Y327988D01*
X333214Y303160D01*
Y293447D01*
X332752Y293256D01*
X332608Y293399D01*
X331640Y293958D01*
X330559Y294248D01*
X329441D01*
X328360Y293958D01*
X327392Y293399D01*
X326601Y292608D01*
X326042Y291640D01*
X325752Y290559D01*
Y289441D01*
X326042Y288360D01*
X326601Y287392D01*
X327392Y286601D01*
X328360Y286041D01*
X329441Y285752D01*
X330559D01*
X331640Y286041D01*
X332608Y286601D01*
X332752Y286744D01*
X333214Y286553D01*
Y283447D01*
X332752Y283256D01*
X332608Y283399D01*
X331640Y283959D01*
X330559Y284248D01*
X329441D01*
X328360Y283959D01*
X327392Y283399D01*
X327047Y283054D01*
X326403Y283118D01*
X326260Y283332D01*
X326260Y283332D01*
X324128Y285463D01*
X324248Y285752D01*
X324248D01*
Y294248D01*
X315752D01*
Y291784D01*
X305511D01*
X305301Y292149D01*
X304649Y292801D01*
X303851Y293262D01*
X302961Y293500D01*
X302039D01*
X301149Y293262D01*
X300351Y292801D01*
X299699Y292149D01*
X299238Y291351D01*
X299000Y290461D01*
Y289539D01*
X299113Y289118D01*
X298665Y288859D01*
X262936Y324587D01*
X263518Y325594D01*
X263658Y326119D01*
X264176D01*
X264317Y325594D01*
X264967Y324469D01*
X265886Y323549D01*
X267012Y322899D01*
X268267Y322563D01*
X269567D01*
X270823Y322899D01*
X271949Y323549D01*
X272868Y324469D01*
X273518Y325594D01*
X273658Y326119D01*
X274176D01*
X274317Y325594D01*
X274967Y324469D01*
X275886Y323549D01*
X277012Y322899D01*
X278267Y322563D01*
X279567D01*
X280823Y322899D01*
X281949Y323549D01*
X282868Y324469D01*
X283518Y325594D01*
X283659Y326119D01*
X284176D01*
X284317Y325594D01*
X284967Y324469D01*
X285886Y323549D01*
X287012Y322899D01*
X288267Y322563D01*
X289567D01*
X290823Y322899D01*
X291949Y323549D01*
X292868Y324469D01*
X293518Y325594D01*
X293854Y326850D01*
Y328150D01*
X293518Y329406D01*
X292868Y330531D01*
X292378Y331021D01*
X292586Y331521D01*
X299857D01*
X299957Y331021D01*
D02*
G37*
G36*
X298736Y273740D02*
X298736Y273740D01*
X299315Y273354D01*
X299998Y273218D01*
X299998Y273218D01*
X316557D01*
X316748Y272756D01*
X316601Y272608D01*
X316041Y271640D01*
X315752Y270559D01*
Y269441D01*
X316041Y268360D01*
X316601Y267392D01*
X316744Y267248D01*
X316553Y266786D01*
X315737D01*
X311262Y271262D01*
X310683Y271649D01*
X310000Y271784D01*
X298239D01*
X247848Y322175D01*
X248098Y322608D01*
X248267Y322563D01*
X249567D01*
X249840Y322636D01*
X298736Y273740D01*
D02*
G37*
G36*
X296238Y268738D02*
X296817Y268352D01*
X297500Y268216D01*
X297500Y268216D01*
X300146D01*
X300266Y267716D01*
X299699Y267149D01*
X299489Y266784D01*
X292156D01*
X236082Y322859D01*
X236389Y323259D01*
X237012Y322899D01*
X238267Y322563D01*
X239567D01*
X240823Y322899D01*
X241618Y323358D01*
X296238Y268738D01*
D02*
G37*
G36*
X254317Y325594D02*
X254967Y324469D01*
X255886Y323549D01*
X257012Y322899D01*
X258267Y322563D01*
X259567D01*
X259840Y322636D01*
X298740Y283736D01*
X298740Y283736D01*
X299319Y283350D01*
X300002Y283214D01*
X300141D01*
X300264Y282714D01*
X299699Y282149D01*
X299238Y281351D01*
X299000Y280461D01*
Y279539D01*
X299113Y279117D01*
X298665Y278859D01*
X252936Y324587D01*
X253518Y325594D01*
X253659Y326119D01*
X254176D01*
X254317Y325594D01*
D02*
G37*
G36*
X325998Y271478D02*
X325752Y270559D01*
Y269441D01*
X326042Y268360D01*
X326601Y267392D01*
X327392Y266601D01*
X328360Y266041D01*
X329441Y265752D01*
X330559D01*
X331640Y266041D01*
X332608Y266601D01*
X332752Y266744D01*
X333214Y266553D01*
Y263447D01*
X332752Y263256D01*
X332608Y263399D01*
X331640Y263959D01*
X330559Y264248D01*
X329441D01*
X328360Y263959D01*
X327392Y263399D01*
X327047Y263055D01*
X326404Y263118D01*
X326264Y263328D01*
X323328Y266264D01*
X323118Y266404D01*
X323055Y267047D01*
X323399Y267392D01*
X323958Y268360D01*
X324248Y269441D01*
Y270559D01*
X323958Y271640D01*
X323399Y272608D01*
X323252Y272756D01*
X323443Y273218D01*
X324259D01*
X325998Y271478D01*
D02*
G37*
G36*
X313736Y263740D02*
X314315Y263353D01*
X314998Y263218D01*
X316557D01*
X316748Y262756D01*
X316601Y262608D01*
X316125Y261784D01*
X304854D01*
X304734Y262284D01*
X305301Y262851D01*
X305762Y263649D01*
X306000Y264539D01*
Y265461D01*
X305762Y266351D01*
X305301Y267149D01*
X304734Y267716D01*
X304854Y268216D01*
X309261D01*
X313736Y263740D01*
D02*
G37*
G36*
X214317Y325594D02*
X214967Y324469D01*
X215886Y323549D01*
X217012Y322899D01*
X218267Y322563D01*
X219567D01*
X220823Y322899D01*
X221275Y323160D01*
X247000Y297435D01*
Y296539D01*
X247238Y295649D01*
X247699Y294851D01*
X248351Y294199D01*
X249149Y293739D01*
X250039Y293500D01*
X250961D01*
X251851Y293739D01*
X252649Y294199D01*
X253301Y294851D01*
X253762Y295649D01*
X254000Y296539D01*
Y297461D01*
X253762Y298351D01*
X253301Y299149D01*
X252649Y299801D01*
X251851Y300261D01*
X250961Y300500D01*
X250039D01*
X249205Y300277D01*
X227133Y322349D01*
X227391Y322798D01*
X228267Y322563D01*
X229567D01*
X230823Y322899D01*
X230932Y322962D01*
X290156Y263738D01*
X290156Y263738D01*
X290735Y263351D01*
X291417Y263216D01*
X291417Y263216D01*
X299489D01*
X299699Y262851D01*
X300266Y262284D01*
X300146Y261784D01*
X275239D01*
X212711Y324312D01*
X212868Y324469D01*
X213518Y325594D01*
X213658Y326119D01*
X214176D01*
X214317Y325594D01*
D02*
G37*
G36*
X204317D02*
X204967Y324469D01*
X205886Y323549D01*
X207012Y322899D01*
X208267Y322563D01*
X209466D01*
X209572Y322405D01*
X273238Y258738D01*
X273817Y258351D01*
X274500Y258216D01*
X316125D01*
X316601Y257392D01*
X317392Y256601D01*
X318360Y256042D01*
X319441Y255752D01*
X320559D01*
X321640Y256042D01*
X322608Y256601D01*
X322756Y256748D01*
X323218Y256557D01*
Y254998D01*
X323354Y254315D01*
X323740Y253736D01*
X325998Y251478D01*
X325752Y250559D01*
Y249441D01*
X326042Y248360D01*
X326601Y247392D01*
X327392Y246601D01*
X328360Y246041D01*
X329441Y245752D01*
X330559D01*
X331640Y246041D01*
X332608Y246601D01*
X332752Y246744D01*
X333214Y246553D01*
Y197237D01*
X255261Y119284D01*
X234000D01*
X233317Y119149D01*
X232738Y118762D01*
X232738Y118762D01*
X220918Y106941D01*
X220902Y106951D01*
X219646Y107287D01*
X218346D01*
X217091Y106951D01*
X215965Y106301D01*
X215045Y105382D01*
X214395Y104256D01*
X214255Y103731D01*
X213737D01*
X213597Y104256D01*
X212947Y105382D01*
X212027Y106301D01*
X210902Y106951D01*
X209646Y107287D01*
X208346D01*
X207090Y106951D01*
X205965Y106301D01*
X205046Y105382D01*
X204396Y104256D01*
X204255Y103731D01*
X203737D01*
X203597Y104256D01*
X202947Y105382D01*
X202027Y106301D01*
X200902Y106951D01*
X199646Y107287D01*
X198346D01*
X197090Y106951D01*
X196123Y106392D01*
X195816Y106792D01*
X237838Y148815D01*
X281099D01*
X281782Y148951D01*
X282361Y149337D01*
X325762Y192738D01*
X325762Y192738D01*
X326149Y193317D01*
X326284Y194000D01*
X326284Y194000D01*
Y230000D01*
X326284Y230000D01*
X326149Y230683D01*
X325762Y231262D01*
X325762Y231262D01*
X311762Y245262D01*
X311183Y245649D01*
X310500Y245784D01*
X274739D01*
X230118Y290405D01*
X230256Y290644D01*
X230440Y291330D01*
X230963Y291513D01*
X273738Y248738D01*
X274317Y248352D01*
X275000Y248216D01*
X275000Y248216D01*
X316125D01*
X316601Y247392D01*
X317392Y246601D01*
X318360Y246041D01*
X319441Y245752D01*
X320559D01*
X321640Y246041D01*
X322608Y246601D01*
X323399Y247392D01*
X323958Y248360D01*
X324248Y249441D01*
Y250559D01*
X323958Y251640D01*
X323399Y252608D01*
X322608Y253399D01*
X321640Y253959D01*
X320559Y254248D01*
X319441D01*
X318360Y253959D01*
X317392Y253399D01*
X316601Y252608D01*
X316125Y251784D01*
X275739D01*
X202936Y324587D01*
X203518Y325594D01*
X203659Y326119D01*
X204176D01*
X204317Y325594D01*
D02*
G37*
G36*
X237133Y251854D02*
Y232133D01*
X237012Y232101D01*
X235886Y231451D01*
X234967Y230531D01*
X234317Y229406D01*
X234176Y228881D01*
X233659D01*
X233518Y229406D01*
X232868Y230531D01*
X231949Y231451D01*
X230823Y232101D01*
X230702Y232133D01*
Y253583D01*
X230566Y254265D01*
X230179Y254844D01*
X230179Y254844D01*
X197237Y287787D01*
X197801Y288351D01*
X198261Y289149D01*
X198445Y289835D01*
X198969Y290018D01*
X237133Y251854D01*
D02*
G37*
G36*
X164776Y230201D02*
X164317Y229406D01*
X164176Y228881D01*
X163658D01*
X163518Y229406D01*
X162868Y230531D01*
X161949Y231451D01*
X160823Y232101D01*
X159567Y232437D01*
X158267D01*
X157012Y232101D01*
X155886Y231451D01*
X154967Y230531D01*
X154593Y229884D01*
X153939Y229752D01*
X153854Y229816D01*
Y232437D01*
X143980D01*
Y224196D01*
X143518Y224005D01*
X132719Y234804D01*
X132552Y261771D01*
X133013Y261963D01*
X164776Y230201D01*
D02*
G37*
G36*
X146488Y293488D02*
X146488Y293488D01*
X147067Y293102D01*
X147750Y292966D01*
X147750Y292966D01*
X191853D01*
X192094Y292466D01*
X191738Y291851D01*
X191500Y290961D01*
Y290039D01*
X191738Y289149D01*
X192199Y288351D01*
X192851Y287699D01*
X193218Y287487D01*
X193351Y286817D01*
X193738Y286238D01*
X227133Y252844D01*
Y232133D01*
X227012Y232101D01*
X225886Y231451D01*
X224967Y230531D01*
X224317Y229406D01*
X224176Y228881D01*
X223658D01*
X223518Y229406D01*
X222868Y230531D01*
X221949Y231451D01*
X220823Y232101D01*
X219567Y232437D01*
X218267D01*
X217012Y232101D01*
X215886Y231451D01*
X214967Y230531D01*
X214317Y229406D01*
X214176Y228881D01*
X213658D01*
X213518Y229406D01*
X212868Y230531D01*
X211949Y231451D01*
X210823Y232101D01*
X209567Y232437D01*
X208267D01*
X207012Y232101D01*
X205886Y231451D01*
X204967Y230531D01*
X204317Y229406D01*
X204176Y228881D01*
X203659D01*
X203518Y229406D01*
X202868Y230531D01*
X201949Y231451D01*
X200823Y232101D01*
X199567Y232437D01*
X198267D01*
X197012Y232101D01*
X195886Y231451D01*
X194967Y230531D01*
X194317Y229406D01*
X194176Y228881D01*
X193658D01*
X193518Y229406D01*
X192868Y230531D01*
X191949Y231451D01*
X190823Y232101D01*
X189567Y232437D01*
X188267D01*
X187012Y232101D01*
X185886Y231451D01*
X184967Y230531D01*
X184317Y229406D01*
X184176Y228881D01*
X183659D01*
X183518Y229406D01*
X182868Y230531D01*
X181949Y231451D01*
X180823Y232101D01*
X179567Y232437D01*
X178267D01*
X177012Y232101D01*
X175886Y231451D01*
X174967Y230531D01*
X174317Y229406D01*
X174176Y228881D01*
X173659D01*
X173518Y229406D01*
X172868Y230531D01*
X171949Y231451D01*
X170823Y232101D01*
X169567Y232437D01*
X168267D01*
X167730Y232293D01*
X135216Y264808D01*
X134800Y304522D01*
X135260Y304716D01*
X146488Y293488D01*
D02*
G37*
G36*
X164317Y225594D02*
X164967Y224469D01*
X165886Y223549D01*
X167012Y222899D01*
X168267Y222563D01*
X169567D01*
X170823Y222899D01*
X171588Y223341D01*
X173183Y221746D01*
X172992Y221284D01*
X146239D01*
X145422Y222101D01*
X145614Y222563D01*
X153854D01*
Y225184D01*
X153939Y225248D01*
X154593Y225116D01*
X154967Y224469D01*
X155886Y223549D01*
X157012Y222899D01*
X158267Y222563D01*
X159567D01*
X160823Y222899D01*
X161949Y223549D01*
X162868Y224469D01*
X163518Y225594D01*
X163658Y226119D01*
X164176D01*
X164317Y225594D01*
D02*
G37*
G36*
X185529Y205865D02*
X185046Y205382D01*
X184396Y204256D01*
X184255Y203731D01*
X183737D01*
X183597Y204256D01*
X182947Y205382D01*
X182027Y206301D01*
X180902Y206951D01*
X179646Y207287D01*
X179153D01*
X169187Y217254D01*
X169378Y217716D01*
X173678D01*
X185529Y205865D01*
D02*
G37*
G36*
X175529D02*
X175046Y205382D01*
X174396Y204256D01*
X174255Y203731D01*
X173737D01*
X173597Y204256D01*
X172947Y205382D01*
X172027Y206301D01*
X170902Y206951D01*
X169646Y207287D01*
X169153D01*
X161687Y214754D01*
X161878Y215216D01*
X166178D01*
X175529Y205865D01*
D02*
G37*
G36*
X234829Y150853D02*
X190918Y106941D01*
X190902Y106951D01*
X189646Y107287D01*
X188346D01*
X187091Y106951D01*
X186123Y106392D01*
X185816Y106792D01*
X230338Y151315D01*
X234638D01*
X234829Y150853D01*
D02*
G37*
%LPC*%
G36*
X228057Y463500D02*
X227136D01*
X226245Y463262D01*
X225447Y462801D01*
X224796Y462149D01*
X224335Y461351D01*
X224096Y460461D01*
Y459539D01*
X224335Y458649D01*
X224796Y457851D01*
X225447Y457199D01*
X226245Y456739D01*
X227136Y456500D01*
X228057D01*
X228947Y456739D01*
X229745Y457199D01*
X230397Y457851D01*
X230858Y458649D01*
X231096Y459539D01*
Y460461D01*
X230858Y461351D01*
X230397Y462149D01*
X229745Y462801D01*
X228947Y463262D01*
X228057Y463500D01*
D02*
G37*
G36*
X239600Y454555D02*
X239573D01*
Y451055D01*
X243073D01*
Y451082D01*
X242800Y452099D01*
X242274Y453011D01*
X241529Y453756D01*
X240617Y454283D01*
X239600Y454555D01*
D02*
G37*
G36*
X238573D02*
X238546D01*
X237529Y454283D01*
X236617Y453756D01*
X235872Y453011D01*
X235346Y452099D01*
X235073Y451082D01*
Y451055D01*
X238573D01*
Y454555D01*
D02*
G37*
G36*
X179600D02*
X179573D01*
Y451055D01*
X183073D01*
Y451082D01*
X182800Y452099D01*
X182274Y453011D01*
X181529Y453756D01*
X180617Y454283D01*
X179600Y454555D01*
D02*
G37*
G36*
X178573D02*
X178547D01*
X177529Y454283D01*
X176617Y453756D01*
X175872Y453011D01*
X175346Y452099D01*
X175073Y451082D01*
Y451055D01*
X178573D01*
Y454555D01*
D02*
G37*
G36*
X263073D02*
X255073D01*
Y446555D01*
X263073D01*
Y454555D01*
D02*
G37*
G36*
X249600D02*
X248547D01*
X247529Y454283D01*
X246617Y453756D01*
X245872Y453011D01*
X245346Y452099D01*
X245073Y451082D01*
Y450029D01*
X245346Y449011D01*
X245872Y448099D01*
X246617Y447354D01*
X247529Y446828D01*
X248547Y446555D01*
X249600D01*
X250617Y446828D01*
X251529Y447354D01*
X252274Y448099D01*
X252800Y449011D01*
X253073Y450029D01*
Y451082D01*
X252800Y452099D01*
X252274Y453011D01*
X251529Y453756D01*
X250617Y454283D01*
X249600Y454555D01*
D02*
G37*
G36*
X243073Y450055D02*
X239573D01*
Y446555D01*
X239600D01*
X240617Y446828D01*
X241529Y447354D01*
X242274Y448099D01*
X242800Y449011D01*
X243073Y450029D01*
Y450055D01*
D02*
G37*
G36*
X238573D02*
X235073D01*
Y450029D01*
X235346Y449011D01*
X235872Y448099D01*
X236617Y447354D01*
X237529Y446828D01*
X238546Y446555D01*
X238573D01*
Y450055D01*
D02*
G37*
G36*
X199600Y454555D02*
X198547D01*
X197529Y454283D01*
X196617Y453756D01*
X195872Y453011D01*
X195346Y452099D01*
X195073Y451082D01*
Y450029D01*
X195346Y449011D01*
X195872Y448099D01*
X196617Y447354D01*
X197529Y446828D01*
X198547Y446555D01*
X199600D01*
X200617Y446828D01*
X201529Y447354D01*
X202274Y448099D01*
X202800Y449011D01*
X203073Y450029D01*
Y451082D01*
X202800Y452099D01*
X202274Y453011D01*
X201529Y453756D01*
X200617Y454283D01*
X199600Y454555D01*
D02*
G37*
G36*
X189600D02*
X188547D01*
X187529Y454283D01*
X186617Y453756D01*
X185872Y453011D01*
X185346Y452099D01*
X185073Y451082D01*
Y450029D01*
X185346Y449011D01*
X185872Y448099D01*
X186617Y447354D01*
X187529Y446828D01*
X188547Y446555D01*
X189600D01*
X190617Y446828D01*
X191529Y447354D01*
X192274Y448099D01*
X192800Y449011D01*
X193073Y450029D01*
Y451082D01*
X192800Y452099D01*
X192274Y453011D01*
X191529Y453756D01*
X190617Y454283D01*
X189600Y454555D01*
D02*
G37*
G36*
X183073Y450055D02*
X179573D01*
Y446555D01*
X179600D01*
X180617Y446828D01*
X181529Y447354D01*
X182274Y448099D01*
X182800Y449011D01*
X183073Y450029D01*
Y450055D01*
D02*
G37*
G36*
X178573D02*
X175073D01*
Y450029D01*
X175346Y449011D01*
X175872Y448099D01*
X176617Y447354D01*
X177529Y446828D01*
X178547Y446555D01*
X178573D01*
Y450055D01*
D02*
G37*
G36*
X95936Y464500D02*
X94064D01*
X92229Y464135D01*
X90500Y463419D01*
X88944Y462379D01*
X87621Y461056D01*
X86581Y459500D01*
X85865Y457771D01*
X85500Y455936D01*
Y454064D01*
X85865Y452229D01*
X86581Y450500D01*
X87621Y448944D01*
X88944Y447621D01*
X90500Y446581D01*
X92229Y445865D01*
X94064Y445500D01*
X95936D01*
X97771Y445865D01*
X99500Y446581D01*
X101056Y447621D01*
X102379Y448944D01*
X103419Y450500D01*
X104135Y452229D01*
X104500Y454064D01*
Y455936D01*
X104135Y457771D01*
X103419Y459500D01*
X102379Y461056D01*
X101056Y462379D01*
X99500Y463419D01*
X97771Y464135D01*
X95936Y464500D01*
D02*
G37*
G36*
X108000Y425476D02*
X104666D01*
X104197Y425383D01*
X103800Y425117D01*
X103534Y424720D01*
X103441Y424251D01*
Y421000D01*
Y419305D01*
X108000D01*
Y425476D01*
D02*
G37*
G36*
X132250Y416805D02*
X128441D01*
Y416284D01*
X128534Y415816D01*
X128798Y415421D01*
X129194Y415156D01*
X129661Y415063D01*
X132250D01*
Y416805D01*
D02*
G37*
G36*
X113559D02*
X109750D01*
Y410634D01*
X112334D01*
X112803Y410727D01*
X113200Y410993D01*
X113466Y411390D01*
X113559Y411859D01*
Y416805D01*
D02*
G37*
G36*
X107250D02*
X103441D01*
Y411859D01*
X103534Y411390D01*
X103800Y410993D01*
X104197Y410727D01*
X104666Y410634D01*
X107250D01*
Y416805D01*
D02*
G37*
G36*
X122574Y397574D02*
X121249D01*
Y396249D01*
X122574D01*
Y397574D01*
D02*
G37*
G36*
X118749D02*
X117425D01*
Y396249D01*
X118749D01*
Y397574D01*
D02*
G37*
G36*
X122574Y393749D02*
X121249D01*
Y392425D01*
X122574D01*
Y393749D01*
D02*
G37*
G36*
X118749D02*
X117425D01*
Y392425D01*
X118749D01*
Y393749D01*
D02*
G37*
G36*
X109012Y397831D02*
X103902D01*
Y392169D01*
X109012D01*
Y393215D01*
X111519D01*
Y392425D01*
X116669D01*
Y397574D01*
X111519D01*
Y396784D01*
X109012D01*
Y397831D01*
D02*
G37*
G36*
X92961Y398500D02*
X92039D01*
X91149Y398261D01*
X90351Y397801D01*
X89699Y397149D01*
X89239Y396351D01*
X89000Y395461D01*
Y394539D01*
X89239Y393649D01*
X89699Y392851D01*
X90351Y392199D01*
X91149Y391739D01*
X92039Y391500D01*
X92961D01*
X93851Y391739D01*
X94649Y392199D01*
X95301Y392851D01*
X95511Y393216D01*
X97445D01*
Y392169D01*
X102555D01*
Y397831D01*
X97445D01*
Y396784D01*
X95511D01*
X95301Y397149D01*
X94649Y397801D01*
X93851Y398261D01*
X92961Y398500D01*
D02*
G37*
G36*
X106250Y374674D02*
Y371250D01*
X109674D01*
X109509Y371868D01*
X108872Y372971D01*
X107971Y373872D01*
X106868Y374509D01*
X106250Y374674D01*
D02*
G37*
G36*
X103750D02*
X103132Y374509D01*
X102029Y373872D01*
X101128Y372971D01*
X100491Y371868D01*
X100326Y371250D01*
X103750D01*
Y374674D01*
D02*
G37*
G36*
X109674Y368750D02*
X106250D01*
Y365326D01*
X106868Y365491D01*
X107971Y366128D01*
X108872Y367029D01*
X109509Y368132D01*
X109674Y368750D01*
D02*
G37*
G36*
X103750D02*
X100326D01*
X100491Y368132D01*
X101128Y367029D01*
X102029Y366128D01*
X103132Y365491D01*
X103750Y365326D01*
Y368750D01*
D02*
G37*
G36*
X132685Y366527D02*
X131750D01*
Y365254D01*
X134061D01*
X133979Y365662D01*
X133676Y366117D01*
X133221Y366420D01*
X132685Y366527D01*
D02*
G37*
G36*
X129250D02*
X128315D01*
X127779Y366420D01*
X127324Y366117D01*
X127021Y365662D01*
X126939Y365254D01*
X129250D01*
Y366527D01*
D02*
G37*
G36*
X134061Y362754D02*
X131750D01*
Y361481D01*
X132685D01*
X133221Y361588D01*
X133676Y361891D01*
X133979Y362346D01*
X134061Y362754D01*
D02*
G37*
G36*
X129250D02*
X126939D01*
X127021Y362346D01*
X127324Y361891D01*
X127779Y361588D01*
X128315Y361481D01*
X129250D01*
Y362754D01*
D02*
G37*
G36*
X276250Y352757D02*
Y350250D01*
X278757D01*
X278683Y350526D01*
X278163Y351427D01*
X277427Y352163D01*
X276526Y352683D01*
X276250Y352757D01*
D02*
G37*
G36*
X273750Y352757D02*
X273474Y352683D01*
X272573Y352163D01*
X271837Y351427D01*
X271317Y350526D01*
X271243Y350250D01*
X273750D01*
Y352757D01*
D02*
G37*
G36*
X105637Y355153D02*
X104363D01*
X103132Y354824D01*
X102029Y354187D01*
X101128Y353286D01*
X100491Y352183D01*
X100161Y350952D01*
Y349678D01*
X100491Y348447D01*
X101128Y347344D01*
X102029Y346443D01*
X103132Y345806D01*
X104363Y345476D01*
X105637D01*
X106868Y345806D01*
X107971Y346443D01*
X108872Y347344D01*
X109509Y348447D01*
X109839Y349678D01*
Y350952D01*
X109509Y352183D01*
X108872Y353286D01*
X107971Y354187D01*
X106868Y354824D01*
X105637Y355153D01*
D02*
G37*
G36*
X278757Y347750D02*
X276250D01*
Y345243D01*
X276526Y345317D01*
X277427Y345837D01*
X278163Y346573D01*
X278683Y347474D01*
X278757Y347750D01*
D02*
G37*
G36*
X273750D02*
X271243D01*
X271317Y347474D01*
X271837Y346573D01*
X272573Y345837D01*
X273474Y345317D01*
X273750Y345243D01*
Y347750D01*
D02*
G37*
G36*
X305520Y352953D02*
X304480D01*
X303474Y352683D01*
X302573Y352163D01*
X301837Y351427D01*
X301317Y350526D01*
X301047Y349520D01*
Y348480D01*
X301317Y347474D01*
X301837Y346573D01*
X302573Y345837D01*
X303474Y345317D01*
X304480Y345047D01*
X305520D01*
X306526Y345317D01*
X307427Y345837D01*
X308163Y346573D01*
X308683Y347474D01*
X308953Y348480D01*
Y349520D01*
X308683Y350526D01*
X308163Y351427D01*
X307427Y352163D01*
X306526Y352683D01*
X305520Y352953D01*
D02*
G37*
G36*
X295520D02*
X294480D01*
X293474Y352683D01*
X292573Y352163D01*
X291837Y351427D01*
X291317Y350526D01*
X291047Y349520D01*
Y348480D01*
X291317Y347474D01*
X291837Y346573D01*
X292573Y345837D01*
X293474Y345317D01*
X294480Y345047D01*
X295520D01*
X296526Y345317D01*
X297427Y345837D01*
X298163Y346573D01*
X298683Y347474D01*
X298953Y348480D01*
Y349520D01*
X298683Y350526D01*
X298163Y351427D01*
X297427Y352163D01*
X296526Y352683D01*
X295520Y352953D01*
D02*
G37*
G36*
X285520D02*
X284480D01*
X283474Y352683D01*
X282573Y352163D01*
X281837Y351427D01*
X281317Y350526D01*
X281047Y349520D01*
Y348480D01*
X281317Y347474D01*
X281837Y346573D01*
X282573Y345837D01*
X283474Y345317D01*
X284480Y345047D01*
X285520D01*
X286526Y345317D01*
X287427Y345837D01*
X288163Y346573D01*
X288683Y347474D01*
X288953Y348480D01*
Y349520D01*
X288683Y350526D01*
X288163Y351427D01*
X287427Y352163D01*
X286526Y352683D01*
X285520Y352953D01*
D02*
G37*
G36*
X265520D02*
X264480D01*
X263474Y352683D01*
X262573Y352163D01*
X261837Y351427D01*
X261317Y350526D01*
X261047Y349520D01*
Y348480D01*
X261317Y347474D01*
X261837Y346573D01*
X262573Y345837D01*
X263474Y345317D01*
X264480Y345047D01*
X265520D01*
X266526Y345317D01*
X267427Y345837D01*
X268163Y346573D01*
X268683Y347474D01*
X268953Y348480D01*
Y349520D01*
X268683Y350526D01*
X268163Y351427D01*
X267427Y352163D01*
X266526Y352683D01*
X265520Y352953D01*
D02*
G37*
G36*
X240789Y336250D02*
X238750D01*
Y334211D01*
X238851Y334239D01*
X239649Y334699D01*
X240301Y335351D01*
X240761Y336149D01*
X240789Y336250D01*
D02*
G37*
G36*
X236250D02*
X234211D01*
X234239Y336149D01*
X234699Y335351D01*
X235351Y334699D01*
X236149Y334239D01*
X236250Y334211D01*
Y336250D01*
D02*
G37*
G36*
X147667Y326250D02*
X144141D01*
X144317Y325594D01*
X144967Y324469D01*
X145886Y323549D01*
X147012Y322899D01*
X147667Y322724D01*
Y326250D01*
D02*
G37*
G36*
X303003Y235059D02*
X301840D01*
X300699Y234832D01*
X299624Y234387D01*
X298657Y233741D01*
X297834Y232918D01*
X297188Y231951D01*
X296743Y230876D01*
X296516Y229735D01*
Y228572D01*
X296743Y227431D01*
X297188Y226356D01*
X297834Y225389D01*
X298657Y224566D01*
X299624Y223920D01*
X300699Y223475D01*
X301840Y223248D01*
X303003D01*
X304144Y223475D01*
X305219Y223920D01*
X306186Y224566D01*
X307008Y225389D01*
X307655Y226356D01*
X308100Y227431D01*
X308327Y228572D01*
Y229735D01*
X308100Y230876D01*
X307655Y231951D01*
X307008Y232918D01*
X306186Y233741D01*
X305219Y234387D01*
X304144Y234832D01*
X303003Y235059D01*
D02*
G37*
G36*
X118160D02*
X116997D01*
X115856Y234832D01*
X114781Y234387D01*
X113814Y233741D01*
X112992Y232918D01*
X112345Y231951D01*
X111900Y230876D01*
X111673Y229735D01*
Y228572D01*
X111900Y227431D01*
X112345Y226356D01*
X112992Y225389D01*
X113814Y224566D01*
X114781Y223920D01*
X115856Y223475D01*
X116997Y223248D01*
X118160D01*
X119301Y223475D01*
X120376Y223920D01*
X121343Y224566D01*
X122166Y225389D01*
X122812Y226356D01*
X123257Y227431D01*
X123484Y228572D01*
Y229735D01*
X123257Y230876D01*
X122812Y231951D01*
X122166Y232918D01*
X121343Y233741D01*
X120376Y234387D01*
X119301Y234832D01*
X118160Y235059D01*
D02*
G37*
G36*
X201075Y217969D02*
X199750D01*
Y216250D01*
X201075D01*
Y217969D01*
D02*
G37*
G36*
X197250D02*
X195925D01*
Y216250D01*
X197250D01*
Y217969D01*
D02*
G37*
G36*
X265980D02*
X264655D01*
Y216250D01*
X265980D01*
Y217969D01*
D02*
G37*
G36*
X245528D02*
X244203D01*
Y216250D01*
X245528D01*
Y217969D01*
D02*
G37*
G36*
X222122D02*
X220797D01*
Y216250D01*
X222122D01*
Y217969D01*
D02*
G37*
G36*
X218297D02*
X216972D01*
Y216250D01*
X218297D01*
Y217969D01*
D02*
G37*
G36*
X262156D02*
X260831D01*
Y216250D01*
X262156D01*
Y217969D01*
D02*
G37*
G36*
X241703D02*
X240378D01*
Y216250D01*
X241703D01*
Y217969D01*
D02*
G37*
G36*
X265980Y213750D02*
X264655D01*
Y212032D01*
X265980D01*
Y213750D01*
D02*
G37*
G36*
X262156D02*
X260831D01*
Y212032D01*
X262156D01*
Y213750D01*
D02*
G37*
G36*
X245528D02*
X244203D01*
Y212032D01*
X245528D01*
Y213750D01*
D02*
G37*
G36*
X241703D02*
X240378D01*
Y212032D01*
X241703D01*
Y213750D01*
D02*
G37*
G36*
X222122D02*
X220797D01*
Y212032D01*
X222122D01*
Y213750D01*
D02*
G37*
G36*
X218297D02*
X216972D01*
Y212032D01*
X218297D01*
Y213750D01*
D02*
G37*
G36*
X201075Y213750D02*
X199750D01*
Y212032D01*
X201075D01*
Y213750D01*
D02*
G37*
G36*
X197250D02*
X195925D01*
Y212032D01*
X197250D01*
Y213750D01*
D02*
G37*
G36*
X147746Y207127D02*
X147090Y206951D01*
X145965Y206301D01*
X145045Y205382D01*
X144395Y204256D01*
X144220Y203600D01*
X147746D01*
Y207127D01*
D02*
G37*
G36*
Y201100D02*
X144220D01*
X144395Y200445D01*
X145045Y199319D01*
X145965Y198400D01*
X147090Y197750D01*
X147746Y197574D01*
Y201100D01*
D02*
G37*
G36*
X303082Y206405D02*
X301918D01*
X300777Y206179D01*
X299703Y205733D01*
X298735Y205087D01*
X297913Y204264D01*
X297267Y203297D01*
X296821Y202223D01*
X296595Y201082D01*
Y199918D01*
X296821Y198777D01*
X297267Y197703D01*
X297913Y196736D01*
X298735Y195913D01*
X299703Y195267D01*
X300777Y194821D01*
X301918Y194595D01*
X303082D01*
X304223Y194821D01*
X305297Y195267D01*
X306264Y195913D01*
X307087Y196736D01*
X307733Y197703D01*
X308179Y198777D01*
X308405Y199918D01*
Y201082D01*
X308179Y202223D01*
X307733Y203297D01*
X307087Y204264D01*
X306264Y205087D01*
X305297Y205733D01*
X304223Y206179D01*
X303082Y206405D01*
D02*
G37*
G36*
X118239D02*
X117076D01*
X115935Y206179D01*
X114860Y205733D01*
X113893Y205087D01*
X113070Y204264D01*
X112424Y203297D01*
X111979Y202223D01*
X111752Y201082D01*
Y199918D01*
X111979Y198777D01*
X112424Y197703D01*
X113070Y196736D01*
X113893Y195913D01*
X114860Y195267D01*
X115935Y194821D01*
X117076Y194595D01*
X118239D01*
X119380Y194821D01*
X120455Y195267D01*
X121422Y195913D01*
X122245Y196736D01*
X122891Y197703D01*
X123336Y198777D01*
X123563Y199918D01*
Y201082D01*
X123336Y202223D01*
X122891Y203297D01*
X122245Y204264D01*
X121422Y205087D01*
X120455Y205733D01*
X119380Y206179D01*
X118239Y206405D01*
D02*
G37*
G36*
X303082Y109909D02*
X301918D01*
X300777Y109683D01*
X299703Y109237D01*
X298735Y108591D01*
X297913Y107768D01*
X297267Y106801D01*
X296821Y105727D01*
X296595Y104586D01*
Y103422D01*
X296821Y102281D01*
X297267Y101207D01*
X297913Y100239D01*
X298735Y99417D01*
X299703Y98770D01*
X300777Y98325D01*
X301918Y98098D01*
X303082D01*
X304223Y98325D01*
X305297Y98770D01*
X306264Y99417D01*
X307087Y100239D01*
X307733Y101207D01*
X308179Y102281D01*
X308405Y103422D01*
Y104586D01*
X308179Y105727D01*
X307733Y106801D01*
X307087Y107768D01*
X306264Y108591D01*
X305297Y109237D01*
X304223Y109683D01*
X303082Y109909D01*
D02*
G37*
G36*
X118239D02*
X117076D01*
X115935Y109683D01*
X114860Y109237D01*
X113893Y108591D01*
X113070Y107768D01*
X112424Y106801D01*
X111979Y105727D01*
X111752Y104586D01*
Y103422D01*
X111979Y102281D01*
X112424Y101207D01*
X113070Y100239D01*
X113893Y99417D01*
X114860Y98770D01*
X115935Y98325D01*
X117076Y98098D01*
X118239D01*
X119380Y98325D01*
X120455Y98770D01*
X121422Y99417D01*
X122245Y100239D01*
X122891Y101207D01*
X123336Y102281D01*
X123563Y103422D01*
Y104586D01*
X123336Y105727D01*
X122891Y106801D01*
X122245Y107768D01*
X121422Y108591D01*
X120455Y109237D01*
X119380Y109683D01*
X118239Y109909D01*
D02*
G37*
G36*
X330936Y112000D02*
X329064D01*
X327229Y111635D01*
X325500Y110919D01*
X323944Y109879D01*
X322621Y108556D01*
X321581Y107000D01*
X320865Y105271D01*
X320500Y103436D01*
Y101564D01*
X320865Y99729D01*
X321581Y98000D01*
X322621Y96444D01*
X323944Y95121D01*
X325500Y94081D01*
X327229Y93365D01*
X329064Y93000D01*
X330936D01*
X332771Y93365D01*
X334500Y94081D01*
X336056Y95121D01*
X337379Y96444D01*
X338419Y98000D01*
X339135Y99729D01*
X339500Y101564D01*
Y103436D01*
X339135Y105271D01*
X338419Y107000D01*
X337379Y108556D01*
X336056Y109879D01*
X334500Y110919D01*
X332771Y111635D01*
X330936Y112000D01*
D02*
G37*
G36*
X95936D02*
X94064D01*
X92229Y111635D01*
X90500Y110919D01*
X88944Y109879D01*
X87621Y108556D01*
X86581Y107000D01*
X85865Y105271D01*
X85500Y103436D01*
Y101564D01*
X85865Y99729D01*
X86581Y98000D01*
X87621Y96444D01*
X88944Y95121D01*
X90500Y94081D01*
X92229Y93365D01*
X94064Y93000D01*
X95936D01*
X97771Y93365D01*
X99500Y94081D01*
X101056Y95121D01*
X102379Y96444D01*
X103419Y98000D01*
X104135Y99729D01*
X104500Y101564D01*
Y103436D01*
X104135Y105271D01*
X103419Y107000D01*
X102379Y108556D01*
X101056Y109879D01*
X99500Y110919D01*
X97771Y111635D01*
X95936Y112000D01*
D02*
G37*
G36*
X330936Y464500D02*
X329064D01*
X327229Y464135D01*
X325500Y463419D01*
X323944Y462379D01*
X322621Y461056D01*
X321581Y459500D01*
X320865Y457771D01*
X320500Y455936D01*
Y454064D01*
X320865Y452229D01*
X321581Y450500D01*
X322621Y448944D01*
X323944Y447621D01*
X325500Y446581D01*
X327229Y445865D01*
X329064Y445500D01*
X330936D01*
X332771Y445865D01*
X334500Y446581D01*
X336056Y447621D01*
X337379Y448944D01*
X338419Y450500D01*
X339135Y452229D01*
X339500Y454064D01*
Y455936D01*
X339135Y457771D01*
X338419Y459500D01*
X337379Y461056D01*
X336056Y462379D01*
X334500Y463419D01*
X332771Y464135D01*
X330936Y464500D01*
D02*
G37*
G36*
X260989Y437500D02*
X254011D01*
X254239Y436649D01*
X254699Y435851D01*
X255351Y435199D01*
X255716Y434989D01*
Y431315D01*
X255614D01*
Y429654D01*
X257500D01*
X259386D01*
Y431315D01*
X259284D01*
Y434989D01*
X259649Y435199D01*
X260301Y435851D01*
X260761Y436649D01*
X260989Y437500D01*
D02*
G37*
G36*
X259386Y428653D02*
X258000D01*
Y426992D01*
X259386D01*
Y428653D01*
D02*
G37*
G36*
X257000D02*
X255614D01*
Y426992D01*
X257000D01*
Y428653D01*
D02*
G37*
G36*
X295650Y434937D02*
X294350D01*
X293094Y434601D01*
X291969Y433951D01*
X291049Y433031D01*
X290399Y431906D01*
X290063Y430650D01*
Y429350D01*
X290399Y428094D01*
X291049Y426969D01*
X291969Y426049D01*
X293094Y425399D01*
X294350Y425063D01*
X295650D01*
X296906Y425399D01*
X298031Y426049D01*
X298951Y426969D01*
X299601Y428094D01*
X299937Y429350D01*
Y430650D01*
X299601Y431906D01*
X298951Y433031D01*
X298031Y433951D01*
X296906Y434601D01*
X295650Y434937D01*
D02*
G37*
G36*
X277150Y422937D02*
X275850D01*
X274594Y422601D01*
X273469Y421951D01*
X272549Y421031D01*
X271899Y419906D01*
X271563Y418650D01*
Y417350D01*
X271899Y416094D01*
X272549Y414969D01*
X273469Y414049D01*
X274594Y413399D01*
X275850Y413063D01*
X277150D01*
X278406Y413399D01*
X279531Y414049D01*
X280451Y414969D01*
X281101Y416094D01*
X281437Y417350D01*
Y418650D01*
X281101Y419906D01*
X280451Y421031D01*
X279531Y421951D01*
X278406Y422601D01*
X277150Y422937D01*
D02*
G37*
G36*
X299937Y410937D02*
X295500D01*
Y406500D01*
X299937D01*
Y410937D01*
D02*
G37*
G36*
X294500D02*
X290063D01*
Y406500D01*
X294500D01*
Y410937D01*
D02*
G37*
G36*
X299937Y405500D02*
X295500D01*
Y401063D01*
X299937D01*
Y405500D01*
D02*
G37*
G36*
X294500D02*
X290063D01*
Y401063D01*
X294500D01*
Y405500D01*
D02*
G37*
G36*
X327791Y402870D02*
X325421D01*
Y400500D01*
X327791D01*
Y402870D01*
D02*
G37*
G36*
X324421D02*
X317130D01*
Y399653D01*
X314963Y397486D01*
X314649Y397801D01*
X313851Y398261D01*
X312961Y398500D01*
X312039D01*
X311149Y398261D01*
X310351Y397801D01*
X309699Y397149D01*
X309489Y396784D01*
X306915D01*
X306686Y397126D01*
X306248Y397419D01*
X305731Y397522D01*
X303781D01*
X303264Y397419D01*
X302826Y397126D01*
X302533Y396688D01*
X302430Y396171D01*
Y393829D01*
X302533Y393312D01*
X302826Y392874D01*
X303264Y392581D01*
X303781Y392478D01*
X305731D01*
X306248Y392581D01*
X306686Y392874D01*
X306915Y393216D01*
X309489D01*
X309699Y392851D01*
X310351Y392199D01*
X311149Y391739D01*
X312039Y391500D01*
X312961D01*
X313851Y391739D01*
X314649Y392199D01*
X315298Y392848D01*
X317162Y390984D01*
X317169Y390948D01*
Y387130D01*
X324461D01*
Y390000D01*
Y392870D01*
X320276D01*
X320181Y393012D01*
X317858Y395335D01*
X319653Y397130D01*
X324421D01*
Y400000D01*
Y402870D01*
D02*
G37*
G36*
X327791Y399500D02*
X325421D01*
Y397130D01*
X327791D01*
Y399500D01*
D02*
G37*
G36*
X300219Y397522D02*
X299744D01*
Y395500D01*
X301570D01*
Y396171D01*
X301467Y396688D01*
X301174Y397126D01*
X300736Y397419D01*
X300219Y397522D01*
D02*
G37*
G36*
X298744D02*
X298269D01*
X297752Y397419D01*
X297314Y397126D01*
X297021Y396688D01*
X296918Y396171D01*
Y395500D01*
X298744D01*
Y397522D01*
D02*
G37*
G36*
X327831Y392870D02*
X325461D01*
Y390500D01*
X327831D01*
Y392870D01*
D02*
G37*
G36*
Y389500D02*
X325461D01*
Y387130D01*
X327831D01*
Y389500D01*
D02*
G37*
G36*
X221053Y437543D02*
X220202Y437315D01*
X219404Y436854D01*
X218753Y436202D01*
X218292Y435404D01*
X218064Y434553D01*
X221053D01*
Y437543D01*
D02*
G37*
G36*
X152575Y397122D02*
X150500D01*
Y395048D01*
X152575D01*
Y397122D01*
D02*
G37*
G36*
X149500D02*
X147425D01*
Y395048D01*
X149500D01*
Y397122D01*
D02*
G37*
G36*
X165500Y434500D02*
X162511D01*
X162739Y433649D01*
X163199Y432851D01*
X163851Y432199D01*
X164649Y431739D01*
X165500Y431510D01*
Y434500D01*
D02*
G37*
G36*
X215500Y395989D02*
Y393000D01*
X218490D01*
X218262Y393851D01*
X217801Y394649D01*
X217149Y395301D01*
X216351Y395761D01*
X215500Y395989D01*
D02*
G37*
G36*
X214500D02*
X213649Y395761D01*
X212851Y395301D01*
X212199Y394649D01*
X211738Y393851D01*
X211510Y393000D01*
X214500D01*
Y395989D01*
D02*
G37*
G36*
X218490Y392000D02*
X215500D01*
Y389011D01*
X216351Y389239D01*
X217149Y389699D01*
X217801Y390351D01*
X218262Y391149D01*
X218490Y392000D01*
D02*
G37*
G36*
X214500D02*
X211510D01*
X211738Y391149D01*
X212199Y390351D01*
X212851Y389699D01*
X213649Y389239D01*
X214500Y389011D01*
Y392000D01*
D02*
G37*
G36*
X229500Y383489D02*
X228649Y383261D01*
X227851Y382801D01*
X227199Y382149D01*
X226739Y381351D01*
X226511Y380500D01*
X229500D01*
Y383489D01*
D02*
G37*
G36*
Y379500D02*
X226511D01*
X226739Y378649D01*
X227199Y377851D01*
X227851Y377199D01*
X228649Y376739D01*
X229500Y376511D01*
Y379500D01*
D02*
G37*
G36*
X259386Y406354D02*
X255614D01*
Y402032D01*
X255716D01*
Y400511D01*
X255351Y400301D01*
X254699Y399649D01*
X254239Y398851D01*
X254000Y397961D01*
Y397039D01*
X254239Y396149D01*
X254699Y395351D01*
X255351Y394699D01*
X256149Y394238D01*
X257039Y394000D01*
X257961D01*
X258851Y394238D01*
X259649Y394699D01*
X260301Y395351D01*
X260761Y396149D01*
X261000Y397039D01*
Y397961D01*
X260761Y398851D01*
X260301Y399649D01*
X259649Y400301D01*
X259284Y400511D01*
Y402032D01*
X259386D01*
Y406354D01*
D02*
G37*
G36*
X268000Y395989D02*
Y393000D01*
X270989D01*
X270761Y393851D01*
X270301Y394649D01*
X269649Y395301D01*
X268851Y395761D01*
X268000Y395989D01*
D02*
G37*
G36*
X267000D02*
X266149Y395761D01*
X265351Y395301D01*
X264699Y394649D01*
X264239Y393851D01*
X264011Y393000D01*
X267000D01*
Y395989D01*
D02*
G37*
G36*
X270989Y392000D02*
X268000D01*
Y389011D01*
X268851Y389239D01*
X269649Y389699D01*
X270301Y390351D01*
X270761Y391149D01*
X270989Y392000D01*
D02*
G37*
G36*
X267000D02*
X264011D01*
X264239Y391149D01*
X264699Y390351D01*
X265351Y389699D01*
X266149Y389239D01*
X267000Y389011D01*
Y392000D01*
D02*
G37*
G36*
X248000Y383489D02*
Y380500D01*
X250990D01*
X250762Y381351D01*
X250301Y382149D01*
X249649Y382801D01*
X248851Y383261D01*
X248000Y383489D01*
D02*
G37*
G36*
X250990Y379500D02*
X248000D01*
Y376511D01*
X248851Y376739D01*
X249649Y377199D01*
X250301Y377851D01*
X250762Y378649D01*
X250990Y379500D01*
D02*
G37*
G36*
X250520Y372953D02*
X250500D01*
Y369500D01*
X253953D01*
Y369520D01*
X253683Y370526D01*
X253163Y371427D01*
X252427Y372163D01*
X251526Y372683D01*
X250520Y372953D01*
D02*
G37*
G36*
X249500D02*
X249480D01*
X248474Y372683D01*
X247573Y372163D01*
X246837Y371427D01*
X246317Y370526D01*
X246047Y369520D01*
Y369500D01*
X249500D01*
Y372953D01*
D02*
G37*
G36*
X189250Y352757D02*
Y350250D01*
X191757D01*
X191683Y350526D01*
X191163Y351427D01*
X190427Y352163D01*
X189526Y352683D01*
X189250Y352757D01*
D02*
G37*
G36*
X186750Y352757D02*
X186474Y352683D01*
X185573Y352163D01*
X184837Y351427D01*
X184317Y350526D01*
X184243Y350250D01*
X186750D01*
Y352757D01*
D02*
G37*
G36*
X191757Y347750D02*
X189250D01*
Y345243D01*
X189526Y345317D01*
X190427Y345837D01*
X191163Y346573D01*
X191683Y347474D01*
X191757Y347750D01*
D02*
G37*
G36*
X186750D02*
X184243D01*
X184317Y347474D01*
X184837Y346573D01*
X185573Y345837D01*
X186474Y345317D01*
X186750Y345243D01*
Y347750D01*
D02*
G37*
G36*
X208520Y352953D02*
X207480D01*
X206474Y352683D01*
X205573Y352163D01*
X204837Y351427D01*
X204317Y350526D01*
X204047Y349520D01*
Y348480D01*
X204317Y347474D01*
X204837Y346573D01*
X205573Y345837D01*
X206474Y345317D01*
X207480Y345047D01*
X208520D01*
X209526Y345317D01*
X210427Y345837D01*
X211163Y346573D01*
X211683Y347474D01*
X211953Y348480D01*
Y349520D01*
X211683Y350526D01*
X211163Y351427D01*
X210427Y352163D01*
X209526Y352683D01*
X208520Y352953D01*
D02*
G37*
G36*
X198520D02*
X197480D01*
X196474Y352683D01*
X195573Y352163D01*
X194837Y351427D01*
X194317Y350526D01*
X194047Y349520D01*
Y348480D01*
X194317Y347474D01*
X194837Y346573D01*
X195573Y345837D01*
X196474Y345317D01*
X197480Y345047D01*
X198520D01*
X199526Y345317D01*
X200427Y345837D01*
X201163Y346573D01*
X201683Y347474D01*
X201953Y348480D01*
Y349520D01*
X201683Y350526D01*
X201163Y351427D01*
X200427Y352163D01*
X199526Y352683D01*
X198520Y352953D01*
D02*
G37*
%LPD*%
D16*
X304756Y395000D02*
D03*
X299244D02*
D03*
D17*
X108500Y418055D02*
D03*
D18*
X133500Y427110D02*
D03*
Y418055D02*
D03*
Y409000D02*
D03*
D19*
X324921Y400000D02*
D03*
X320000D02*
D03*
X324961Y390000D02*
D03*
X320039D02*
D03*
D20*
X257500Y215000D02*
D03*
X263405D02*
D03*
X237047D02*
D03*
X242953D02*
D03*
X225453D02*
D03*
X219547D02*
D03*
X192595D02*
D03*
X198500D02*
D03*
D21*
X150000Y394548D02*
D03*
Y400453D02*
D03*
D22*
X195000Y429153D02*
D03*
Y420847D02*
D03*
X172500Y429153D02*
D03*
Y420847D02*
D03*
X257500Y429153D02*
D03*
Y420847D02*
D03*
X225000Y429153D02*
D03*
Y420847D02*
D03*
X257500Y412500D02*
D03*
Y404193D02*
D03*
X225000Y411654D02*
D03*
Y403346D02*
D03*
X172500Y411654D02*
D03*
Y403346D02*
D03*
X195000Y411654D02*
D03*
Y403346D02*
D03*
D23*
X100000Y395000D02*
D03*
X106457D02*
D03*
D24*
X150000Y410807D02*
D03*
Y417500D02*
D03*
D25*
X130500Y356957D02*
D03*
Y364004D02*
D03*
D26*
X114094Y394999D02*
D03*
X119999D02*
D03*
D50*
X135102Y323495D02*
G03*
X135102Y327804I-17524J2155D01*
G01*
X132500Y322995D02*
G03*
X132500Y328304I-14921J2654D01*
G01*
X130000Y323226D02*
G03*
X130000Y328073I-12421J2424D01*
G01*
X127500Y323481D02*
G03*
X127500Y327818I-9921J2169D01*
G01*
X125000Y323770D02*
G03*
X125000Y327529I-7421J1879D01*
G01*
X221553Y434053D02*
X222500D01*
X136893Y343000D02*
X162000D01*
X168000Y349000D01*
X130000Y332571D02*
X136929Y339500D01*
X165151D02*
X173000Y347349D01*
X136929Y339500D02*
X165151D01*
X218965Y337000D02*
X221755Y339791D01*
X220000Y334500D02*
X225995Y340495D01*
X135000Y330500D02*
X139000Y334500D01*
X132500Y331536D02*
X137964Y337000D01*
X218965D01*
X139000Y334500D02*
X220000D01*
X172500Y429153D02*
Y429429D01*
X147947Y389553D02*
Y390500D01*
X149175Y391729D01*
Y393723D01*
X150000Y394548D01*
X231572Y342500D02*
X237500D01*
X240000Y345000D01*
X229327Y344745D02*
X231572Y342500D01*
X240000Y345000D02*
Y360868D01*
X224245Y344745D02*
X229327D01*
X221755Y342255D02*
X224245Y344745D01*
X234250Y366618D02*
X240000Y360868D01*
X221755Y339791D02*
Y342255D01*
X225995Y340495D02*
X226005D01*
X232500Y392621D02*
X234250Y390871D01*
Y366618D02*
Y390871D01*
X232500Y392621D02*
Y393500D01*
X257500Y429153D02*
Y438000D01*
X270000Y342500D02*
X279195Y333305D01*
X305592D01*
X133500Y427110D02*
X133782D01*
X135000Y428329D01*
X315629Y368129D02*
Y369371D01*
X257500Y397500D02*
Y404193D01*
X247500Y352500D02*
X250000Y355000D01*
X245000Y349000D02*
Y349581D01*
X247500Y352081D02*
Y352500D01*
X172911Y402935D02*
X173346Y402500D01*
X172636Y402935D02*
X172911D01*
X172500Y403071D02*
Y403346D01*
Y403071D02*
X172636Y402935D01*
X228917Y327500D02*
X291417Y265000D01*
X248917Y326083D02*
X299998Y275002D01*
X258917Y326083D02*
X300002Y284998D01*
X228917Y327500D02*
X230000D01*
X240000D02*
X297500Y270000D01*
X258917Y326083D02*
Y327500D01*
X312500Y395000D02*
X312500Y395000D01*
X304756Y395000D02*
X312500D01*
X256000Y117500D02*
X334998Y196498D01*
X234000Y117500D02*
X256000D01*
X219000Y102500D02*
X234000Y117500D01*
X189000Y102500D02*
X237099Y150599D01*
X281099D01*
X179000Y102500D02*
X229599Y153099D01*
X268197D01*
X192859Y431570D02*
Y432641D01*
X189500Y436000D02*
Y436000D01*
X195000Y429153D02*
Y429429D01*
X169359Y431641D02*
X170288D01*
X106457Y395000D02*
X114093D01*
X114094Y394999D01*
X106457Y395000D02*
X106457Y395000D01*
X144500Y308000D02*
X187046D01*
X306500Y238500D02*
X312577Y232423D01*
X270000Y238500D02*
X306500D01*
X219359Y289141D02*
X270000Y238500D01*
X312577Y197479D02*
Y232423D01*
X310500Y244000D02*
X324500Y230000D01*
X274000Y244000D02*
X310500D01*
X324500Y194000D02*
Y230000D01*
X228359Y289641D02*
X274000Y244000D01*
X187046Y308000D02*
X241417Y253629D01*
Y235000D02*
Y253629D01*
Y235000D02*
X248917Y227500D01*
X218000Y290553D02*
X219359Y289194D01*
Y289141D02*
Y289194D01*
X218000Y290553D02*
Y291500D01*
X196760Y294750D02*
X238917Y252593D01*
X147750Y294750D02*
X196760D01*
X135000Y322663D02*
X135102Y323495D01*
X125000Y303358D02*
Y323770D01*
X126068Y336851D02*
X127469Y338251D01*
X132500Y328304D02*
Y331536D01*
X127500Y327818D02*
Y333607D01*
X136893Y343000D01*
X130000Y305429D02*
Y323226D01*
X135000Y307500D02*
Y322663D01*
X125000Y334642D02*
X126068Y336851D01*
X127500Y304393D02*
Y323481D01*
X127469Y338251D02*
X130692Y342809D01*
X125000Y327529D02*
Y334642D01*
X130000Y328073D02*
Y332571D01*
X135000Y328636D02*
X135102Y327804D01*
X132500Y306465D02*
Y322995D01*
X135000Y328636D02*
Y330500D01*
X130000Y305429D02*
X130500Y304929D01*
X133000Y305964D02*
X133439Y264061D01*
X127734Y304159D02*
X128000Y233465D01*
X130500Y304929D02*
X130939Y234061D01*
X133439Y264061D02*
X168917Y228583D01*
X130939Y234061D02*
X145500Y219500D01*
X125674Y232255D02*
X143429Y214500D01*
X125000Y303358D02*
X125234Y232695D01*
X128000Y233465D02*
X144465Y217000D01*
X127500Y304393D02*
X127734Y304159D01*
X135000Y307500D02*
X147750Y294750D01*
X132500Y306465D02*
X133000Y305964D01*
X125234Y232695D02*
X125674Y232255D01*
X238917Y227500D02*
Y252593D01*
X219459Y327500D02*
X249959Y297000D01*
X250500D01*
X218917Y327500D02*
X219459D01*
X195000Y287500D02*
Y290500D01*
Y287500D02*
X228917Y253583D01*
Y227500D02*
Y253583D01*
X302500Y290000D02*
X320000D01*
X302500Y280000D02*
X320000D01*
X299998Y275002D02*
X324998D01*
X300002Y284998D02*
X322070D01*
X226995Y291048D02*
Y291995D01*
X324998Y275002D02*
X330000Y270000D01*
X226995Y291048D02*
X228359Y289684D01*
Y289641D02*
Y289684D01*
X322070Y284998D02*
X324998Y282070D01*
X198917Y326083D02*
Y327500D01*
Y326083D02*
X275000Y250000D01*
X320000D01*
X274500Y260000D02*
X320000D01*
X210834Y323667D02*
X274500Y260000D01*
X208917Y325775D02*
Y327500D01*
Y325775D02*
X210834Y323859D01*
Y323667D02*
Y323859D01*
X268197Y153099D02*
X312577Y197479D01*
X281099Y150599D02*
X324500Y194000D01*
X334998Y196498D02*
Y303899D01*
X305592Y333305D02*
X334998Y303899D01*
X325002Y254998D02*
Y262066D01*
Y254998D02*
X330000Y250000D01*
X314998Y265002D02*
X322066D01*
X310000Y270000D02*
X314998Y265002D01*
X297500Y270000D02*
X310000D01*
X322066Y265002D02*
X325002Y262066D01*
X143429Y214500D02*
X159417D01*
X171417Y202500D01*
X144465Y217000D02*
X166917D01*
X181417Y202500D01*
X145500Y219500D02*
X174417D01*
X169953Y227500D02*
X175953Y221500D01*
X174417Y219500D02*
X191417Y202500D01*
X168917Y227500D02*
X169953D01*
X175953Y221500D02*
X186094D01*
X192595Y215000D01*
X173000Y347349D02*
Y369000D01*
X168917Y227500D02*
Y228583D01*
X291417Y265000D02*
X302500D01*
X238917Y327500D02*
X240000D01*
X325877Y280652D02*
X329348D01*
X330000Y280000D01*
X324998Y281531D02*
X325877Y280652D01*
X324998Y281531D02*
Y282070D01*
X248917Y326083D02*
Y327500D01*
X257500Y420571D02*
Y420847D01*
X250137Y222757D02*
X257500Y215394D01*
X248917Y227500D02*
X250137Y226280D01*
X257500Y215000D02*
Y215394D01*
X250137Y222757D02*
Y226280D01*
X237872Y215825D02*
Y226455D01*
X237047Y215000D02*
X237872Y215825D01*
Y226455D02*
X238917Y227500D01*
X228917Y225775D02*
Y227500D01*
X225453Y215000D02*
Y222311D01*
X228917Y225775D01*
X195000Y411378D02*
Y411654D01*
Y403071D02*
X195136Y402935D01*
X195411D02*
X195846Y402500D01*
X195000Y403071D02*
Y403346D01*
X195136Y402935D02*
X195411D01*
X195846Y402500D02*
X202500D01*
X318919Y391120D02*
X320039Y390000D01*
X315670Y395000D02*
X318919Y391750D01*
Y391120D02*
Y391750D01*
X313170Y395670D02*
X315670D01*
X312500Y395000D02*
X315670D01*
Y395670D02*
X320000Y400000D01*
X312500Y395000D02*
X313170Y395670D01*
X130250Y350250D02*
Y356707D01*
X130500Y356957D01*
X130000Y350000D02*
X130250Y350250D01*
X132500Y408000D02*
X133500Y409000D01*
X132500Y400000D02*
Y408000D01*
X148857Y423857D02*
X149576D01*
X150000Y423433D02*
Y425000D01*
X149576Y423857D02*
X150000Y423433D01*
X92500Y395000D02*
X100000D01*
X150000Y400453D02*
Y410807D01*
X150000Y410807D01*
X150000Y400453D02*
X150000Y400453D01*
X133500Y409000D02*
X135567D01*
X99580Y395420D02*
X100000Y395000D01*
D51*
X224724Y421122D02*
X225000Y420847D01*
X220378Y421122D02*
X224724D01*
X209073Y432427D02*
Y450555D01*
Y432427D02*
X220378Y421122D01*
X221073Y446927D02*
Y448555D01*
X247153Y420847D02*
X257500D01*
X221073Y446927D02*
X247153Y420847D01*
X219073Y450555D02*
X221073Y448555D01*
X292003Y391754D02*
X315629Y368129D01*
X283246Y391754D02*
X292003D01*
X180670Y428330D02*
Y431158D01*
X163759Y442500D02*
X169329D01*
X180670Y428330D02*
X188154Y420847D01*
X169329Y442500D02*
X180670Y431158D01*
X188154Y420847D02*
X195000D01*
X168154Y411654D02*
X172500D01*
X160331Y403831D02*
X168154Y411654D01*
X160331Y391331D02*
Y403831D01*
X188500Y396576D02*
Y405965D01*
X192043Y409508D01*
X193130D01*
X172998Y381075D02*
X188500Y396576D01*
X193130Y409508D02*
X195000Y411378D01*
X173346Y402500D02*
X179500D01*
X155047Y372294D02*
X163828Y381075D01*
X172998D01*
X153000Y369000D02*
X155047Y371047D01*
X158000Y349000D02*
Y351977D01*
X150648Y358624D02*
X151352D01*
X158000Y351977D01*
X144000Y365272D02*
Y375000D01*
X160331Y391331D01*
X155047Y371047D02*
Y372294D01*
X144000Y365272D02*
X150648Y358624D01*
X202500Y402500D02*
X230000D01*
X225000Y420571D02*
X240000Y405571D01*
Y369000D02*
Y405571D01*
X247047Y352294D02*
X251706Y356953D01*
X307500Y360000D02*
X315629Y368129D01*
X256000Y360000D02*
X307500D01*
X252953Y356953D02*
X256000Y360000D01*
X251706Y356953D02*
X252953D01*
X135000Y428329D02*
Y435000D01*
X257500Y412500D02*
X262500D01*
X283246Y391754D01*
X257500Y412500D02*
Y420571D01*
X159073Y447186D02*
X163759Y442500D01*
X159073Y447186D02*
Y450555D01*
X166654Y420847D02*
X172500D01*
X149073Y438427D02*
Y450555D01*
Y438427D02*
X166654Y420847D01*
X172500Y411654D02*
Y420847D01*
X225000Y411654D02*
Y420571D01*
X195000Y411654D02*
Y420847D01*
D52*
X224049Y432505D02*
X225000D01*
X222500Y434053D02*
X224049Y432505D01*
X225000Y429153D02*
Y432505D01*
X166191Y434809D02*
X167121D01*
X166000Y435000D02*
X166191Y434809D01*
X167121D02*
X170288Y431641D01*
X172500Y429429D01*
D53*
X218000Y349000D02*
X235000D01*
X189500Y436000D02*
X192859Y432641D01*
Y431570D02*
X195000Y429429D01*
X150000Y417500D02*
Y423433D01*
D54*
X149073Y450555D02*
D03*
X159073D02*
D03*
X169073D02*
D03*
X179073D02*
D03*
X189073D02*
D03*
X199073D02*
D03*
X209073D02*
D03*
X219073D02*
D03*
X229073D02*
D03*
X239073D02*
D03*
X249073D02*
D03*
D55*
X259073D02*
D03*
D56*
X117579Y229153D02*
D03*
Y325650D02*
D03*
X302421D02*
D03*
Y229153D02*
D03*
X117657Y104004D02*
D03*
Y200500D02*
D03*
X302500D02*
D03*
Y104004D02*
D03*
D57*
X288917Y327500D02*
D03*
X278917D02*
D03*
X268917D02*
D03*
X258917D02*
D03*
X248917D02*
D03*
X238917D02*
D03*
X228917D02*
D03*
X218917D02*
D03*
X208917D02*
D03*
X198917D02*
D03*
X188917D02*
D03*
X178917D02*
D03*
X168917D02*
D03*
X158917D02*
D03*
X148917D02*
D03*
X288917Y227500D02*
D03*
X278917D02*
D03*
X268917D02*
D03*
X258917D02*
D03*
X248917D02*
D03*
X238917D02*
D03*
X228917D02*
D03*
X218917D02*
D03*
X208917D02*
D03*
X198917D02*
D03*
X188917D02*
D03*
X178917D02*
D03*
X168917D02*
D03*
X158917D02*
D03*
X288996Y202350D02*
D03*
X278996D02*
D03*
X268996D02*
D03*
X258996D02*
D03*
X248996D02*
D03*
X238996D02*
D03*
X228996D02*
D03*
X218996D02*
D03*
X208996D02*
D03*
X198996D02*
D03*
X188996D02*
D03*
X178996D02*
D03*
X168996D02*
D03*
X158996D02*
D03*
X148996D02*
D03*
X288996Y102350D02*
D03*
X278996D02*
D03*
X268996D02*
D03*
X258996D02*
D03*
X248996D02*
D03*
X238996D02*
D03*
X228996D02*
D03*
X218996D02*
D03*
X208996D02*
D03*
X198996D02*
D03*
X188996D02*
D03*
X178996D02*
D03*
X168996D02*
D03*
X158996D02*
D03*
X295000Y430000D02*
D03*
X276500Y418000D02*
D03*
D58*
X148917Y227500D02*
D03*
X148996Y102350D02*
D03*
X295000Y406000D02*
D03*
D59*
X330000Y270000D02*
D03*
Y250000D02*
D03*
X320000D02*
D03*
X330000Y260000D02*
D03*
X320000D02*
D03*
Y270000D02*
D03*
X330000Y280000D02*
D03*
X320000D02*
D03*
X330000Y290000D02*
D03*
D60*
X320000D02*
D03*
D61*
X235000Y349000D02*
D03*
X148000D02*
D03*
D62*
X240000Y369000D02*
D03*
X245000Y349000D02*
D03*
X250000Y369000D02*
D03*
X255000Y349000D02*
D03*
X260000Y369000D02*
D03*
X265000Y349000D02*
D03*
X270000Y369000D02*
D03*
X275000Y349000D02*
D03*
X280000Y369000D02*
D03*
X285000Y349000D02*
D03*
X290000Y369000D02*
D03*
X295000Y349000D02*
D03*
X300000Y369000D02*
D03*
X305000Y349000D02*
D03*
X218000D02*
D03*
X213000Y369000D02*
D03*
X208000Y349000D02*
D03*
X203000Y369000D02*
D03*
X198000Y349000D02*
D03*
X193000Y369000D02*
D03*
X188000Y349000D02*
D03*
X183000Y369000D02*
D03*
X178000Y349000D02*
D03*
X173000Y369000D02*
D03*
X168000Y349000D02*
D03*
X163000Y369000D02*
D03*
X158000Y349000D02*
D03*
X153000Y369000D02*
D03*
D63*
X105000Y350315D02*
D03*
Y370000D02*
D03*
D64*
X221553Y434053D02*
D03*
X179500Y402500D02*
D03*
X147947Y389553D02*
D03*
X226005Y340495D02*
D03*
X230000Y380000D02*
D03*
X215000Y392500D02*
D03*
X247500Y380000D02*
D03*
X257500Y438000D02*
D03*
X227596Y460000D02*
D03*
X230000Y402500D02*
D03*
X232500Y393500D02*
D03*
X267500Y392500D02*
D03*
X270000Y342500D02*
D03*
X237500Y337500D02*
D03*
X135000Y435000D02*
D03*
X257500Y397500D02*
D03*
X166000Y435000D02*
D03*
X189500Y436000D02*
D03*
X130692Y342809D02*
D03*
X144500Y308000D02*
D03*
X218000Y291500D02*
D03*
X195000Y290500D02*
D03*
X250500Y297000D02*
D03*
X302500Y280000D02*
D03*
Y290000D02*
D03*
X226995Y291995D02*
D03*
X302500Y265000D02*
D03*
X202500Y402500D02*
D03*
X312500Y395000D02*
D03*
X130000Y350000D02*
D03*
X132500Y400000D02*
D03*
X150000Y425000D02*
D03*
X92500Y395000D02*
D03*
D65*
X330000Y102500D02*
D03*
Y455000D02*
D03*
X95000D02*
D03*
Y102500D02*
D03*
M02*
