M48
;Layer_Color=9474304
;FILE_FORMAT=4:3
METRIC,LZ
;TYPE=PLATED
T01F00S00C0.711
T02F00S00C0.900
T03F00S00C1.020
T04F00S00C1.100
T05F00S00C1.245
T06F00S00C1.300
T07F00S00C3.200
;TYPE=NON_PLATED
T08F00S00C3.000
%
T01
X004953Y0073787
X0055372Y0074041
X0057657Y0074167
X0063627Y0075438
X0076835Y007366
Y007112
Y006731
X0036703Y0078232
X0033196Y0087073
X003302Y00889
X0033655Y01016
X0037578Y0098947
X00381Y010795
X003429Y011049
X0023495Y010033
X0045593Y0102235
X0051435
X005461Y0099695
X0059055Y0099949
X005842Y0102235
Y009652
X0062865
X0065405Y0100965
X0067945Y0099695
X006858Y0086995
X0060325Y0085725
X0057405Y0086486
X0056275Y011025
X0057809Y011684
X0065405Y0111252
X0048133Y0110744
X0042164Y011049
X0079375Y010033
T02
X0037592Y0088646
X0038862Y0093726
X0041402
X0043942
X0046482
X0049022
X0051562
X0054102
X0052832Y0088646
X0050292
X0047752
X0045212
X0042672
X0040132
X0055372
X005969
X006223
X006477
X006731
X006985
X007239
X007493
X007747
X00762Y0093726
X007366
X007112
X006858
X006604
X00635
X006096
T03
X0037845Y0025997
X0040385
X0042925
X0045465
X0048005
X0050545
X0053085
X0055625
X0058165
X0060705
X0063245
X0065785
X0068325
X0070865
X0073405
Y0051397
X0070865
X0068325
X0065785
X0063245
X0060705
X0058165
X0055625
X0053085
X0050545
X0048005
X0045465
X0042925
X0040385
X0040365Y0057785
X0042905
X0045445
X0047985
X0050525
X0053065
X0055605
X0058145
X0060685
X0063225
X0065765
X0068305
X0070845
X0073385
X0037825
X0037845Y0051397
X0037825Y0083185
X0037865Y0114441
X0040405
X0042945
X0045485
X0048025
X0050565
X0053105
X0055645
X0058185
X0060725
X0063265
X0065805
X0065765Y0083185
X0063225
X0060685
X0058145
X0055605
X0053065
X0050525
X0047985
X0045445
X0042905
X0040365
X0068305
X0070845
X0073385
T04
X008128Y00635
Y006604
Y006858
Y007112
Y007366
X008382
Y007112
Y006858
Y006604
Y00635
T05
X0070231Y0106172
X007493Y010922
Y0103124
T06
X002667Y008898
Y009398
T07
X002413Y0026035
X008382
X002413Y011557
X008382
T08
X0029885Y0026417
X0076835
Y0050927
X0076815Y0058205
X0029865
X0029885Y0050927
X0029865Y0082715
X0076815
M30
