G04*
G04 #@! TF.GenerationSoftware,Altium Limited,Altium Designer,24.3.1 (35)*
G04*
G04 Layer_Color=2752767*
%FSLAX25Y25*%
%MOIN*%
G70*
G04*
G04 #@! TF.SameCoordinates,59408384-AF90-41EA-90E0-151A5B2CE245*
G04*
G04*
G04 #@! TF.FilePolarity,Positive*
G04*
G01*
G75*
%ADD13C,0.00500*%
%ADD72C,0.00667*%
D13*
X115579Y227153D02*
Y231153D01*
X119579D01*
Y227153D01*
X115579D01*
Y323650D02*
Y327650D01*
X119579D01*
Y323650D01*
X115579D01*
X300421D02*
Y327650D01*
X304421D01*
Y323650D01*
X300421D01*
Y227153D02*
Y231153D01*
X304421D01*
Y227153D01*
X300421D01*
X115657Y102004D02*
Y106004D01*
X119658D01*
Y102004D01*
X115657D01*
Y198500D02*
Y202500D01*
X119658D01*
Y198500D01*
X115657D01*
X300500D02*
Y202500D01*
X304500D01*
Y198500D01*
X300500D01*
Y102004D02*
Y106004D01*
X304500D01*
Y102004D01*
X300500D01*
X328000Y268000D02*
X329000Y270000D01*
X328000Y272000D01*
X330000Y271000D01*
X332000Y272000D01*
X331000Y270000D01*
X332000Y268000D01*
X330000Y269000D01*
X328000Y268000D01*
Y248000D02*
X329000Y250000D01*
X328000Y252000D01*
X330000Y251000D01*
X332000Y252000D01*
X331000Y250000D01*
X332000Y248000D01*
X330000Y249000D01*
X328000Y248000D01*
X318000D02*
X319000Y250000D01*
X318000Y252000D01*
X320000Y251000D01*
X322000Y252000D01*
X321000Y250000D01*
X322000Y248000D01*
X320000Y249000D01*
X318000Y248000D01*
X328000Y258000D02*
X329000Y260000D01*
X328000Y262000D01*
X330000Y261000D01*
X332000Y262000D01*
X331000Y260000D01*
X332000Y258000D01*
X330000Y259000D01*
X328000Y258000D01*
X318000D02*
X319000Y260000D01*
X318000Y262000D01*
X320000Y261000D01*
X322000Y262000D01*
X321000Y260000D01*
X322000Y258000D01*
X320000Y259000D01*
X318000Y258000D01*
Y268000D02*
X319000Y270000D01*
X318000Y272000D01*
X320000Y271000D01*
X322000Y272000D01*
X321000Y270000D01*
X322000Y268000D01*
X320000Y269000D01*
X318000Y268000D01*
X328000Y278000D02*
X329000Y280000D01*
X328000Y282000D01*
X330000Y281000D01*
X332000Y282000D01*
X331000Y280000D01*
X332000Y278000D01*
X330000Y279000D01*
X328000Y278000D01*
X318000D02*
X319000Y280000D01*
X318000Y282000D01*
X320000Y281000D01*
X322000Y282000D01*
X321000Y280000D01*
X322000Y278000D01*
X320000Y279000D01*
X318000Y278000D01*
X328000Y288000D02*
X329000Y290000D01*
X328000Y292000D01*
X330000Y291000D01*
X332000Y292000D01*
X331000Y290000D01*
X332000Y288000D01*
X330000Y289000D01*
X328000Y288000D01*
X318000D02*
X319000Y290000D01*
X318000Y292000D01*
X320000Y291000D01*
X322000Y292000D01*
X321000Y290000D01*
X322000Y288000D01*
X320000Y289000D01*
X318000Y288000D01*
X234000Y348000D02*
Y347000D01*
X236000D01*
Y348000D01*
X237000D01*
Y350000D01*
X236000D01*
Y351000D01*
X234000D01*
Y350000D01*
X233000D01*
Y348000D01*
X234000D01*
X239000Y368000D02*
Y367000D01*
X241000D01*
Y368000D01*
X242000D01*
Y370000D01*
X241000D01*
Y371000D01*
X239000D01*
Y370000D01*
X238000D01*
Y368000D01*
X239000D01*
X244000Y348000D02*
Y347000D01*
X246000D01*
Y348000D01*
X247000D01*
Y350000D01*
X246000D01*
Y351000D01*
X244000D01*
Y350000D01*
X243000D01*
Y348000D01*
X244000D01*
X249000Y368000D02*
Y367000D01*
X251000D01*
Y368000D01*
X252000D01*
Y370000D01*
X251000D01*
Y371000D01*
X249000D01*
Y370000D01*
X248000D01*
Y368000D01*
X249000D01*
X254000Y348000D02*
Y347000D01*
X256000D01*
Y348000D01*
X257000D01*
Y350000D01*
X256000D01*
Y351000D01*
X254000D01*
Y350000D01*
X253000D01*
Y348000D01*
X254000D01*
X259000Y368000D02*
Y367000D01*
X261000D01*
Y368000D01*
X262000D01*
Y370000D01*
X261000D01*
Y371000D01*
X259000D01*
Y370000D01*
X258000D01*
Y368000D01*
X259000D01*
X264000Y348000D02*
Y347000D01*
X266000D01*
Y348000D01*
X267000D01*
Y350000D01*
X266000D01*
Y351000D01*
X264000D01*
Y350000D01*
X263000D01*
Y348000D01*
X264000D01*
X269000Y368000D02*
Y367000D01*
X271000D01*
Y368000D01*
X272000D01*
Y370000D01*
X271000D01*
Y371000D01*
X269000D01*
Y370000D01*
X268000D01*
Y368000D01*
X269000D01*
X274000Y348000D02*
Y347000D01*
X276000D01*
Y348000D01*
X277000D01*
Y350000D01*
X276000D01*
Y351000D01*
X274000D01*
Y350000D01*
X273000D01*
Y348000D01*
X274000D01*
X279000Y368000D02*
Y367000D01*
X281000D01*
Y368000D01*
X282000D01*
Y370000D01*
X281000D01*
Y371000D01*
X279000D01*
Y370000D01*
X278000D01*
Y368000D01*
X279000D01*
X284000Y348000D02*
Y347000D01*
X286000D01*
Y348000D01*
X287000D01*
Y350000D01*
X286000D01*
Y351000D01*
X284000D01*
Y350000D01*
X283000D01*
Y348000D01*
X284000D01*
X289000Y368000D02*
Y367000D01*
X291000D01*
Y368000D01*
X292000D01*
Y370000D01*
X291000D01*
Y371000D01*
X289000D01*
Y370000D01*
X288000D01*
Y368000D01*
X289000D01*
X294000Y348000D02*
Y347000D01*
X296000D01*
Y348000D01*
X297000D01*
Y350000D01*
X296000D01*
Y351000D01*
X294000D01*
Y350000D01*
X293000D01*
Y348000D01*
X294000D01*
X299000Y368000D02*
Y367000D01*
X301000D01*
Y368000D01*
X302000D01*
Y370000D01*
X301000D01*
Y371000D01*
X299000D01*
Y370000D01*
X298000D01*
Y368000D01*
X299000D01*
X304000Y348000D02*
Y347000D01*
X306000D01*
Y348000D01*
X307000D01*
Y350000D01*
X306000D01*
Y351000D01*
X304000D01*
Y350000D01*
X303000D01*
Y348000D01*
X304000D01*
X295000Y404000D02*
X296000Y405000D01*
X297000D01*
X296000Y406000D01*
X297000Y407000D01*
X296000D01*
X295000Y408000D01*
X294000Y407000D01*
X293000D01*
X294000Y406000D01*
X293000Y405000D01*
X294000D01*
X295000Y404000D01*
Y428000D02*
X296000Y429000D01*
X297000D01*
X296000Y430000D01*
X297000Y431000D01*
X296000D01*
X295000Y432000D01*
X294000Y431000D01*
X293000D01*
X294000Y430000D01*
X293000Y429000D01*
X294000D01*
X295000Y428000D01*
X276500Y416000D02*
X277500Y417000D01*
X278500D01*
X277500Y418000D01*
X278500Y419000D01*
X277500D01*
X276500Y420000D01*
X275500Y419000D01*
X274500D01*
X275500Y418000D01*
X274500Y417000D01*
X275500D01*
X276500Y416000D01*
X105000Y348315D02*
X103000Y352315D01*
X107000D01*
X105000Y348315D01*
Y368000D02*
X103000Y372000D01*
X107000D01*
X105000Y368000D01*
X217000Y348000D02*
Y347000D01*
X219000D01*
Y348000D01*
X220000D01*
Y350000D01*
X219000D01*
Y351000D01*
X217000D01*
Y350000D01*
X216000D01*
Y348000D01*
X217000D01*
X212000Y368000D02*
Y367000D01*
X214000D01*
Y368000D01*
X215000D01*
Y370000D01*
X214000D01*
Y371000D01*
X212000D01*
Y370000D01*
X211000D01*
Y368000D01*
X212000D01*
X207000Y348000D02*
Y347000D01*
X209000D01*
Y348000D01*
X210000D01*
Y350000D01*
X209000D01*
Y351000D01*
X207000D01*
Y350000D01*
X206000D01*
Y348000D01*
X207000D01*
X202000Y368000D02*
Y367000D01*
X204000D01*
Y368000D01*
X205000D01*
Y370000D01*
X204000D01*
Y371000D01*
X202000D01*
Y370000D01*
X201000D01*
Y368000D01*
X202000D01*
X197000Y348000D02*
Y347000D01*
X199000D01*
Y348000D01*
X200000D01*
Y350000D01*
X199000D01*
Y351000D01*
X197000D01*
Y350000D01*
X196000D01*
Y348000D01*
X197000D01*
X192000Y368000D02*
Y367000D01*
X194000D01*
Y368000D01*
X195000D01*
Y370000D01*
X194000D01*
Y371000D01*
X192000D01*
Y370000D01*
X191000D01*
Y368000D01*
X192000D01*
X187000Y348000D02*
Y347000D01*
X189000D01*
Y348000D01*
X190000D01*
Y350000D01*
X189000D01*
Y351000D01*
X187000D01*
Y350000D01*
X186000D01*
Y348000D01*
X187000D01*
X182000Y368000D02*
Y367000D01*
X184000D01*
Y368000D01*
X185000D01*
Y370000D01*
X184000D01*
Y371000D01*
X182000D01*
Y370000D01*
X181000D01*
Y368000D01*
X182000D01*
X177000Y348000D02*
Y347000D01*
X179000D01*
Y348000D01*
X180000D01*
Y350000D01*
X179000D01*
Y351000D01*
X177000D01*
Y350000D01*
X176000D01*
Y348000D01*
X177000D01*
X172000Y368000D02*
Y367000D01*
X174000D01*
Y368000D01*
X175000D01*
Y370000D01*
X174000D01*
Y371000D01*
X172000D01*
Y370000D01*
X171000D01*
Y368000D01*
X172000D01*
X167000Y348000D02*
Y347000D01*
X169000D01*
Y348000D01*
X170000D01*
Y350000D01*
X169000D01*
Y351000D01*
X167000D01*
Y350000D01*
X166000D01*
Y348000D01*
X167000D01*
X162000Y368000D02*
Y367000D01*
X164000D01*
Y368000D01*
X165000D01*
Y370000D01*
X164000D01*
Y371000D01*
X162000D01*
Y370000D01*
X161000D01*
Y368000D01*
X162000D01*
X157000Y348000D02*
Y347000D01*
X159000D01*
Y348000D01*
X160000D01*
Y350000D01*
X159000D01*
Y351000D01*
X157000D01*
Y350000D01*
X156000D01*
Y348000D01*
X157000D01*
X152000Y368000D02*
Y367000D01*
X154000D01*
Y368000D01*
X155000D01*
Y370000D01*
X154000D01*
Y371000D01*
X152000D01*
Y370000D01*
X151000D01*
Y368000D01*
X152000D01*
X147000Y348000D02*
Y347000D01*
X149000D01*
Y348000D01*
X150000D01*
Y350000D01*
X149000D01*
Y351000D01*
X147000D01*
Y350000D01*
X146000D01*
Y348000D01*
X147000D01*
X219553Y432053D02*
X220553D01*
X221553Y433053D01*
X222553Y432053D01*
X223553D01*
Y433053D01*
X222553Y434053D01*
X223553Y435053D01*
Y436053D01*
X222553D01*
X221553Y435053D01*
X220553Y436053D01*
X219553D01*
Y435053D01*
X220553Y434053D01*
X219553Y433053D01*
Y432053D01*
X177500Y400500D02*
X178500D01*
X179500Y401500D01*
X180500Y400500D01*
X181500D01*
Y401500D01*
X180500Y402500D01*
X181500Y403500D01*
Y404500D01*
X180500D01*
X179500Y403500D01*
X178500Y404500D01*
X177500D01*
Y403500D01*
X178500Y402500D01*
X177500Y401500D01*
Y400500D01*
X145947Y387553D02*
X146947D01*
X147947Y388553D01*
X148947Y387553D01*
X149947D01*
Y388553D01*
X148947Y389553D01*
X149947Y390553D01*
Y391553D01*
X148947D01*
X147947Y390553D01*
X146947Y391553D01*
X145947D01*
Y390553D01*
X146947Y389553D01*
X145947Y388553D01*
Y387553D01*
X224005Y338495D02*
X225005D01*
X226005Y339495D01*
X227005Y338495D01*
X228005D01*
Y339495D01*
X227005Y340495D01*
X228005Y341495D01*
Y342495D01*
X227005D01*
X226005Y341495D01*
X225005Y342495D01*
X224005D01*
Y341495D01*
X225005Y340495D01*
X224005Y339495D01*
Y338495D01*
X228000Y378000D02*
X229000D01*
X230000Y379000D01*
X231000Y378000D01*
X232000D01*
Y379000D01*
X231000Y380000D01*
X232000Y381000D01*
Y382000D01*
X231000D01*
X230000Y381000D01*
X229000Y382000D01*
X228000D01*
Y381000D01*
X229000Y380000D01*
X228000Y379000D01*
Y378000D01*
X213000Y390500D02*
X214000D01*
X215000Y391500D01*
X216000Y390500D01*
X217000D01*
Y391500D01*
X216000Y392500D01*
X217000Y393500D01*
Y394500D01*
X216000D01*
X215000Y393500D01*
X214000Y394500D01*
X213000D01*
Y393500D01*
X214000Y392500D01*
X213000Y391500D01*
Y390500D01*
X245500Y378000D02*
X246500D01*
X247500Y379000D01*
X248500Y378000D01*
X249500D01*
Y379000D01*
X248500Y380000D01*
X249500Y381000D01*
Y382000D01*
X248500D01*
X247500Y381000D01*
X246500Y382000D01*
X245500D01*
Y381000D01*
X246500Y380000D01*
X245500Y379000D01*
Y378000D01*
X255500Y436000D02*
X256500D01*
X257500Y437000D01*
X258500Y436000D01*
X259500D01*
Y437000D01*
X258500Y438000D01*
X259500Y439000D01*
Y440000D01*
X258500D01*
X257500Y439000D01*
X256500Y440000D01*
X255500D01*
Y439000D01*
X256500Y438000D01*
X255500Y437000D01*
Y436000D01*
X225596Y458000D02*
X226596D01*
X227596Y459000D01*
X228596Y458000D01*
X229596D01*
Y459000D01*
X228596Y460000D01*
X229596Y461000D01*
Y462000D01*
X228596D01*
X227596Y461000D01*
X226596Y462000D01*
X225596D01*
Y461000D01*
X226596Y460000D01*
X225596Y459000D01*
Y458000D01*
X228000Y400500D02*
X229000D01*
X230000Y401500D01*
X231000Y400500D01*
X232000D01*
Y401500D01*
X231000Y402500D01*
X232000Y403500D01*
Y404500D01*
X231000D01*
X230000Y403500D01*
X229000Y404500D01*
X228000D01*
Y403500D01*
X229000Y402500D01*
X228000Y401500D01*
Y400500D01*
X230500Y391500D02*
X231500D01*
X232500Y392500D01*
X233500Y391500D01*
X234500D01*
Y392500D01*
X233500Y393500D01*
X234500Y394500D01*
Y395500D01*
X233500D01*
X232500Y394500D01*
X231500Y395500D01*
X230500D01*
Y394500D01*
X231500Y393500D01*
X230500Y392500D01*
Y391500D01*
X265500Y390500D02*
X266500D01*
X267500Y391500D01*
X268500Y390500D01*
X269500D01*
Y391500D01*
X268500Y392500D01*
X269500Y393500D01*
Y394500D01*
X268500D01*
X267500Y393500D01*
X266500Y394500D01*
X265500D01*
Y393500D01*
X266500Y392500D01*
X265500Y391500D01*
Y390500D01*
X268000Y340500D02*
X269000D01*
X270000Y341500D01*
X271000Y340500D01*
X272000D01*
Y341500D01*
X271000Y342500D01*
X272000Y343500D01*
Y344500D01*
X271000D01*
X270000Y343500D01*
X269000Y344500D01*
X268000D01*
Y343500D01*
X269000Y342500D01*
X268000Y341500D01*
Y340500D01*
X235500Y335500D02*
X236500D01*
X237500Y336500D01*
X238500Y335500D01*
X239500D01*
Y336500D01*
X238500Y337500D01*
X239500Y338500D01*
Y339500D01*
X238500D01*
X237500Y338500D01*
X236500Y339500D01*
X235500D01*
Y338500D01*
X236500Y337500D01*
X235500Y336500D01*
Y335500D01*
X133000Y433000D02*
X134000D01*
X135000Y434000D01*
X136000Y433000D01*
X137000D01*
Y434000D01*
X136000Y435000D01*
X137000Y436000D01*
Y437000D01*
X136000D01*
X135000Y436000D01*
X134000Y437000D01*
X133000D01*
Y436000D01*
X134000Y435000D01*
X133000Y434000D01*
Y433000D01*
X255500Y395500D02*
X256500D01*
X257500Y396500D01*
X258500Y395500D01*
X259500D01*
Y396500D01*
X258500Y397500D01*
X259500Y398500D01*
Y399500D01*
X258500D01*
X257500Y398500D01*
X256500Y399500D01*
X255500D01*
Y398500D01*
X256500Y397500D01*
X255500Y396500D01*
Y395500D01*
X164000Y433000D02*
X165000D01*
X166000Y434000D01*
X167000Y433000D01*
X168000D01*
Y434000D01*
X167000Y435000D01*
X168000Y436000D01*
Y437000D01*
X167000D01*
X166000Y436000D01*
X165000Y437000D01*
X164000D01*
Y436000D01*
X165000Y435000D01*
X164000Y434000D01*
Y433000D01*
X328000Y102500D02*
X330000Y104500D01*
X332000Y102500D01*
X330000Y100500D01*
X328000Y102500D01*
X187500Y434000D02*
X188500D01*
X189500Y435000D01*
X190500Y434000D01*
X191500D01*
Y435000D01*
X190500Y436000D01*
X191500Y437000D01*
Y438000D01*
X190500D01*
X189500Y437000D01*
X188500Y438000D01*
X187500D01*
Y437000D01*
X188500Y436000D01*
X187500Y435000D01*
Y434000D01*
X128691Y340809D02*
X129692D01*
X130692Y341809D01*
X131692Y340809D01*
X132692D01*
Y341809D01*
X131692Y342809D01*
X132692Y343809D01*
Y344809D01*
X131692D01*
X130692Y343809D01*
X129692Y344809D01*
X128691D01*
Y343809D01*
X129692Y342809D01*
X128691Y341809D01*
Y340809D01*
X142500Y306000D02*
X143500D01*
X144500Y307000D01*
X145500Y306000D01*
X146500D01*
Y307000D01*
X145500Y308000D01*
X146500Y309000D01*
Y310000D01*
X145500D01*
X144500Y309000D01*
X143500Y310000D01*
X142500D01*
Y309000D01*
X143500Y308000D01*
X142500Y307000D01*
Y306000D01*
X216000Y289500D02*
X217000D01*
X218000Y290500D01*
X219000Y289500D01*
X220000D01*
Y290500D01*
X219000Y291500D01*
X220000Y292500D01*
Y293500D01*
X219000D01*
X218000Y292500D01*
X217000Y293500D01*
X216000D01*
Y292500D01*
X217000Y291500D01*
X216000Y290500D01*
Y289500D01*
X193000Y288500D02*
X194000D01*
X195000Y289500D01*
X196000Y288500D01*
X197000D01*
Y289500D01*
X196000Y290500D01*
X197000Y291500D01*
Y292500D01*
X196000D01*
X195000Y291500D01*
X194000Y292500D01*
X193000D01*
Y291500D01*
X194000Y290500D01*
X193000Y289500D01*
Y288500D01*
X248500Y295000D02*
X249500D01*
X250500Y296000D01*
X251500Y295000D01*
X252500D01*
Y296000D01*
X251500Y297000D01*
X252500Y298000D01*
Y299000D01*
X251500D01*
X250500Y298000D01*
X249500Y299000D01*
X248500D01*
Y298000D01*
X249500Y297000D01*
X248500Y296000D01*
Y295000D01*
X300500Y278000D02*
X301500D01*
X302500Y279000D01*
X303500Y278000D01*
X304500D01*
Y279000D01*
X303500Y280000D01*
X304500Y281000D01*
Y282000D01*
X303500D01*
X302500Y281000D01*
X301500Y282000D01*
X300500D01*
Y281000D01*
X301500Y280000D01*
X300500Y279000D01*
Y278000D01*
Y288000D02*
X301500D01*
X302500Y289000D01*
X303500Y288000D01*
X304500D01*
Y289000D01*
X303500Y290000D01*
X304500Y291000D01*
Y292000D01*
X303500D01*
X302500Y291000D01*
X301500Y292000D01*
X300500D01*
Y291000D01*
X301500Y290000D01*
X300500Y289000D01*
Y288000D01*
X224995Y289995D02*
X225995D01*
X226995Y290995D01*
X227995Y289995D01*
X228995D01*
Y290995D01*
X227995Y291995D01*
X228995Y292995D01*
Y293995D01*
X227995D01*
X226995Y292995D01*
X225995Y293995D01*
X224995D01*
Y292995D01*
X225995Y291995D01*
X224995Y290995D01*
Y289995D01*
X300500Y263000D02*
X301500D01*
X302500Y264000D01*
X303500Y263000D01*
X304500D01*
Y264000D01*
X303500Y265000D01*
X304500Y266000D01*
Y267000D01*
X303500D01*
X302500Y266000D01*
X301500Y267000D01*
X300500D01*
Y266000D01*
X301500Y265000D01*
X300500Y264000D01*
Y263000D01*
X200500Y400500D02*
X201500D01*
X202500Y401500D01*
X203500Y400500D01*
X204500D01*
Y401500D01*
X203500Y402500D01*
X204500Y403500D01*
Y404500D01*
X203500D01*
X202500Y403500D01*
X201500Y404500D01*
X200500D01*
Y403500D01*
X201500Y402500D01*
X200500Y401500D01*
Y400500D01*
X310500Y393000D02*
X311500D01*
X312500Y394000D01*
X313500Y393000D01*
X314500D01*
Y394000D01*
X313500Y395000D01*
X314500Y396000D01*
Y397000D01*
X313500D01*
X312500Y396000D01*
X311500Y397000D01*
X310500D01*
Y396000D01*
X311500Y395000D01*
X310500Y394000D01*
Y393000D01*
X128000Y348000D02*
X129000D01*
X130000Y349000D01*
X131000Y348000D01*
X132000D01*
Y349000D01*
X131000Y350000D01*
X132000Y351000D01*
Y352000D01*
X131000D01*
X130000Y351000D01*
X129000Y352000D01*
X128000D01*
Y351000D01*
X129000Y350000D01*
X128000Y349000D01*
Y348000D01*
X130500Y398000D02*
X131500D01*
X132500Y399000D01*
X133500Y398000D01*
X134500D01*
Y399000D01*
X133500Y400000D01*
X134500Y401000D01*
Y402000D01*
X133500D01*
X132500Y401000D01*
X131500Y402000D01*
X130500D01*
Y401000D01*
X131500Y400000D01*
X130500Y399000D01*
Y398000D01*
X148000Y423000D02*
X149000D01*
X150000Y424000D01*
X151000Y423000D01*
X152000D01*
Y424000D01*
X151000Y425000D01*
X152000Y426000D01*
Y427000D01*
X151000D01*
X150000Y426000D01*
X149000Y427000D01*
X148000D01*
Y426000D01*
X149000Y425000D01*
X148000Y424000D01*
Y423000D01*
X90500Y393000D02*
X91500D01*
X92500Y394000D01*
X93500Y393000D01*
X94500D01*
Y394000D01*
X93500Y395000D01*
X94500Y396000D01*
Y397000D01*
X93500D01*
X92500Y396000D01*
X91500Y397000D01*
X90500D01*
Y396000D01*
X91500Y395000D01*
X90500Y394000D01*
Y393000D01*
X328000Y455000D02*
X330000Y457000D01*
X332000Y455000D01*
X330000Y453000D01*
X328000Y455000D01*
X93000D02*
X95000Y457000D01*
X97000Y455000D01*
X95000Y453000D01*
X93000Y455000D01*
Y102500D02*
X95000Y104500D01*
X97000Y102500D01*
X95000Y100500D01*
X93000Y102500D01*
D72*
X151073Y450555D02*
G03*
X151073Y450555I-2000J0D01*
G01*
X161073D02*
G03*
X161073Y450555I-2000J0D01*
G01*
X171073D02*
G03*
X171073Y450555I-2000J0D01*
G01*
X181073D02*
G03*
X181073Y450555I-2000J0D01*
G01*
X191073D02*
G03*
X191073Y450555I-2000J0D01*
G01*
X201073D02*
G03*
X201073Y450555I-2000J0D01*
G01*
X211073D02*
G03*
X211073Y450555I-2000J0D01*
G01*
X221073D02*
G03*
X221073Y450555I-2000J0D01*
G01*
X231073D02*
G03*
X231073Y450555I-2000J0D01*
G01*
X241073D02*
G03*
X241073Y450555I-2000J0D01*
G01*
X261073D02*
G03*
X261073Y450555I-2000J0D01*
G01*
X251073D02*
G03*
X251073Y450555I-2000J0D01*
G01*
X290917Y327500D02*
G03*
X290917Y327500I-2000J0D01*
G01*
X280917D02*
G03*
X280917Y327500I-2000J0D01*
G01*
X270917D02*
G03*
X270917Y327500I-2000J0D01*
G01*
X260917D02*
G03*
X260917Y327500I-2000J0D01*
G01*
X250917D02*
G03*
X250917Y327500I-2000J0D01*
G01*
X240917D02*
G03*
X240917Y327500I-2000J0D01*
G01*
X230917D02*
G03*
X230917Y327500I-2000J0D01*
G01*
X220917D02*
G03*
X220917Y327500I-2000J0D01*
G01*
X210917D02*
G03*
X210917Y327500I-2000J0D01*
G01*
X200917D02*
G03*
X200917Y327500I-2000J0D01*
G01*
X190917D02*
G03*
X190917Y327500I-2000J0D01*
G01*
X180917D02*
G03*
X180917Y327500I-2000J0D01*
G01*
X170917D02*
G03*
X170917Y327500I-2000J0D01*
G01*
X160917D02*
G03*
X160917Y327500I-2000J0D01*
G01*
X150917D02*
G03*
X150917Y327500I-2000J0D01*
G01*
X290917Y227500D02*
G03*
X290917Y227500I-2000J0D01*
G01*
X280917D02*
G03*
X280917Y227500I-2000J0D01*
G01*
X270917D02*
G03*
X270917Y227500I-2000J0D01*
G01*
X260917D02*
G03*
X260917Y227500I-2000J0D01*
G01*
X250917D02*
G03*
X250917Y227500I-2000J0D01*
G01*
X240917D02*
G03*
X240917Y227500I-2000J0D01*
G01*
X230917D02*
G03*
X230917Y227500I-2000J0D01*
G01*
X220917D02*
G03*
X220917Y227500I-2000J0D01*
G01*
X210917D02*
G03*
X210917Y227500I-2000J0D01*
G01*
X200917D02*
G03*
X200917Y227500I-2000J0D01*
G01*
X190917D02*
G03*
X190917Y227500I-2000J0D01*
G01*
X180917D02*
G03*
X180917Y227500I-2000J0D01*
G01*
X170917D02*
G03*
X170917Y227500I-2000J0D01*
G01*
X160917D02*
G03*
X160917Y227500I-2000J0D01*
G01*
X150917D02*
G03*
X150917Y227500I-2000J0D01*
G01*
X290996Y202350D02*
G03*
X290996Y202350I-2000J0D01*
G01*
X280996D02*
G03*
X280996Y202350I-2000J0D01*
G01*
X270996D02*
G03*
X270996Y202350I-2000J0D01*
G01*
X260996D02*
G03*
X260996Y202350I-2000J0D01*
G01*
X250996D02*
G03*
X250996Y202350I-2000J0D01*
G01*
X240996D02*
G03*
X240996Y202350I-2000J0D01*
G01*
X230996D02*
G03*
X230996Y202350I-2000J0D01*
G01*
X220996D02*
G03*
X220996Y202350I-2000J0D01*
G01*
X210996D02*
G03*
X210996Y202350I-2000J0D01*
G01*
X200996D02*
G03*
X200996Y202350I-2000J0D01*
G01*
X190996D02*
G03*
X190996Y202350I-2000J0D01*
G01*
X180996D02*
G03*
X180996Y202350I-2000J0D01*
G01*
X170996D02*
G03*
X170996Y202350I-2000J0D01*
G01*
X160996D02*
G03*
X160996Y202350I-2000J0D01*
G01*
X150996D02*
G03*
X150996Y202350I-2000J0D01*
G01*
X290996Y102350D02*
G03*
X290996Y102350I-2000J0D01*
G01*
X280996D02*
G03*
X280996Y102350I-2000J0D01*
G01*
X270996D02*
G03*
X270996Y102350I-2000J0D01*
G01*
X260996D02*
G03*
X260996Y102350I-2000J0D01*
G01*
X250996D02*
G03*
X250996Y102350I-2000J0D01*
G01*
X240996D02*
G03*
X240996Y102350I-2000J0D01*
G01*
X230996D02*
G03*
X230996Y102350I-2000J0D01*
G01*
X220996D02*
G03*
X220996Y102350I-2000J0D01*
G01*
X210996D02*
G03*
X210996Y102350I-2000J0D01*
G01*
X200996D02*
G03*
X200996Y102350I-2000J0D01*
G01*
X190996D02*
G03*
X190996Y102350I-2000J0D01*
G01*
X180996D02*
G03*
X180996Y102350I-2000J0D01*
G01*
X170996D02*
G03*
X170996Y102350I-2000J0D01*
G01*
X160996D02*
G03*
X160996Y102350I-2000J0D01*
G01*
X150996D02*
G03*
X150996Y102350I-2000J0D01*
G01*
M02*
